<!-- Generator: Adobe Illustrator 19.1.0, SVG Export Plug-In  -->
<svg version="1.1"
	 xmlns="http://www.w3.org/2000/svg" xmlns:xlink="http://www.w3.org/1999/xlink" xmlns:a="http://ns.adobe.com/AdobeSVGViewerExtensions/3.0/"
	 x="0px" y="0px" width="476px" height="170px" viewBox="0 0 476 170" style="enable-background:new 0 0 476 170;"
	 xml:space="preserve">
<style type="text/css">
	.st0{fill-rule:evenodd;clip-rule:evenodd;fill:#E57527;}
	.st1{fill:#E57527;}
</style>
<defs>
</defs>
<g>
	<polygon class="st0" points="9.6,0 64.5,0 87,39.7 54.9,39.7 77.6,79 22.7,79 0,39.7 30.8,39.7 	"/>
	<polygon class="st0" points="173.3,0 118.2,0 95.5,39.7 127.8,39.7 104.9,79 160,79 182.5,39.7 151.2,39.7 	"/>
	<polygon class="st0" points="9.9,170 63.6,170 86,130.5 54.4,130.5 76.7,91.7 22.8,91.7 0.2,130.5 30.5,130.5 	"/>
	<polygon class="st0" points="173.7,170 118.7,170 95.9,129.9 128.3,129.9 105.3,90.4 160.4,90.4 182.7,129.9 151.7,129.9 	"/>
</g>
<g>
	<path class="st0" d="M251,67c-1-5.1-4.3-7.7-9.8-7.7c-8.2,0-12.2,5.7-12.1,16.9c0,5.3,0.6,9.6,2,12.7c1.8,4.2,5.3,6.4,10.4,6.4
		c2.6,0,4.8-0.7,6.7-2.2c1.9-1.4,3-3.4,3.3-6l0.1-1.3h10.1l-0.1,1.4c-0.3,3.6-1.7,6.8-4.2,9.5c-2.3,2.5-5.4,4.2-9,5.3
		c-2.3,0.7-4.7,1-7.2,1c-7.4,0-13.1-2.5-17.1-7.3c-3.4-4.2-5.1-10.2-5.1-18.1c0-4,0.5-7.8,1.6-11.4c1.4-4.8,4-8.4,7.9-10.9
		c3.8-2.4,8.2-3.6,13.2-3.6c2.9,0,5.7,0.5,8.4,1.4c2.8,1,5.1,2.3,6.9,4.1c1.3,1.3,2.4,2.8,3.2,4.6c0.8,1.8,1.2,3.5,1.3,5.1v1.5
		h-10.1L251,67L251,67z M268.1,77.5c0-4.9,0.8-9.4,2.3-13.5c0.9-2.5,2.4-4.6,4.4-6.6c1.9-1.8,3.9-3.2,6.2-4.1
		c3.1-1.2,6.5-1.8,10.2-1.9c6.8,0,12.2,2,16.2,5.9c2.1,2.1,3.6,4.3,4.6,6.8c1.4,3.8,2.1,8,2.1,12.6c-0.1,17.3-7.7,26-22.8,26.1
		C275.8,102.8,268.1,94.4,268.1,77.5L268.1,77.5z M278.2,77c-0.1,12.2,4.2,18.3,12.9,18.3c8.4,0.1,12.7-5.9,12.8-18.1
		c0-4.3-0.7-8.2-2.1-11.5c-1.7-4.3-5.3-6.4-10.7-6.4c-1.9,0-3.7,0.3-5.4,1C280.7,62.2,278.1,67.7,278.2,77L278.2,77z M322.2,52.5
		h14.1h3.1c1.9,0,3.7,0.2,5.4,0.3c1.8,0.2,3.5,0.6,5,1.2c2.7,1,4.8,2.9,6.3,5.5c1.4,2.3,2,5,2,8.2c0,5.5-1.7,9.5-5.3,11.9
		c-2.9,2-7.3,3.1-13,3.3l-3.5,0.1h-4.1v18.8h-10.1V52.5L322.2,52.5z M332.3,60.2v15.2h4.1c1.4,0,2.8,0,4.2-0.2
		c4.8-0.5,7.3-3,7.4-7.6c0-4.8-2.7-7.2-8.1-7.4l-3.5,0H332.3L332.3,60.2z M395.7,52.5v7.7h-22.5v12.4h21.2v7.7h-21.2v14h23.2v7.7
		h-33.4V52.5H395.7L395.7,52.5z M413.4,52.5v41.7h20.8v7.7h-31V52.5H413.4z"/>
	<g>
		<path class="st1" d="M257.3,121.4v8.4h-14.2v39h-10v-39h-14.2v-8.4H257.3z"/>
		<path class="st1" d="M280.3,134.5c2.4,1.1,4.5,2.8,6.1,5.2c1.4,2.1,2.4,4.5,2.8,7.2c0.2,1.6,0.3,3.9,0.3,7h-25.5
			c0.1,3.5,1.4,6,3.7,7.4c1.4,0.9,3.1,1.3,5.1,1.3c2.1,0,3.8-0.5,5.1-1.6c0.7-0.6,1.3-1.4,1.9-2.4h9.4c-0.2,2.1-1.4,4.2-3.4,6.3
			c-3.1,3.4-7.5,5.1-13.2,5.1c-4.7,0-8.8-1.4-12.3-4.3s-5.3-7.6-5.3-14c0-6.1,1.6-10.7,4.8-14c3.2-3.2,7.4-4.9,12.5-4.9
			C275.1,132.9,277.9,133.4,280.3,134.5z M266.6,142.4c-1.3,1.3-2.1,3.1-2.4,5.4H280c-0.2-2.4-1-4.3-2.4-5.5
			c-1.5-1.3-3.3-1.9-5.4-1.9C269.7,140.4,267.9,141.1,266.6,142.4z"/>
		<path class="st1" d="M303.5,168.8h-9.2v-47.4h9.2V168.8z"/>
		<path class="st1" d="M335.2,134.5c2.4,1.1,4.5,2.8,6.1,5.2c1.4,2.1,2.4,4.5,2.8,7.2c0.2,1.6,0.3,3.9,0.3,7h-25.5
			c0.1,3.5,1.4,6,3.7,7.4c1.4,0.9,3.1,1.3,5.1,1.3c2.1,0,3.8-0.5,5.1-1.6c0.7-0.6,1.3-1.4,1.9-2.4h9.4c-0.2,2.1-1.4,4.2-3.4,6.3
			c-3.1,3.4-7.5,5.1-13.2,5.1c-4.7,0-8.8-1.4-12.3-4.3c-3.6-2.9-5.3-7.6-5.3-14c0-6.1,1.6-10.7,4.8-14c3.2-3.2,7.4-4.9,12.5-4.9
			C330,132.9,332.8,133.4,335.2,134.5z M321.5,142.4c-1.3,1.3-2.1,3.1-2.4,5.4h15.8c-0.2-2.4-1-4.3-2.4-5.5
			c-1.5-1.3-3.3-1.9-5.4-1.9C324.6,140.4,322.8,141.1,321.5,142.4z"/>
		<path class="st1" d="M370,146.4c-0.2-1.3-0.6-2.5-1.3-3.5c-1-1.4-2.6-2.1-4.8-2.1c-3.1,0-5.2,1.5-6.4,4.6
			c-0.6,1.6-0.9,3.8-0.9,6.5c0,2.6,0.3,4.6,0.9,6.2c1.1,2.9,3.2,4.4,6.2,4.4c2.2,0,3.7-0.6,4.6-1.7c0.9-1.2,1.5-2.7,1.6-4.5h9.4
			c-0.2,2.8-1.2,5.4-3,7.9c-2.9,4-7.1,6-12.8,6c-5.6,0-9.8-1.7-12.5-5c-2.7-3.3-4-7.7-4-13c0-6,1.5-10.7,4.4-14c2.9-3.3,7-5,12.2-5
			c4.4,0,8,1,10.8,3c2.8,2,4.5,5.5,5,10.5H370z"/>
		<path class="st1" d="M414.9,164.5c-3,3.7-7.4,5.5-13.5,5.5c-6,0-10.5-1.8-13.5-5.5c-3-3.7-4.4-8-4.4-13.2c0-5.1,1.5-9.4,4.4-13.1
			c3-3.7,7.4-5.6,13.5-5.6c6,0,10.5,1.9,13.5,5.6c3,3.7,4.4,8.1,4.4,13.1C419.3,156.5,417.8,160.9,414.9,164.5z M407.5,159.5
			c1.4-1.9,2.2-4.6,2.2-8.1c0-3.5-0.7-6.2-2.2-8.1c-1.4-1.9-3.5-2.8-6.2-2.8c-2.7,0-4.7,0.9-6.2,2.8c-1.4,1.9-2.2,4.6-2.2,8.1
			c0,3.5,0.7,6.2,2.2,8.1c1.4,1.9,3.5,2.9,6.2,2.9C404.1,162.3,406.1,161.4,407.5,159.5z"/>
		<path class="st1" d="M469.6,133.9c1.5,0.6,2.9,1.7,4.1,3.2c1,1.2,1.6,2.7,2,4.5c0.2,1.2,0.3,2.9,0.3,5.2l-0.1,22.1h-9.4v-22.3
			c0-1.3-0.2-2.4-0.6-3.3c-0.8-1.6-2.3-2.4-4.5-2.4c-2.5,0-4.3,1-5.2,3.2c-0.5,1.1-0.7,2.5-0.7,4v20.9h-9.2V148
			c0-2.1-0.2-3.6-0.6-4.5c-0.8-1.7-2.3-2.5-4.5-2.5c-2.6,0-4.4,0.8-5.3,2.5c-0.5,1-0.7,2.4-0.7,4.3v21.1h-9.3v-35h8.9v5.1
			c1.1-1.8,2.2-3.1,3.2-3.9c1.8-1.4,4.1-2.1,6.9-2.1c2.7,0,4.8,0.6,6.5,1.8c1.3,1.1,2.3,2.5,3,4.2c1.2-2.1,2.7-3.6,4.5-4.5
			c1.9-1,4-1.4,6.3-1.4C466.6,133,468.1,133.3,469.6,133.9z"/>
	</g>
</g>
</svg>
