<?xml version="1.0" encoding="utf-8"?>
<svg width="89px" height="89px" viewBox="0 0 89 89" version="1.1" xmlns:xlink="http://www.w3.org/1999/xlink" xmlns="http://www.w3.org/2000/svg">
  <desc>Created with Lunacy</desc>
  <defs>
    <linearGradient x1="1" y1="0.0578661151" x2="1.110223E-16" y2="0.9386489" id="gradient_1">
      <stop offset="0" stop-color="#FFA600" />
      <stop offset="1" stop-color="#FF6D00" />
    </linearGradient>
    <linearGradient x1="0" y1="0.9386489" x2="1" y2="0.0578661151" id="gradient_2">
      <stop offset="0" stop-color="#FFA600" />
      <stop offset="1" stop-color="#FF6D00" />
    </linearGradient>
  </defs>
  <g id="Group-26" transform="translate(1.5 1.5)">
    <g id="Group-10">
      <path d="M43 86C66.7482 86 86 66.7482 86 43C86 19.2518 66.7482 0 43 0C19.2518 0 0 19.2518 0 43C0 66.7482 19.2518 86 43 86Z" id="Oval-6" fill="none" stroke="url(#gradient_1)" stroke-width="3" />
      <g id="Group-5" transform="translate(19 20)">
        <path d="M2.07917 0L8.3682 10.5149L0 10.5149L6.26191 21L20.9238 21L14.6307 10.5149L23 10.5149L16.7381 0L2.07917 0Z" id="Fill-1" fill="url(#gradient_2)" stroke="none" />
        <path d="M6.25884 0L0 10.5149L8.36637 10.5149L2.07408 21L16.7407 21L23 10.5149L14.6317 10.5149L20.9297 0L6.25884 0Z" transform="translate(25 0)" id="Fill-2" fill="url(#gradient_2)" stroke="none" />
        <path d="M6.26185 0L0 10.4799L8.36834 10.4799L2.07915 21L16.7381 21L23 10.4799L14.6302 10.4799L20.9238 0L6.26185 0Z" transform="translate(0 24)" id="Fill-3" fill="url(#gradient_2)" stroke="none" />
        <path d="M2.07408 0L8.36658 10.4799L0 10.4799L6.25884 21L20.9295 21L14.6317 10.4799L23 10.4799L16.7407 0L2.07408 0Z" transform="translate(25 24)" id="Fill-4" fill="url(#gradient_2)" stroke="none" />
      </g>
    </g>
  </g>
</svg>