<?xml version="1.0" encoding="utf-8"?>
<svg width="24px" height="24px" viewBox="0 0 24 24" version="1.1" xmlns:xlink="http://www.w3.org/1999/xlink" xmlns="http://www.w3.org/2000/svg">
  <desc>Created with Lunacy</desc>
  <defs>
    <linearGradient x1="0" y1="0.9386489" x2="1" y2="0.0578661151" id="gradient_1">
      <stop offset="0" stop-color="#FFA600" />
      <stop offset="1" stop-color="#FF6D00" />
    </linearGradient>
  </defs>
  <g id="whatsapp-logo">
    <path d="M24 11.6909C24 18.1477 18.7256 23.3819 12.2181 23.3819C10.1523 23.3819 8.21147 22.8539 6.52293 21.9272L0 24L2.12667 17.7275C1.05387 15.9659 0.436 13.8997 0.436 11.6909C0.436 5.23413 5.71093 0 12.2181 0C18.7261 0 24 5.23413 24 11.6909ZM12.2181 1.86187C6.75573 1.86187 2.31253 6.2712 2.31253 11.6909C2.31253 13.8416 3.0136 15.8333 4.19947 17.4536L2.96187 21.104L6.76853 19.8941C8.33253 20.9211 10.2061 21.52 12.2184 21.52C17.68 21.52 22.124 17.1112 22.124 11.6915C22.124 6.27173 17.6803 1.86187 12.2181 1.86187ZM17.6141 14.0491C17.9027 14.1923 18.0949 14.2643 18.1677 14.3835C18.2395 14.5029 18.2395 15.0765 17.9995 15.7464C17.7579 16.4152 16.5787 17.0605 16.0496 17.1083C15.9589 17.1165 15.8837 17.1345 15.8067 17.153C15.4339 17.2425 15.0171 17.3425 12.5837 16.392C9.64773 15.2445 7.79467 12.2568 7.6504 12.0659C7.5056 11.8749 6.4712 10.5125 6.4712 9.1024C6.4712 7.69253 7.21707 6.9992 7.4816 6.71227C7.7464 6.4256 8.05947 6.35387 8.252 6.35387C8.44453 6.35387 8.63733 6.37787 8.8056 6.37787C8.82579 6.37787 8.847 6.3765 8.86911 6.37508C9.03188 6.3646 9.24344 6.35098 9.4552 6.85573C9.69573 7.4296 10.2739 8.83973 10.3459 8.98293C10.4184 9.12667 10.4667 9.29387 10.3699 9.48507C10.2741 9.67653 10.2261 9.79573 10.0813 9.9632C9.93707 10.1304 9.77813 10.3365 9.648 10.4651C9.50373 10.6077 9.35307 10.7627 9.52133 11.0493C9.68987 11.3365 10.2696 12.2741 11.128 13.0336C12.2312 14.0096 13.1616 14.3125 13.4501 14.4557C13.7392 14.5992 13.9075 14.5752 14.076 14.3835C14.2448 14.1923 14.7984 13.5472 14.9907 13.2603C15.1829 12.9736 15.376 13.0216 15.6408 13.1171C15.9048 13.2123 17.3251 13.9059 17.6141 14.0491Z" id="WhatsApp" fill="url(#gradient_1)" fill-rule="evenodd" stroke="none" />
  </g>
</svg>