<?xml version="1.0" encoding="utf-8"?>
<svg width="83px" height="83px" viewBox="0 0 83 83" version="1.1" xmlns:xlink="http://www.w3.org/1999/xlink" xmlns="http://www.w3.org/2000/svg">
  <desc>Created with Lunacy</desc>
  <defs>
    <linearGradient x1="1" y1="0.0578661151" x2="1.110223E-16" y2="0.9386489" id="gradient_1">
      <stop offset="0" stop-color="#FFA600" />
      <stop offset="1" stop-color="#FF6D00" />
    </linearGradient>
  </defs>
  <g id="Group-12" transform="translate(1.5 1.5)">
    <g id="team" transform="translate(9 24)">
      <path d="M5.52892 0.829264C3.89544 0.00950581 0.832774 0 0.703198 0C0.314845 0 0 0.316045 0 0.705877C0 1.09571 0.314845 1.41175 0.703198 1.41175C1.4935 1.41185 3.78808 1.53401 4.89998 2.09203C5.00096 2.14276 5.10822 2.16667 5.21388 2.16667C5.47182 2.16667 5.72019 2.02361 5.84339 1.77636C6.01712 1.42766 5.8763 1.00366 5.52892 0.829264Z" transform="translate(42.16406 16.61133)" id="Path" fill="#283336" stroke="none" />
      <path d="M51.586 28.6352L48.3191 27.7169C48.1781 27.6773 48.0796 27.5488 48.0796 27.4045L48.0796 26.3317C48.3454 26.1506 48.5989 25.9478 48.8359 25.7215C49.9845 24.625 50.617 23.1542 50.617 21.5799L50.617 20.0996L50.9329 19.4782C51.2795 18.7959 51.4627 18.0322 51.4627 17.2695L51.4627 13.2592C51.4627 12.8294 51.1086 12.481 50.6717 12.481L43.0597 12.481C40.2918 12.481 38.0398 14.6965 38.0398 17.4196L38.0398 17.4659C38.0398 18.1001 38.1922 18.7352 38.4805 19.3024L38.8856 20.0995L38.8856 21.3705C38.8856 23.3849 39.8946 25.1923 41.423 26.2799L41.4232 27.4043C41.4232 27.5777 41.4232 27.6495 40.77 27.8331L39.1759 28.2812L34.5647 26.6316C34.5813 26.4175 34.5079 26.1998 34.3492 26.0358L32.8757 24.5128L32.8757 21.9562C33.0314 21.8299 33.185 21.7002 33.3338 21.563C35.1927 19.8489 36.2588 17.4288 36.2588 14.9233L36.2588 12.8815C36.8201 11.6799 37.1045 10.4083 37.1045 9.09872L37.1045 0.778201C37.1045 0.348426 36.7504 0 36.3135 0L24.4727 0C20.3056 0 16.9155 3.33526 16.9155 7.43472L16.9155 9.09893C16.9155 10.4085 17.1999 11.6801 17.7613 12.8817L17.7613 14.6385C17.7613 17.5475 19.076 20.1683 21.1444 21.8961L21.1444 24.5129L19.6709 26.0359C19.5121 26.1999 19.4387 26.4176 19.4553 26.6317L14.5884 28.3727C14.2358 28.4989 13.9081 28.6697 13.6105 28.8767L12.8463 28.5008C15.1213 27.5266 15.8419 26.1565 15.8765 26.0884C15.9879 25.8694 15.9879 25.6114 15.8765 25.3924C15.3063 24.2703 15.2372 22.2137 15.1817 20.5612C15.1632 20.0111 15.1457 19.4913 15.1123 19.0286C14.8426 15.2959 11.9583 12.481 8.40291 12.481C4.84755 12.481 1.96309 15.2958 1.69351 19.0286C1.66008 19.4914 1.64257 20.0112 1.62411 20.5614C1.56864 22.2138 1.49945 24.2702 0.929285 25.3923C0.81791 25.6113 0.81791 25.8693 0.929285 26.0883C0.963879 26.1564 1.68307 27.5237 3.96257 28.4991L1.8398 29.5432C0.704953 30.1018 0 31.224 0 32.4721L0 38.2214C0 38.6512 0.354164 38.9996 0.791016 38.9996C1.22787 38.9996 1.58203 38.6512 1.58203 38.2214L1.58203 32.4721C1.58203 31.8172 1.95191 31.2284 2.54728 30.9355L5.19064 29.6352L6.11012 30.4949C6.75306 31.096 7.57782 31.3964 8.40291 31.3964C9.22778 31.3964 10.053 31.0958 10.6957 30.4949L11.6151 29.6353L12.477 30.0593C12.0711 30.6982 11.8408 31.4473 11.8408 32.232L11.8408 38.2216C11.8408 38.6514 12.1949 38.9998 12.6318 38.9998C13.0686 38.9998 13.4228 38.6514 13.4228 38.2216L13.4228 32.232C13.4228 31.1637 14.1084 30.2006 15.1291 29.8355L20.2603 27.9999L22.3964 31.1522C22.6695 31.5552 23.107 31.8137 23.5969 31.8614C23.6516 31.8667 23.7059 31.8693 23.7601 31.8693C24.1923 31.8693 24.6063 31.7019 24.9157 31.3976L26.2189 30.1155L26.2189 38.2217C26.2189 38.6515 26.5731 38.9999 27.0099 38.9999C27.4468 38.9999 27.8009 38.6515 27.8009 38.2217L27.8009 30.1155L29.1041 31.3976C29.4134 31.702 29.8274 31.8694 30.2597 31.8694C30.3138 31.8694 30.3682 31.8668 30.4228 31.8615C30.9128 31.8138 31.3504 31.5553 31.6234 31.1523L33.7596 28.0001L38.8908 29.8357C39.9113 30.2008 40.597 31.1639 40.597 32.2322L40.597 38.2218C40.597 38.6516 40.9512 39 41.3881 39C41.8249 39 42.1791 38.6516 42.1791 38.2218L42.1791 32.2322C42.1791 31.1502 41.7421 30.1355 41.0091 29.385L41.2045 29.3301C41.4017 29.2747 41.6706 29.1988 41.9406 29.0686L43.9602 31.0555L43.9602 38.2218C43.9602 38.6516 44.3144 39 44.7512 39C45.1881 39 45.5423 38.6516 45.5423 38.2218L45.5423 31.0555L47.5478 29.0824C47.6545 29.1357 47.7665 29.1808 47.8844 29.2139L51.1514 30.1321C51.8971 30.3417 52.418 31.0211 52.418 31.7841L52.418 38.2218C52.418 38.6516 52.7721 39 53.209 39C53.6458 39 54 38.6516 54 38.2218L54 31.7841C54 30.3296 53.0073 29.0348 51.586 28.6352ZM19.3438 14.6385L19.3438 12.7077C19.3438 12.5906 19.3169 12.4749 19.2651 12.3694C18.7561 11.3324 18.498 10.2321 18.498 9.09907L18.498 7.43496C18.498 4.1936 21.1785 1.55664 24.4732 1.55664L35.523 1.55664L35.523 9.09917C35.523 10.2322 35.2649 11.3325 34.7559 12.3695C34.7042 12.475 34.6773 12.5907 34.6773 12.7078L34.6773 14.9236C34.6773 17.0311 33.8161 18.9858 32.2524 20.4278C32.0572 20.6077 31.8546 20.7764 31.6451 20.9336C31.6405 20.9367 31.6361 20.9402 31.6315 20.9434C30.1667 22.0375 28.3725 22.5693 26.4987 22.4499C22.4866 22.1943 19.3438 18.7632 19.3438 14.6385ZM44.6182 25.7919C45.7875 25.8274 46.8951 25.4047 47.7334 24.6042C48.5722 23.8034 49.0342 22.7293 49.0342 21.5796L49.0342 19.9155C49.0342 19.7947 49.0628 19.6756 49.1177 19.5675L49.517 18.7819C49.7544 18.3146 49.8799 17.7916 49.8799 17.2692L49.8799 14.0371L43.059 14.0371C41.1634 14.0371 39.6211 15.5543 39.6211 17.4193L39.6211 17.4657C39.6211 17.8595 39.7157 18.2538 39.8947 18.6061L40.3833 19.5675C40.4383 19.6755 40.4668 19.7947 40.4668 19.9155L40.4668 21.3704C40.4668 23.7408 42.3291 25.7243 44.6182 25.7919ZM8.40368 25.7948C6.0416 25.7948 4.12007 23.9043 4.12007 21.5806C4.12007 21.1508 3.7659 20.8024 3.32905 20.8024C3.28475 20.8024 3.24151 20.8069 3.19922 20.8138C3.20154 20.7469 3.20375 20.6799 3.20607 20.6136C3.22369 20.0785 3.24067 19.5731 3.27199 19.1396C3.37303 17.7413 3.94098 16.4528 4.87121 15.5113C5.80978 14.5612 7.06423 14.0381 8.40347 14.0381C9.74271 14.0381 10.9971 14.5612 11.9357 15.5113C12.866 16.4528 13.4339 17.7413 13.5349 19.1396C13.5662 19.573 13.5833 20.0783 13.6012 20.6133C13.6028 20.6592 13.6043 20.7058 13.6059 20.7521C12.7453 19.4476 11.4162 18.4863 9.69884 17.9434C8.11227 17.4419 6.74771 17.473 6.69013 17.4744C6.48299 17.4801 6.28639 17.5654 6.14264 17.7121L4.71544 19.1683C4.41221 19.4777 4.42129 19.9704 4.73579 20.2687C5.0503 20.567 5.55107 20.558 5.85429 20.2486L7.04187 19.037C8.0646 19.0862 11.3549 19.4627 12.6346 22.2348C12.3126 24.2777 10.5278 25.7948 8.40368 25.7948ZM27.0102 27.2942L22.7266 24.4136L22.7266 22.9609C23.8349 23.5504 25.076 23.9191 26.3959 24.0031C26.6044 24.0164 26.8117 24.0229 27.0183 24.0229C28.5308 24.0229 29.9865 23.6672 31.2938 22.9921L31.2938 24.4136L27.0102 27.2942ZM5.07379 27.2608C3.59417 26.737 2.85198 26.0387 2.53516 25.6574C2.75116 25.1018 2.89122 24.4656 2.98604 23.7939C3.42225 24.8229 4.15284 25.7014 5.07379 26.3281L5.07379 27.2608ZM11.7306 26.3347L11.7305 27.2628C13.2086 26.7392 13.9543 26.0347 14.2693 25.657C14.0537 25.1027 13.9138 24.4679 13.819 23.7979C13.3824 24.8346 12.6508 25.7114 11.7306 26.3347ZM23.7962 30.297L23.7963 30.2969L25.7756 28.3495L22.0436 25.8398L21.252 26.6582L23.712 30.2886C23.7163 30.295 23.7265 30.3098 23.7522 30.3123C23.7778 30.315 23.7906 30.3024 23.7962 30.297ZM30.2676 30.3123C30.2933 30.3098 30.3034 30.295 30.3077 30.2886L32.7679 26.6582L31.9762 25.8398L28.2441 28.3496L30.2235 30.2969L30.2242 30.2976C30.2302 30.3033 30.2428 30.3154 30.2676 30.3123ZM44.7521 29.6317L42.957 27.8658C42.9884 27.7259 43.0061 27.5726 43.006 27.4036L43.0059 27.0752C43.504 27.236 44.029 27.3315 44.5723 27.3475C44.6332 27.3493 44.6937 27.3502 44.7544 27.3502C45.3548 27.3502 45.9407 27.2609 46.4985 27.0907L46.4985 27.404C46.4985 27.5592 46.5183 27.7113 46.5556 27.8575L44.7521 29.6317ZM7.20049 29.367C7.87496 29.9976 8.93186 29.9977 9.60655 29.3671L10.3421 28.6794C10.2178 28.4506 10.1497 28.191 10.1497 27.9192L10.1498 27.0904C9.59705 27.2591 9.01075 27.351 8.40357 27.351C7.79565 27.351 7.20903 27.2595 6.65722 27.0898L6.65722 27.9193C6.65722 28.191 6.58898 28.4505 6.46484 28.6792L7.20049 29.367Z" id="Shape" fill="#283336" fill-rule="evenodd" stroke="none" />
      <path d="M0.739725 0C0.3312 0 0 0.307404 0 0.686577L0 5.0912C0 5.47038 0.3312 5.77778 0.739725 5.77778C1.14825 5.77778 1.47945 5.47038 1.47945 5.0912L1.47945 0.686577C1.47945 0.307495 1.14825 0 0.739725 0Z" transform="translate(48.82227 33.22266)" id="Path" fill="#283336" stroke="none" />
      <path d="M0.739726 0C0.3312 0 0 0.364688 0 0.814521L0 4.96326C0 5.41309 0.3312 5.77778 0.739726 5.77778C1.14825 5.77778 1.47945 5.41309 1.47945 4.96326L1.47945 0.814521C1.47945 0.364797 1.14825 0 0.739726 0Z" transform="translate(3.699219 33.22266)" id="Path" fill="#283336" stroke="none" />
      <path d="M13.0852 2.23959C10.1175 -0.612737 3.90835 -0.0674304 1.3763 0.299392C0.578767 0.414929 0 1.06361 0 1.8418L0 3.57917C0 3.99567 0.35132 4.33333 0.784662 4.33333C1.21801 4.33333 1.56932 3.99567 1.56932 3.57917L1.56932 1.8417C1.56932 1.81605 1.5869 1.79413 1.61034 1.79071C2.62171 1.64421 4.62867 1.41816 6.70803 1.55139C9.15492 1.70796 10.9272 2.29831 11.9756 3.30607C12.2821 3.60059 12.7789 3.60059 13.0852 3.30607C13.3917 3.01155 13.3917 2.53401 13.0852 2.23959Z" transform="translate(19.97266 7.222656)" id="Path" fill="#283336" stroke="none" />
      <path d="M0.739726 0C0.3312 0 0 0.360613 0 0.805418L0 4.25014C0 4.69494 0.3312 5.05556 0.739726 5.05556C1.14825 5.05556 1.47945 4.69494 1.47945 4.25014L1.47945 0.805418C1.47945 0.36072 1.14825 0 0.739726 0Z" transform="translate(17.01367 33.94434)" id="Path" fill="#283336" stroke="none" />
      <path d="M0.739725 0C0.3312 0 0 0.360613 0 0.805418L0 4.25014C0 4.69494 0.3312 5.05556 0.739725 5.05556C1.14825 5.05556 1.47945 4.69494 1.47945 4.25014L1.47945 0.805418C1.47945 0.36072 1.14825 0 0.739725 0Z" transform="translate(35.50781 33.94434)" id="Path" fill="#283336" stroke="none" />
    </g>
    <path d="M40 80C62.0914 80 80 62.0914 80 40C80 17.9086 62.0914 0 40 0C17.9086 0 0 17.9086 0 40C0 62.0914 17.9086 80 40 80Z" id="Oval-6" fill="none" stroke="url(#gradient_1)" stroke-width="3" />
  </g>
</svg>