<?xml version="1.0" encoding="utf-8"?>
<svg width="89px" height="89px" viewBox="0 0 89 89" version="1.1" xmlns:xlink="http://www.w3.org/1999/xlink" xmlns="http://www.w3.org/2000/svg">
  <desc>Created with Lunacy</desc>
  <defs>
    <linearGradient x1="0" y1="0.9386489" x2="1" y2="0.0578661151" id="gradient_1">
      <stop offset="0" stop-color="#FFA600" />
      <stop offset="1" stop-color="#FF6D00" />
    </linearGradient>
    <linearGradient x1="1" y1="0.0578661151" x2="1.110223E-16" y2="0.9386489" id="gradient_2">
      <stop offset="0" stop-color="#FFA600" />
      <stop offset="1" stop-color="#FF6D00" />
    </linearGradient>
  </defs>
  <g id="team" transform="translate(1.5 1.5)">
    <path d="M6.53999 0.765475C4.60779 0.0087746 0.985064 0 0.831792 0C0.372421 0 0 0.291734 0 0.651579C0 1.01142 0.372421 1.30316 0.831792 1.30316C1.76662 1.30324 4.48081 1.41601 5.79604 1.93111C5.91548 1.97793 6.04236 2 6.16735 2C6.47245 2 6.76624 1.86795 6.91197 1.63972C7.11748 1.31784 6.9509 0.926458 6.53999 0.765475Z" transform="translate(59 38)" id="Path" fill="url(#gradient_1)" stroke="none" />
    <path d="M56.3625 31.5721L52.7931 30.5597C52.6391 30.516 52.5314 30.3743 52.5314 30.2152L52.5314 29.0324C52.8218 28.8327 53.0989 28.6091 53.3578 28.3596C54.6127 27.1506 55.3037 25.529 55.3037 23.7932L55.3037 22.1611L55.6489 21.4759C56.0276 20.7237 56.2278 19.8816 56.2278 19.0408L56.2278 14.6191C56.2278 14.1453 55.8408 13.7611 55.3635 13.7611L47.0467 13.7611C44.0225 13.7611 41.562 16.2038 41.562 19.2062L41.562 19.2573C41.562 19.9565 41.7286 20.6568 42.0435 21.2821L42.4861 22.161L42.4861 23.5624C42.4861 25.7834 43.5886 27.7762 45.2584 28.9753L45.2586 30.215C45.2586 30.4062 45.2586 30.4853 44.545 30.6878L42.8033 31.1818L37.7652 29.363C37.7833 29.127 37.7031 28.887 37.5296 28.7061L35.9197 27.0269L35.9197 24.2081C36.0899 24.0688 36.2577 23.9258 36.4203 23.7746C38.4513 21.8847 39.6161 19.2164 39.6161 16.4539L39.6161 14.2027C40.2294 12.8778 40.5401 11.4758 40.5401 10.0319L40.5401 0.858016C40.5401 0.384163 40.1532 0 39.6759 0L26.7386 0C22.1857 0 18.4818 3.67734 18.4818 8.19726L18.4818 10.0322C18.4818 11.476 18.7925 12.878 19.4058 14.2029L19.4058 16.1399C19.4058 19.3472 20.8423 22.2368 23.1022 24.1418L23.1022 27.0271L21.4922 28.7063C21.3188 28.8871 21.2386 29.1271 21.2567 29.3631L15.9392 31.2827C15.5539 31.4218 15.1958 31.6102 14.8708 31.8385L14.0358 31.424C16.5214 30.3499 17.3088 28.8392 17.3466 28.7641C17.4683 28.5226 17.4683 28.2382 17.3466 27.9967C16.7235 26.7596 16.648 24.492 16.5874 22.67C16.5672 22.0635 16.5481 21.4904 16.5116 20.9802C16.2169 16.8647 13.0655 13.7611 9.18095 13.7611C5.2964 13.7611 2.14486 16.8646 1.85032 20.9802C1.81379 21.4906 1.79466 22.0636 1.77449 22.6703C1.71388 24.4921 1.63829 26.7595 1.01533 27.9966C0.893643 28.2381 0.893643 28.5225 1.01533 28.764C1.05313 28.8391 1.83891 30.3467 4.32947 31.422L2.01015 32.5733C0.770227 33.1892 0 34.4265 0 35.8026L0 42.1415C0 42.6154 0.386957 42.9995 0.864258 42.9995C1.34156 42.9995 1.72852 42.6154 1.72852 42.1415L1.72852 35.8026C1.72852 35.0805 2.13264 34.4313 2.78314 34.1083L5.67126 32.6747L6.67587 33.6226C7.37834 34.2853 8.27947 34.6165 9.18095 34.6165C10.0822 34.6165 10.9838 34.2851 11.686 33.6226L12.6905 32.6749L13.6322 33.1423C13.1888 33.8467 12.9371 34.6727 12.9371 35.5379L12.9371 42.1418C12.9371 42.6156 13.3241 42.9998 13.8014 42.9998C14.2787 42.9998 14.6656 42.6156 14.6656 42.1418L14.6656 35.5379C14.6656 34.36 15.4148 33.2981 16.5299 32.8955L22.1363 30.8717L24.4701 34.3473C24.7685 34.7916 25.2466 35.0766 25.7818 35.1292C25.8415 35.1351 25.9009 35.1379 25.9601 35.1379C26.4323 35.1379 26.8846 34.9534 27.2227 34.6179L28.6466 33.2043L28.6466 42.1419C28.6466 42.6157 29.0335 42.9999 29.5108 42.9999C29.9881 42.9999 30.3751 42.6157 30.3751 42.1419L30.3751 33.2043L31.7989 34.6179C32.1369 34.9535 32.5892 35.1381 33.0616 35.1381C33.1207 35.1381 33.1801 35.1352 33.2397 35.1294C33.7751 35.0767 34.2532 34.7918 34.5515 34.3474L36.8855 30.8719L42.4918 32.8958C43.6068 33.2984 44.356 34.3602 44.356 35.5381L44.356 42.142C44.356 42.6158 44.743 43 45.2203 43C45.6976 43 46.0845 42.6158 46.0845 42.142L46.0845 35.5381C46.0845 34.3451 45.6071 33.2263 44.8062 32.3988L45.0198 32.3383C45.2351 32.2772 45.529 32.1936 45.824 32.05L48.0306 34.2407L48.0306 42.142C48.0306 42.6158 48.4176 43 48.8949 43C49.3722 43 49.7591 42.6158 49.7591 42.142L49.7591 34.2407L51.9504 32.0652C52.0669 32.124 52.1893 32.1737 52.3181 32.2102L55.8876 33.2226C56.7023 33.4537 57.2715 34.2027 57.2715 35.044L57.2715 42.142C57.2715 42.6158 57.6584 43 58.1357 43C58.613 43 59 42.6158 59 42.142L59 35.044C59 33.4403 57.9154 32.0127 56.3625 31.5721ZM21.1343 16.1397L21.1343 14.0109C21.1343 13.8818 21.1049 13.7542 21.0484 13.6379C20.4922 12.4945 20.2103 11.2814 20.2103 10.0322L20.2103 8.19737C20.2103 4.62356 23.1389 1.71615 26.7386 1.71615L38.8116 1.71615L38.8116 10.0323C38.8116 11.2815 38.5297 12.4947 37.9735 13.638C37.917 13.7543 37.8876 13.8819 37.8876 14.0111L37.8876 16.4541C37.8876 18.7777 36.9467 20.933 35.2382 22.5228C35.0249 22.7212 34.8036 22.9072 34.5747 23.0805C34.5696 23.084 34.5648 23.0877 34.5598 23.0913C32.9593 24.2976 30.999 24.884 28.9517 24.7523C24.5681 24.4705 21.1343 20.6875 21.1343 16.1397ZM48.7504 28.4376C50.028 28.4768 51.238 28.0107 52.154 27.1282C53.0705 26.2452 53.5752 25.0609 53.5752 23.7934L53.5752 21.9586C53.5752 21.8253 53.6065 21.6941 53.6665 21.5749L54.1028 20.7086C54.3622 20.1935 54.4993 19.6168 54.4993 19.0409L54.4993 15.4772L47.0467 15.4772C44.9756 15.4772 43.2906 17.15 43.2906 19.2063L43.2906 19.2574C43.2906 19.6917 43.3939 20.1264 43.5895 20.5148L44.1234 21.5749C44.1834 21.694 44.2146 21.8253 44.2146 21.9586L44.2146 23.5626C44.2146 26.1761 46.2493 28.3632 48.7504 28.4376ZM9.18141 28.4399C6.60063 28.4399 4.50117 26.3555 4.50117 23.7935C4.50117 23.3196 4.11421 22.9355 3.63691 22.9355C3.58851 22.9355 3.54127 22.9404 3.49506 22.948C3.49759 22.8743 3.50001 22.8004 3.50255 22.7272C3.52179 22.1373 3.54035 21.58 3.57457 21.1021C3.68496 19.5604 4.3055 18.1397 5.32187 17.1016C6.34734 16.0542 7.71794 15.4774 9.18118 15.4774C10.6444 15.4774 12.0149 16.0542 13.0405 17.1016C14.0569 18.1397 14.6774 19.5604 14.7878 21.1021C14.8219 21.5799 14.8406 22.137 14.8602 22.7269C14.8619 22.7776 14.8636 22.829 14.8653 22.88C13.925 21.4417 12.4729 20.3818 10.5965 19.7832C8.86302 19.2303 7.37212 19.2645 7.3092 19.2661C7.08288 19.2724 6.86808 19.3665 6.71102 19.5282L5.15167 21.1337C4.82037 21.4749 4.83028 22.0181 5.17391 22.347C5.51754 22.6759 6.06467 22.6659 6.39597 22.3249L7.69351 20.989C8.81094 21.0432 12.4059 21.4583 13.804 24.5148C13.4522 26.7671 11.5022 28.4399 9.18141 28.4399ZM29.5109 30.0931L24.8307 26.9171L24.8307 25.3155C26.0417 25.9654 27.3977 26.3719 28.8398 26.4645C29.0676 26.4792 29.2941 26.4864 29.5198 26.4864C31.1724 26.4864 32.7629 26.0942 34.1912 25.3498L34.1912 26.9171L29.5109 30.0931ZM5.5445 30.0567C3.92788 29.4791 3.11697 28.7092 2.77081 28.2888C3.00681 27.6763 3.15984 26.9748 3.26344 26.2342C3.74005 27.3688 4.53828 28.3373 5.5445 29.0283L5.5445 30.0567ZM12.8175 29.0362L12.8174 30.0595C14.4324 29.4822 15.2471 28.7054 15.5913 28.289C15.3558 27.6779 15.2029 26.978 15.0993 26.2392C14.6223 27.3823 13.8229 28.349 12.8175 29.0362ZM26.0004 33.4044L26.0006 33.4043L28.1632 31.2572L24.0856 28.4901L23.2206 29.3924L25.9085 33.3951C25.9132 33.4022 25.9243 33.4186 25.9524 33.4213C25.9804 33.4243 25.9944 33.4104 26.0004 33.4044ZM33.0695 33.4216C33.0976 33.4188 33.1087 33.4025 33.1134 33.3954L35.8014 29.3927L34.9363 28.4904L30.8587 31.2575L33.0213 33.4045L33.0222 33.4053C33.0287 33.4116 33.0425 33.425 33.0695 33.4216ZM48.8949 32.6714L46.9336 30.7244C46.9678 30.5701 46.9872 30.4011 46.987 30.2148L46.9869 29.8527C47.5312 30.03 48.1048 30.1352 48.6984 30.1529C48.765 30.1549 48.831 30.1558 48.8974 30.1558C49.5533 30.1558 50.1936 30.0575 50.8029 29.8697L50.8029 30.2152C50.8029 30.3864 50.8246 30.5541 50.8654 30.7153L48.8949 32.6714ZM7.8667 32.3787C8.60363 33.074 9.75839 33.0741 10.4955 32.3788L11.2992 31.6206C11.1634 31.3683 11.089 31.0822 11.089 30.7824L11.0891 29.8686C10.4852 30.0546 9.84459 30.156 9.18118 30.156C8.51697 30.156 7.87604 30.0551 7.27313 29.868L7.27313 30.7825C7.27313 31.0822 7.19858 31.3682 7.06295 31.6204L7.8667 32.3787Z" transform="translate(14 20)" id="Shape" fill="url(#gradient_1)" fill-rule="evenodd" stroke="none" />
    <path d="M1 0C0.447733 0 0 0.372431 0 0.831815L0 6.16819C0 6.62757 0.447733 7 1 7C1.55227 7 2 6.62757 2 6.16819L2 0.831815C2 0.372542 1.55227 0 1 0Z" transform="translate(67 56)" id="Path" fill="url(#gradient_1)" stroke="none" />
    <path d="M1 0C0.447733 0 0 0.378715 0 0.845849L0 5.15415C0 5.62129 0.447733 6 1 6C1.55227 6 2 5.62129 2 5.15415L2 0.845849C2 0.378827 1.55227 0 1 0Z" transform="translate(18 57)" id="Path" fill="url(#gradient_1)" stroke="none" />
    <path d="M14.7411 2.58414C11.3978 -0.707004 4.40293 -0.0778043 1.55046 0.345452C0.652006 0.478764 0 1.22724 0 2.12515L0 4.12982C0 4.61039 0.395777 5 0.883956 5C1.37214 5 1.76791 4.61039 1.76791 4.12982L1.76791 2.12503C1.76791 2.09545 1.78771 2.07015 1.81411 2.06621C2.95347 1.89716 5.2144 1.63634 7.55688 1.79007C10.3134 1.97072 12.31 2.6519 13.4911 3.8147C13.8363 4.15453 14.396 4.15453 14.7411 3.8147C15.0863 3.47486 15.0863 2.92386 14.7411 2.58414Z" transform="translate(36 28)" id="Path" fill="url(#gradient_1)" stroke="none" />
    <path d="M1 0C0.447733 0 0 0.35665 0 0.796567L0 4.20343C0 4.64335 0.447733 5 1 5C1.55227 5 2 4.64335 2 4.20343L2 0.796567C2 0.356756 1.55227 0 1 0Z" transform="translate(31 58)" id="Path" fill="url(#gradient_1)" stroke="none" />
    <path d="M1 0C0.447733 0 0 0.35665 0 0.796567L0 4.20343C0 4.64335 0.447733 5 1 5C1.55227 5 2 4.64335 2 4.20343L2 0.796567C2 0.356756 1.55227 0 1 0Z" transform="translate(54 58)" id="Path" fill="url(#gradient_1)" stroke="none" />
    <path d="M43 86C66.7482 86 86 66.7482 86 43C86 19.2518 66.7482 0 43 0C19.2518 0 0 19.2518 0 43C0 66.7482 19.2518 86 43 86Z" id="Oval-6" fill="none" stroke="url(#gradient_2)" stroke-width="3" />
  </g>
</svg>