<?xml version="1.0" encoding="utf-8"?>
<svg width="45px" height="45px" viewBox="0 0 45 45" version="1.1" xmlns:xlink="http://www.w3.org/1999/xlink" xmlns="http://www.w3.org/2000/svg">
  <desc>Created with Lunacy</desc>
  <defs>
    <linearGradient x1="1" y1="0.0578661151" x2="1.110223E-16" y2="0.9386489" id="gradient_1">
      <stop offset="0" stop-color="#FFA600" />
      <stop offset="1" stop-color="#FF6D00" />
    </linearGradient>
  </defs>
  <g id="Group-7" transform="translate(0.5 0.5)">
    <path d="M22 44C34.1503 44 44 34.1503 44 22C44 9.84974 34.1503 0 22 0C9.84974 0 0 9.84974 0 22C0 34.1503 9.84974 44 22 44Z" id="Oval-6" fill="none" stroke="url(#gradient_1)" stroke-width="1" />
    <g id="?" fill="#FF9602" transform="translate(16 5)">
      <path d="M4.35 22.7Q4.35 21.1 4.95 20.0875Q5.55 19.075 7.025 18.05Q8.45 17.075 9.025 16.325Q9.6 15.575 9.6 14.475Q9.6 13.225 8.6 12.5Q7.6 11.775 5.8 11.775Q3.3 11.775 1.25 12.75L1.25 10.975Q3.375 10.075 5.8 10.075Q7.475 10.075 8.775 10.625Q10.075 11.175 10.7875 12.175Q11.5 13.175 11.5 14.475Q11.5 15.75 10.8125 16.8Q10.125 17.85 8.65 18.85Q7.6 19.575 7.1 20.075Q6.6 20.575 6.4125 21.1625Q6.225 21.75 6.225 22.725L6.225 23.175L4.35 23.175L4.35 22.7ZM5.275 28.3Q4.775 28.3 4.425 27.95Q4.075 27.6 4.075 27.1Q4.075 26.6 4.425 26.25Q4.775 25.9 5.275 25.9Q5.775 25.9 6.1375 26.25Q6.5 26.6 6.5 27.1Q6.5 27.6 6.1375 27.95Q5.775 28.3 5.275 28.3Z" />
    </g>
  </g>
</svg>