<?xml version="1.0" encoding="utf-8"?>
<svg width="31px" height="27px" viewBox="0 0 31 27" version="1.1" xmlns:xlink="http://www.w3.org/1999/xlink" xmlns="http://www.w3.org/2000/svg">
  <desc>Created with Lunacy</desc>
  <defs>
    <linearGradient x1="0" y1="0.9386489" x2="1" y2="0.0578661151" id="gradient_1">
      <stop offset="0" stop-color="#FFA600" />
      <stop offset="1" stop-color="#FF6D00" />
    </linearGradient>
  </defs>
  <path d="M21.4174 8.5115L28.3194 8.5115C29.8117 8.5115 31.0035 9.74168 31 11.2464L31 21.2591C31 22.7603 29.8048 23.9941 28.3505 23.9941L26.7822 23.9941L24.8062 26.729C24.6577 26.8859 24.4712 27 24.2466 27C24.022 27 23.7975 26.9216 23.687 26.729L21.7111 23.9941L12.2355 23.9941C10.7813 23.9941 9.58601 22.7604 9.58601 21.2591L9.58601 15.4826L9.28894 15.4826L7.31302 18.2175C7.16449 18.3744 6.97796 18.4885 6.75339 18.4885C6.52882 18.4885 6.3043 18.4101 6.19376 18.2175L4.21784 15.4826L2.64953 15.4826C1.19526 15.4826 0 14.2489 0 12.7476L0 2.73494C0 1.23373 1.19526 0 2.64953 0L18.7679 0C20.2222 0 21.4174 1.23373 21.4174 2.73494L21.4174 8.5115ZM8.3591 14.3272C8.50763 14.1704 8.69421 14.0563 8.91873 14.0563L10.2591 14.0563L18.6948 14.0563C19.4029 14.0563 19.9625 13.4786 19.9625 12.7476L19.9625 2.73494C19.9625 2.00394 19.4029 1.42627 18.6948 1.42627L2.57639 1.42627C1.86823 1.42627 1.30859 2.00394 1.30859 2.73494L1.30859 12.7476C1.30859 13.4786 1.86823 14.0563 2.57639 14.0563L4.51776 14.0563C4.74233 14.0563 4.96685 14.1347 5.07739 14.3272L6.71825 16.5594L8.3591 14.3272ZM5.59595 5.12402C5.22285 5.12402 4.92578 5.43072 4.92578 5.8158C4.92578 6.20088 5.22285 6.50752 5.59595 6.50757L11.6757 6.50757C12.0488 6.50757 12.3459 6.20088 12.3459 5.8158C12.3459 5.43067 12.0488 5.12402 11.6757 5.12402L5.59595 5.12402ZM15.707 10.512L5.59595 10.512C5.2229 10.512 4.92578 10.2053 4.92578 9.82019C4.92578 9.43506 5.22285 9.12842 5.59595 9.12842L15.707 9.12842C16.0801 9.12842 16.3772 9.43506 16.3772 9.82019C16.4152 10.2053 16.0801 10.512 15.707 10.512ZM29.6246 21.2592C29.6246 21.9902 29.065 22.5679 28.3569 22.5679L26.4155 22.5679C26.191 22.5679 26.0044 22.682 25.8559 22.8389L24.215 25.071L22.5742 22.8389C22.4636 22.6463 22.2391 22.5679 22.0145 22.5679L12.2385 22.5679C11.5303 22.5679 10.9707 21.9902 10.9707 21.2592L10.9707 15.4826L18.7674 15.4826C19.289 15.4826 19.776 15.3293 20.1837 15.0583L25.4068 15.0583C25.7798 15.0583 26.077 14.7516 26.077 14.3665C26.077 13.9814 25.7799 13.6747 25.4068 13.6747L21.3029 13.6747C21.4135 13.4038 21.4515 13.0971 21.4515 12.7512L21.4515 9.97705L28.3534 9.97705C29.0615 9.97705 29.6212 10.5547 29.6212 11.2857L29.6212 21.2592L29.6246 21.2592ZM25.372 19.0232C25.7451 19.0232 26.0422 18.7165 26.0422 18.3315C26.0422 17.9463 25.7417 17.6361 25.372 17.6397L15.2229 17.6397C14.8498 17.6397 14.5527 17.9463 14.5527 18.3315C14.5527 18.7166 14.8499 19.0232 15.2229 19.0232L25.372 19.0232Z" id="Shape" fill="url(#gradient_1)" fill-rule="evenodd" stroke="none" />
</svg>