<?xml version="1.0" encoding="utf-8"?>
<svg width="30px" height="30px" viewBox="0 0 30 30" version="1.1" xmlns:xlink="http://www.w3.org/1999/xlink" xmlns="http://www.w3.org/2000/svg">
  <desc>Created with Lunacy</desc>
  <defs>
    <path d="M0 0L29.8961 0L29.8961 29.8953L0 29.8953L0 0Z" id="path_1" />
    <clipPath id="mask_1">
      <use xlink:href="#path_1" />
    </clipPath>
  </defs>
  <g id="Group-3">
    <path d="M0 0L29.8961 0L29.8961 29.8953L0 29.8953L0 0Z" id="Clip-2" fill="none" stroke="none" />
    <g clip-path="url(#mask_1)">
      <path d="M6.44825e-06 14.9578C0.00672 23.1994 6.71625 29.9008 14.9591 29.8955C23.2007 29.8901 29.9022 23.1792 29.8968 14.9377C29.8914 6.69476 23.1806 -0.00536439 14.9377 6.44955e-06C6.69611 0.00537729 -0.0053644 6.7149 6.44825e-06 14.9578ZM6.24361 14.9538C6.24227 10.1549 10.1442 6.2463 14.943 6.24361C19.7419 6.24093 23.6492 10.1428 23.6519 14.9417C23.6545 19.7405 19.754 23.6478 14.9551 23.6519C10.1563 23.6545 6.24764 19.7526 6.24361 14.9538Z" transform="translate(0 -0.0001220703)" id="Fill-1" fill="#F76D00" fill-rule="evenodd" stroke="none" />
    </g>
  </g>
</svg>