<?xml version="1.0" encoding="utf-8"?>
<svg width="76px" height="76px" viewBox="0 0 76 76" version="1.1" xmlns:xlink="http://www.w3.org/1999/xlink" xmlns="http://www.w3.org/2000/svg">
  <desc>Created with Lunacy</desc>
  <defs>
    <linearGradient x1="1" y1="0.0578661151" x2="1.110223E-16" y2="0.9386489" id="gradient_1">
      <stop offset="0" stop-color="#FFA600" />
      <stop offset="1" stop-color="#FF6D00" />
    </linearGradient>
    <linearGradient x1="0" y1="0.9386489" x2="1" y2="0.0578661151" id="gradient_2">
      <stop offset="0" stop-color="#FFA600" />
      <stop offset="1" stop-color="#FF6D00" />
    </linearGradient>
    <path d="M0 0L44 0L44 44L0 44L0 0Z" id="path_1" />
    <clipPath id="mask_1">
      <use xlink:href="#path_1" />
    </clipPath>
  </defs>
  <g id="Group-12" transform="translate(1.5 1.5)">
    <g id="Group-38">
      <g id="Group-25">
        <g id="Group-42">
          <path d="M36.5 73C56.6584 73 73 56.6584 73 36.5C73 16.3416 56.6584 0 36.5 0C16.3416 0 0 16.3416 0 36.5C0 56.6584 16.3416 73 36.5 73Z" id="Oval-6" fill="none" stroke="url(#gradient_1)" stroke-width="3" />
        </g>
      </g>
    </g>
  </g>
  <g id="Group-3" transform="translate(16.5 15.5)">
    <path d="M0 0L44 0L44 44L0 44L0 0Z" id="Clip-2" fill="none" stroke="none" />
    <g clip-path="url(#mask_1)">
      <path d="M33.7485 5.13476C33.7485 2.30325 36.0486 0 38.8742 0C41.7008 0 44 2.30325 44 5.13476C44 7.96627 41.7008 10.2695 38.8742 10.2695C37.7425 10.2695 36.6991 9.89569 35.8503 9.27044L27.8632 17.2716C29.1472 18.7057 29.9359 20.5937 29.9359 22.6681C29.9359 27.1343 26.3084 30.7681 21.8501 30.7681C19.8629 30.7681 18.0441 30.044 16.635 28.8481L9.42152 36.0742C9.94416 36.8784 10.2506 37.836 10.2506 38.8652C10.2506 41.6968 7.95138 44 5.12577 44C2.29922 44 0 41.6968 0 38.8652C0 36.0337 2.29922 33.7305 5.12577 33.7305C6.24623 33.7305 7.28116 34.0958 8.12527 34.7107L15.3538 27.4695C14.3593 26.1239 13.7643 24.4657 13.7643 22.6681C13.7643 18.201 17.3917 14.5681 21.8501 14.5681C23.5609 14.5681 25.1466 15.1067 26.4551 16.0182L34.5616 7.89847C34.0493 7.09996 33.7485 6.15267 33.7485 5.13476ZM35.6284 5.13478C35.6284 6.92767 37.0845 8.38626 38.8742 8.38626C40.6639 8.38626 42.12 6.92767 42.12 5.13478C42.12 3.3419 40.6639 1.8833 38.8742 1.8833C37.0845 1.8833 35.6284 3.3419 35.6284 5.13478ZM15.6443 22.6681C15.6443 26.0957 18.4285 28.8848 21.8501 28.8848C25.2717 28.8848 28.0559 26.0957 28.0559 22.6681C28.0559 19.2396 25.2717 16.4514 21.8501 16.4514C18.4285 16.4514 15.6443 19.2396 15.6443 22.6681ZM5.12579 42.1167C3.33511 42.1167 1.88 40.6581 1.88 38.8652C1.88 37.0714 3.33511 35.6138 5.12579 35.6138C6.91459 35.6138 8.37064 37.0714 8.37064 38.8652C8.37064 40.6581 6.91459 42.1167 5.12579 42.1167Z" id="Fill-1" fill="url(#gradient_2)" fill-rule="evenodd" stroke="none" />
    </g>
  </g>
</svg>