<?xml version="1.0" encoding="utf-8"?>
<svg width="91px" height="64px" viewBox="0 0 91 64" version="1.1" xmlns:xlink="http://www.w3.org/1999/xlink" xmlns="http://www.w3.org/2000/svg">
  <desc>Created with Lunacy</desc>
  <defs>
    <linearGradient x1="0" y1="0.9386489" x2="1" y2="0.0578661151" id="gradient_1">
      <stop offset="0" stop-color="#FFA600" />
      <stop offset="1" stop-color="#FF6D00" />
    </linearGradient>
  </defs>
  <g id="air-conditioner">
    <path d="M4.54995 0L86.4501 0C89.0284 0 91.0002 1.99992 91 4.61533L91 35.3847C91 38.0001 89.0284 40 86.4501 40L4.54995 40C1.97158 40 0 38.0001 0 35.3847L0 4.61533C0 1.99992 1.97158 0 4.54995 0ZM86.4502 36.923C87.3602 36.923 87.9668 36.3077 87.9668 35.3847L87.9666 35.3847L87.9666 4.61534C87.9666 3.69227 87.36 3.07695 86.4501 3.07695L4.54995 3.07695C3.79174 3.07695 3.03336 3.69227 3.03336 4.61534L3.03336 35.3847C3.03336 36.3077 3.63996 36.923 4.54995 36.923L86.4502 36.923Z" id="Shape" fill="url(#gradient_1)" fill-rule="evenodd" stroke="none" />
    <path d="M1.49993 3L13.5001 3C14.4001 3 15 2.40004 15 1.5C15 0.599964 14.4001 0 13.5001 0L1.49993 0C0.599936 0 0 0.599964 0 1.5C0 2.40004 0.599936 3 1.49993 3Z" transform="translate(38 11)" id="Path" fill="url(#gradient_1)" stroke="none" />
    <path d="M77.4808 0L1.51915 0C0.607625 0 0 0.599964 0 1.5C0 2.40004 0.607625 3 1.51915 3L77.4808 3C78.3924 3 79 2.40004 79 1.5C79 0.599964 78.3924 0 77.4808 0Z" transform="translate(6 30)" id="Path" fill="url(#gradient_1)" stroke="none" />
    <path d="M77.4808 0L1.51915 0C0.607625 0 0 0.599964 0 1.5C0 2.40004 0.607625 3 1.51915 3L77.4808 3C78.3924 3 79 2.40004 79 1.5C79 0.599964 78.3924 0 77.4808 0Z" transform="translate(6 24)" id="Path" fill="url(#gradient_1)" stroke="none" />
    <path d="M0.583317 4.26954C0.416663 3.85427 0.333327 3.35597 0.333327 2.9407C0.333327 2.52542 0.433323 2.02713 0.566657 1.52884C0.649994 1.36271 0.666653 0.864415 0.633315 0.449237C0.599976 0.0339607 0.49998 -0.132071 0.416663 0.117075C0.149994 0.864513 0 1.8611 0 2.9408C0 4.0204 0.149994 5.01708 0.416663 5.84753C0.583317 6.26281 0.666653 6.7611 0.666653 7.17638C0.666653 7.59165 0.566657 8.08995 0.416663 8.50512C0.333327 8.67125 0.300008 9.16955 0.350006 9.58472C0.383345 9.83387 0.433343 10 0.5 10C0.533339 10 0.549998 10 0.583337 9.91698C0.850006 9.16955 1 8.17296 1 7.09326C1 6.01356 0.849986 4.93396 0.583317 4.26954Z" transform="translate(41 50)" id="Path" fill="url(#gradient_1)" stroke="none" />
    <path d="M5.24985 7.6851C3.74997 6.93761 2.99994 6.04069 2.99994 5.2932C2.99994 4.54571 3.8999 3.6488 5.09992 2.75188C5.84995 2.45285 6.14982 1.55593 5.69983 0.808619C5.39979 0.0611286 4.49982 -0.237725 3.74997 0.210734C1.34995 1.55611 0 3.34994 0 5.29338C0 7.23664 1.34995 9.03065 3.74997 10.5255C5.24985 11.2729 5.99988 12.1699 5.99988 12.9174C5.99988 13.6648 5.09992 14.5618 3.74997 15.3092C2.99994 15.6083 2.70007 16.5052 3.15005 17.2525C3.4501 17.701 3.90008 18 4.5 18C4.80005 18 4.94998 18 5.25003 17.8506C7.65005 16.5052 9 14.7114 9 12.7679C9 10.8245 7.64987 8.88105 5.24985 7.6851Z" transform="translate(24 46)" id="Path" fill="url(#gradient_1)" stroke="none" />
    <path d="M5.24985 7.6851C3.74997 6.93761 2.99994 6.04069 2.99994 5.2932C2.99994 4.54571 3.8999 3.6488 5.09992 2.75188C5.84995 2.45285 5.99988 1.55593 5.69983 0.808619C5.39979 0.0611286 4.49982 -0.237725 3.74997 0.210734C1.34995 1.55611 0 3.34994 0 5.29338C0 7.23664 1.34995 9.03065 3.74997 10.5255C5.24985 11.2729 5.99988 12.1699 5.99988 12.9174C5.99988 13.6648 5.09992 14.5618 3.74997 15.3092C2.99994 15.6083 2.70007 16.5052 3.15005 17.2525C3.4501 17.701 3.90008 18 4.5 18C4.80005 18 4.94998 18 5.25003 17.8506C7.65005 16.5052 9 14.7114 9 12.7679C9 10.8245 7.6497 8.88105 5.24985 7.6851Z" transform="translate(58 46)" id="Path" fill="url(#gradient_1)" stroke="none" />
  </g>
</svg>