<?xml version="1.0" encoding="utf-8"?>
<svg width="76px" height="76px" viewBox="0 0 76 76" version="1.1" xmlns:xlink="http://www.w3.org/1999/xlink" xmlns="http://www.w3.org/2000/svg">
  <desc>Created with Lunacy</desc>
  <defs>
    <linearGradient x1="1" y1="0.0578661151" x2="1.110223E-16" y2="0.9386489" id="gradient_1">
      <stop offset="0" stop-color="#FFA600" />
      <stop offset="1" stop-color="#FF6D00" />
    </linearGradient>
    <linearGradient x1="0" y1="0.9386489" x2="1" y2="0.0578661151" id="gradient_2">
      <stop offset="0" stop-color="#FFA600" />
      <stop offset="1" stop-color="#FF6D00" />
    </linearGradient>
    <path d="M0 0L41 0L41 41L0 41L0 0Z" id="path_1" />
    <clipPath id="mask_1">
      <use xlink:href="#path_1" />
    </clipPath>
  </defs>
  <g id="Group-38" transform="translate(1.5 1.5)">
    <g id="Group-25">
      <g id="Group-42">
        <path d="M36.5 73C56.6584 73 73 56.6584 73 36.5C73 16.3416 56.6584 0 36.5 0C16.3416 0 0 16.3416 0 36.5C0 56.6584 16.3416 73 36.5 73Z" id="Oval-6" fill="none" stroke="url(#gradient_1)" stroke-width="3" />
      </g>
    </g>
  </g>
  <g id="Group-3" transform="translate(16.5 19.5)">
    <path d="M0 0L41 0L41 41L0 41L0 0Z" id="Clip-2" fill="none" stroke="none" />
    <g clip-path="url(#mask_1)">
      <path d="M32.0545 4.47273C32.0545 2.00527 34.0606 0 36.5273 0C38.994 0 41 2.00527 41 4.47273C41 6.93944 38.994 8.94545 36.5273 8.94545C35.3726 8.94545 34.3222 8.50191 33.5283 7.78031L26.3235 14.9859C27.1092 15.996 27.5818 17.2603 27.5818 18.6364C27.5818 20.0125 27.1092 21.2768 26.3235 22.2869L32.0404 28.0045C32.4839 27.7421 32.9938 27.5818 33.5455 27.5818C35.1899 27.5818 36.5273 28.9192 36.5273 30.5636C36.5273 32.2081 35.1899 33.5455 33.5455 33.5455C31.901 33.5455 30.5636 32.2081 30.5636 30.5636C30.5636 30.012 30.7239 29.5021 30.9871 29.0571L25.2702 23.3409C24.4457 23.982 23.4513 24.4114 22.3644 24.5478L22.3644 32.1216C24.4763 32.4787 26.0917 34.3155 26.0917 36.5273C26.0917 38.994 24.0856 41 21.6189 41C19.1522 41 17.1462 38.994 17.1462 36.5273C17.1462 34.3148 18.7616 32.478 20.8735 32.1216L20.8735 24.5478C19.7866 24.4114 18.7922 23.982 17.9677 23.3409L8.40425 32.9044C8.7494 33.5387 8.94545 34.2648 8.94545 35.0364C8.94545 37.5031 6.93944 39.5091 4.47273 39.5091C2.00602 39.5091 0 37.5031 0 35.0364C0 32.5689 2.00602 30.5636 4.47273 30.5636C5.62744 30.5636 6.67778 31.0072 7.47244 31.728L16.9129 22.2861C16.1272 21.2768 15.6545 20.0125 15.6545 18.6364C15.6545 17.2603 16.1272 15.996 16.9129 14.9851L11.196 9.26824C10.7524 9.53064 10.2425 9.69091 9.69091 9.69091C8.04644 9.69091 6.70909 8.35356 6.70909 6.70909C6.70909 5.06462 8.04644 3.72727 9.69091 3.72727C11.3354 3.72727 12.6727 5.06462 12.6727 6.70909C12.6727 7.26073 12.5125 7.77062 12.2501 8.21416L17.9669 13.9311C18.9778 13.1453 20.2421 12.6727 21.6182 12.6727C22.9943 12.6727 24.2586 13.1453 25.2687 13.9311L32.5957 6.60473C32.2506 5.97035 32.0545 5.24427 32.0545 4.47273ZM36.5273 7.45455C34.8828 7.45455 33.5455 6.1172 33.5455 4.47273C33.5455 2.82825 34.8828 1.49091 36.5273 1.49091C38.1717 1.49091 39.5091 2.82825 39.5091 4.47273C39.5091 6.1172 38.1717 7.45455 36.5273 7.45455ZM8.2 6.70909C8.2 5.88611 8.86867 5.21818 9.69091 5.21818C10.5131 5.21818 11.1818 5.88611 11.1818 6.70909C11.1818 7.53133 10.5131 8.2 9.69091 8.2C8.86867 8.2 8.2 7.53133 8.2 6.70909ZM17.1455 18.6364C17.1455 21.1031 19.1515 23.1091 21.6182 23.1091C24.0849 23.1091 26.0909 21.1031 26.0909 18.6364C26.0909 16.1689 24.0849 14.1636 21.6182 14.1636C19.1515 14.1636 17.1455 16.1689 17.1455 18.6364ZM35.0364 30.5636C35.0364 31.3859 34.3677 32.0545 33.5455 32.0545C32.7232 32.0545 32.0545 31.3859 32.0545 30.5636C32.0545 29.7407 32.7232 29.0727 33.5455 29.0727C34.3677 29.0727 35.0364 29.7407 35.0364 30.5636ZM1.49091 35.0364C1.49091 36.6808 2.82825 38.0182 4.47273 38.0182C6.1172 38.0182 7.45455 36.6808 7.45455 35.0364C7.45455 33.3919 6.1172 32.0545 4.47273 32.0545C2.82825 32.0545 1.49091 33.3919 1.49091 35.0364ZM24.6 36.5273C24.6 38.1717 23.2627 39.5091 21.6182 39.5091C19.9737 39.5091 18.6364 38.1717 18.6364 36.5273C18.6364 34.8828 19.9737 33.5455 21.6182 33.5455C23.2627 33.5455 24.6 34.8828 24.6 36.5273Z" id="Fill-1" fill="url(#gradient_2)" fill-rule="evenodd" stroke="none" />
    </g>
  </g>
</svg>