<?xml version="1.0" encoding="utf-8"?>
<svg width="66px" height="86px" viewBox="0 0 66 86" version="1.1" xmlns:xlink="http://www.w3.org/1999/xlink" xmlns="http://www.w3.org/2000/svg">
  <desc>Created with Lunacy</desc>
  <defs>
    <linearGradient x1="0" y1="0.9386489" x2="1" y2="0.0578661151" id="gradient_1">
      <stop offset="0" stop-color="#FFA600" />
      <stop offset="1" stop-color="#FF6D00" />
    </linearGradient>
  </defs>
  <g id="card-machine">
    <path d="M6.72341 0L1.27659 0C0.571656 0 0 0.447674 0 1C0 1.55233 0.571497 2 1.27659 2L6.72341 2C7.42834 2 8 1.55233 8 1C8 0.447674 7.4285 0 6.72341 0Z" transform="translate(27 16)" id="Path" fill="url(#gradient_1)" stroke="none" />
    <path d="M9.69044 0L1.30956 0C0.586418 0 0 0.447674 0 1C0 1.55233 0.586255 2 1.30956 2L9.69044 2C10.4136 2 11 1.55233 11 1C11 0.447674 10.4136 0 9.69044 0Z" transform="translate(13 16)" id="Path" fill="url(#gradient_1)" stroke="none" />
    <path d="M4.54843 0L1.45157 0C0.650009 0 0 0.447674 0 1C0 1.55233 0.649828 2 1.45157 2L4.54843 2C5.34999 2 6 1.55233 6 1C6 0.447674 5.35017 0 4.54843 0Z" transform="translate(30 11)" id="Path" fill="url(#gradient_1)" stroke="none" />
    <path d="M4.54813 0L1.45187 0C0.650146 0 0 0.447674 0 1C0 1.55233 0.649965 2 1.45187 2L4.54813 2C5.34985 2 6 1.55233 6 1C6 0.447674 5.35003 0 4.54813 0Z" transform="translate(21 11)" id="Path" fill="url(#gradient_1)" stroke="none" />
    <path d="M4.54839 0L1.45161 0C0.650029 0 0 0.447674 0 1C0 1.55233 0.649848 2 1.45161 2L4.54839 2C5.34997 2 6 1.55233 6 1C6 0.447674 5.34997 0 4.54839 0Z" transform="translate(13 11)" id="Path" fill="url(#gradient_1)" stroke="none" />
    <path d="M63.2123 37.3446L48.7355 37.3446L48.7355 18.5826C48.7355 14.6721 45.5488 11.4908 41.632 11.4908L41.5422 11.4908L41.5422 1.34661C41.5422 0.907372 41.3276 0.495847 40.9673 0.243725C40.6069 -0.0083974 40.1459 -0.0690344 39.7325 0.0812983L36.2369 1.35014L32.7414 0.0811303C32.4438 -0.026874 32.1172 -0.026874 31.8196 0.0811303L28.3241 1.35014L24.8287 0.0811303C24.531 -0.026874 24.2045 -0.026874 23.9068 0.0811303L20.4114 1.35014L16.9159 0.0811303C16.6183 -0.026874 16.2917 -0.026874 15.9941 0.0811303L12.4986 1.35014L9.00298 0.0811303C8.58977 -0.0690344 8.12878 -0.0083974 7.76823 0.243557C7.40785 0.495679 7.19333 0.907372 7.19333 1.34644L7.19333 11.4905L7.10349 11.4905C3.18657 11.4905 0 14.672 0 18.5823L0 78.9082C0 82.8187 3.18674 86 7.10349 86L41.6322 86C45.0879 86 47.9735 83.5233 48.6056 80.2546L63.2125 80.2546C64.7496 80.2546 66 79.0063 66 77.4717L66 40.1271C65.9998 38.593 64.7494 37.3446 63.2123 37.3446ZM9.89063 3.2691L12.0373 4.04831C12.3349 4.15631 12.6615 4.15631 12.9591 4.04831L16.4546 2.7793L19.95 4.04831C20.2476 4.15631 20.5742 4.15631 20.8718 4.04831L24.3673 2.7793L27.8628 4.04831C28.1604 4.15631 28.487 4.15631 28.7846 4.04831L32.2801 2.7793L35.7755 4.04831C36.0732 4.15631 36.3997 4.15631 36.6973 4.04831L38.844 3.2691L38.844 21.545L9.89063 21.545L9.89063 3.2691ZM41.632 83.307C44.0614 83.307 46.038 81.3337 46.038 78.9083L46.038 18.5824C46.038 16.1569 44.0614 14.1836 41.632 14.1836L41.5421 14.1836L41.5421 21.5449L41.632 21.5449C42.3769 21.5449 42.9808 22.1477 42.9808 22.8915C42.9808 23.6352 42.3768 24.2381 41.632 24.2381L7.10328 24.2381C6.35829 24.2381 5.75445 23.6352 5.75445 22.8915C5.75445 22.1477 6.35846 21.5449 7.10328 21.5449L7.19312 21.5449L7.19312 14.1836L7.10328 14.1836C4.67381 14.1836 2.69727 16.1569 2.69727 18.5824L2.69727 78.9083C2.69727 81.3337 4.67381 83.307 7.10328 83.307L41.632 83.307ZM51.7935 77.5621L48.7363 77.5621L48.7363 40.0381L51.7935 40.0381L51.7935 77.5621ZM63.2124 77.5621C63.262 77.5621 63.3023 77.5218 63.3023 77.4724L63.3023 40.1278C63.3023 40.0784 63.262 40.0381 63.2124 40.0381L60.2451 40.0381L60.2451 44.4364C60.2451 45.1801 59.6411 45.783 58.8962 45.783C58.1513 45.783 57.5474 45.18 57.5474 44.4364L57.5474 40.0381L54.4902 40.0381L54.4902 77.5621L57.5474 77.5621L57.5474 50.1819C57.5474 49.438 58.1514 48.8353 58.8962 48.8353C59.6412 48.8353 60.2451 49.4382 60.2451 50.1819L60.2451 77.5621L63.2124 77.5621Z" id="Shape" fill="url(#gradient_1)" fill-rule="evenodd" stroke="none" />
    <path d="M4.27274 0L5.72726 0C8.08331 0 10 1.7945 10 4C10 6.20566 8.08331 8 5.72726 8L4.27274 8C1.91669 8 0 6.20566 0 4C0 1.79434 1.91669 0 4.27274 0ZM4.27274 5.44687L5.72726 5.44687C6.57946 5.44687 7.27262 4.7978 7.27279 4C7.27279 3.2022 6.57946 2.55313 5.72726 2.55313L4.27274 2.55313C3.42054 2.55313 2.72721 3.2022 2.72721 4C2.72721 4.7978 3.42054 5.44687 4.27274 5.44687Z" transform="translate(19 49)" id="Shape" fill="url(#gradient_1)" fill-rule="evenodd" stroke="none" />
    <path d="M4.27274 0L5.72726 0C8.08331 0 10 1.7945 10 4C10 6.20566 8.08331 8 5.72726 8L4.27274 8C1.91669 8 0 6.20566 0 4C0 1.79434 1.91669 0 4.27274 0ZM4.27274 5.44687L5.72726 5.44687C6.57946 5.44687 7.27262 4.7978 7.27279 4C7.27279 3.2022 6.57946 2.55313 5.72726 2.55313L4.27274 2.55313C3.42054 2.55313 2.72721 3.2022 2.72721 4C2.72721 4.7978 3.42054 5.44687 4.27274 5.44687Z" transform="translate(19 61)" id="Shape" fill="url(#gradient_1)" fill-rule="evenodd" stroke="none" />
    <path d="M4.27274 0L5.72726 0C8.08331 0 10 1.79434 10 4C10 6.20566 8.08331 8 5.72726 8L4.27274 8C1.91669 8 0 6.20566 0 4C0 1.79434 1.91669 0 4.27274 0ZM4.27274 5.44671L5.72726 5.44671C6.57946 5.44671 7.27262 4.7978 7.27279 3.99984C7.27279 3.20204 6.57946 2.55297 5.72726 2.55297L4.27274 2.55297C3.42054 2.55297 2.72721 3.20204 2.72721 3.99984C2.72721 4.79764 3.42054 5.44671 4.27274 5.44671Z" transform="translate(19 72)" id="Shape" fill="url(#gradient_1)" fill-rule="evenodd" stroke="none" />
    <path d="M4.27274 0L5.72726 0C8.08331 0 10 1.7945 10 4C10 6.20566 8.08331 8 5.72726 8L4.27274 8C1.91669 8 0 6.20566 0 4C0 1.79434 1.91669 0 4.27274 0ZM4.27209 5.44648L5.72661 5.44648C6.57881 5.44648 7.27214 4.79741 7.27214 3.99961C7.27214 3.2018 6.57881 2.55273 5.72661 2.55273L4.27209 2.55273C3.41989 2.55273 2.72656 3.2018 2.72656 3.99961C2.72656 4.79741 3.41989 5.44648 4.27209 5.44648Z" transform="translate(32 49)" id="Shape" fill="url(#gradient_1)" fill-rule="evenodd" stroke="none" />
    <path d="M4.27274 0L5.72726 0C8.08331 0 10 1.7945 10 4C10 6.20566 8.08331 8 5.72726 8L4.27274 8C1.91669 8 0 6.20566 0 4C0 1.79434 1.91669 0 4.27274 0ZM4.27274 5.44687L5.72726 5.44687C6.57946 5.44687 7.27279 4.7978 7.27279 4C7.27279 3.2022 6.57946 2.55313 5.72726 2.55313L4.27274 2.55313C3.42054 2.55313 2.72721 3.2022 2.72721 4C2.72721 4.7978 3.42054 5.44687 4.27274 5.44687Z" transform="translate(32 61)" id="Shape" fill="url(#gradient_1)" fill-rule="evenodd" stroke="none" />
    <path d="M4.27274 0L5.72726 0C8.08331 0 10 1.79434 10 4C10 6.20566 8.08331 8 5.72726 8L4.27274 8C1.91669 8 0 6.20566 0 4C0 1.79434 1.91669 0 4.27274 0ZM4.27274 5.44671L5.72726 5.44671C6.57946 5.44671 7.27279 4.7978 7.27279 3.99984C7.27279 3.20204 6.57946 2.55297 5.72726 2.55297L4.27274 2.55297C3.42054 2.55297 2.72721 3.20204 2.72721 3.99984C2.72721 4.79764 3.42054 5.44671 4.27274 5.44671Z" transform="translate(32 72)" id="Shape" fill="url(#gradient_1)" fill-rule="evenodd" stroke="none" />
    <path d="M4.27274 0L5.72726 0C8.08331 0 10 1.7945 10 4C10 6.20566 8.08331 8 5.72726 8L4.27274 8C1.91669 8 0 6.20566 0 4C0 1.79434 1.91669 0 4.27274 0ZM4.27274 5.44687L5.72726 5.44687C6.57946 5.44687 7.27279 4.7978 7.27279 4C7.27279 3.2022 6.57946 2.55313 5.72726 2.55313L4.27274 2.55313C3.42054 2.55313 2.72721 3.2022 2.72721 4C2.72721 4.7978 3.42054 5.44687 4.27274 5.44687Z" transform="translate(6 49)" id="Shape" fill="url(#gradient_1)" fill-rule="evenodd" stroke="none" />
    <path d="M4.27274 0L5.72726 0C8.08331 0 10 1.7945 10 4C10 6.20566 8.08331 8 5.72726 8L4.27274 8C1.91669 8 0 6.20566 0 4C0 1.79434 1.91669 0 4.27274 0ZM4.27274 5.44687L5.72726 5.44687C6.57946 5.44687 7.27279 4.7978 7.27279 4C7.27279 3.2022 6.57946 2.55313 5.72726 2.55313L4.27274 2.55313C3.42054 2.55313 2.72721 3.2022 2.72721 4C2.72721 4.7978 3.42054 5.44687 4.27274 5.44687Z" transform="translate(6 61)" id="Shape" fill="url(#gradient_1)" fill-rule="evenodd" stroke="none" />
    <path d="M4.27274 0L5.72726 0C8.08331 0 10 1.79434 10 4C10 6.20566 8.08331 8 5.72726 8L4.27274 8C1.91669 8 0 6.20566 0 4C0 1.79434 1.91669 0 4.27274 0ZM4.27274 5.44671L5.72726 5.44671C6.57946 5.44671 7.27279 4.7978 7.27279 3.99984C7.27279 3.20204 6.57946 2.55297 5.72726 2.55297L4.27274 2.55297C3.42054 2.55297 2.72721 3.20204 2.72721 3.99984C2.72721 4.79764 3.42054 5.44671 4.27274 5.44671Z" transform="translate(6 72)" id="Shape" fill="url(#gradient_1)" fill-rule="evenodd" stroke="none" />
    <path d="M2.77056 0L34.2294 0C35.7572 0 37 1.28259 37 2.85925L37 16.1408C37 17.7174 35.7572 19 34.2294 19L2.77056 19C1.2428 19 0 17.7174 0 16.1408L0 2.85925C0 1.28259 1.2428 0 2.77056 0ZM34.2294 16.2329C34.2788 16.2329 34.3187 16.1915 34.3187 16.1408L34.3187 2.85925C34.3187 2.80851 34.2788 2.76709 34.2294 2.76709L2.77056 2.76709C2.72123 2.76709 2.68126 2.80851 2.68126 2.85925L2.68126 16.1408C2.68126 16.1915 2.72123 16.2329 2.77056 16.2329L34.2294 16.2329Z" transform="translate(6 27)" id="Shape" fill="url(#gradient_1)" fill-rule="evenodd" stroke="none" />
  </g>
</svg>