<?xml version="1.0" encoding="utf-8"?>
<svg width="23px" height="23px" viewBox="0 0 23 23" version="1.1" xmlns:xlink="http://www.w3.org/1999/xlink" xmlns="http://www.w3.org/2000/svg">
  <desc>Created with Lunacy</desc>
  <g id="phone-call">
    <path d="M16.8467 12.3504C17.4605 12.3504 18.0397 12.6165 18.5199 13.1142L21.2376 15.8297C21.7376 16.3226 22 16.909 22 17.5202C22 18.1263 21.7426 18.7177 21.2525 19.2254C21.0396 19.4471 20.8218 19.659 20.6089 19.8611C20.2971 20.1617 20.0001 20.4427 19.7426 20.7531C19.7377 20.763 19.7278 20.7679 19.7228 20.7778C18.9704 21.591 18.01 22 16.8665 22C16.7675 22 16.6586 21.9951 16.5546 21.9901C14.8566 21.8817 13.3369 21.246 12.1983 20.7088C9.21815 19.2746 6.60931 17.2392 4.44105 14.6617C2.65397 12.5228 1.45598 10.5269 0.654017 8.37321C0.327293 7.49597 -0.0984388 6.15547 0.02037 4.7164C0.0995759 3.82437 0.460953 3.05556 1.0946 2.42473L2.77772 0.734319L2.78763 0.724462C3.28266 0.251344 3.86681 0 4.47075 0C5.07469 0 5.64894 0.251344 6.12912 0.724462C6.4509 1.02016 6.76277 1.33557 7.05979 1.64113C7.2083 1.79884 7.36671 1.95654 7.52018 2.10932L8.87163 3.45475C9.9112 4.4897 9.9112 5.8302 8.87163 6.86514C8.73302 7.00314 8.59441 7.14606 8.4558 7.28405C8.08947 7.65367 7.71324 8.03808 7.30731 8.40771C7.60928 9.07303 8.02511 9.72849 8.64391 10.5072C9.9211 12.0694 11.2528 13.2769 12.7181 14.2034C12.8616 14.2921 13.0299 14.3759 13.2081 14.4646C13.3319 14.5287 13.4606 14.5927 13.5893 14.6617L15.1536 13.1093C15.6536 12.6116 16.2378 12.3504 16.8467 12.3504ZM20.2884 18.3056C20.2884 18.305 20.2896 18.3038 20.2921 18.3038C20.2896 18.3062 20.2884 18.3062 20.2884 18.3056ZM19.6882 18.905C19.901 18.698 20.0991 18.5108 20.2921 18.3038C20.7971 17.7814 20.7971 17.2639 20.2872 16.7612L17.5595 14.0457L17.5496 14.0358C17.3962 13.8683 17.1437 13.6761 16.8368 13.6761C16.5249 13.6761 16.2576 13.8781 16.0893 14.0457L14.3962 15.7312C14.3121 15.815 14.0547 16.0712 13.6438 16.0712C13.4804 16.0712 13.322 16.0318 13.1537 15.948C13.1339 15.9382 13.1141 15.9234 13.0943 15.9135C12.9507 15.8248 12.7824 15.741 12.6042 15.6523C12.4062 15.5538 12.1983 15.4503 11.9953 15.3221C10.4062 14.3217 8.96568 13.0157 7.59938 11.3401L7.59443 11.3351C6.84198 10.384 6.34694 9.58557 5.99546 8.7379L5.98061 8.69355C5.89151 8.41263 5.8123 7.99866 6.23803 7.57482C6.24298 7.56496 6.25288 7.56004 6.26278 7.55018C6.69346 7.16577 7.08949 6.7715 7.50533 6.34767C7.64889 6.20968 7.7875 6.06676 7.93106 5.92383C8.4558 5.40143 8.4558 4.91846 7.93106 4.39606L6.57961 3.05063C6.42119 2.88799 6.26278 2.73029 6.10932 2.57258C5.80735 2.2621 5.52023 1.97133 5.21826 1.69041L5.2034 1.67563C5.04499 1.51792 4.79252 1.33065 4.48065 1.33065C4.22818 1.33065 3.97076 1.45385 3.7282 1.68056L2.04012 3.36111C1.62924 3.77016 1.40647 4.24821 1.35697 4.82482C1.28271 5.7267 1.45103 6.6828 1.91141 7.90995C2.65892 9.9207 3.7876 11.7935 5.47567 13.819C7.52018 16.2487 9.98051 18.1658 12.7824 19.5161C13.8071 20.004 15.1734 20.5757 16.6437 20.6694C16.718 20.6743 16.7972 20.6743 16.8714 20.6743C17.6437 20.6743 18.2328 20.4229 18.7328 19.8907C19.0397 19.5309 19.3664 19.2106 19.6882 18.905Z" transform="translate(0 1)" id="Shape" fill="#FF9602" fill-rule="evenodd" stroke="none" />
    <path d="M0.544744 1.31296C1.82912 1.52867 2.99585 2.1366 3.92727 3.0681C4.85869 3.9996 5.46166 5.16642 5.68226 6.45091C5.73618 6.77448 6.01561 7 6.33425 7C6.37347 7 6.40778 6.9951 6.447 6.99019C6.80976 6.93136 7.04997 6.58818 6.99115 6.22539C6.72643 4.67125 5.9911 3.2544 4.86849 2.1317C3.74588 1.009 2.32915 0.273602 0.775148 0.00886089C0.412385 -0.0499706 0.0741326 0.190258 0.0104039 0.548149C-0.0533248 0.906041 0.181981 1.25413 0.544744 1.31296Z" transform="translate(12 4)" id="Path" fill="#FF9602" stroke="none" />
    <path d="M10.9899 10.236C10.5542 7.67952 9.34986 5.35322 7.49928 3.50198C5.6487 1.65073 3.32324 0.445954 0.767679 0.0100797C0.410292 -0.0535874 0.0724875 0.191286 0.00884329 0.548801C-0.0499052 0.911214 0.189985 1.24914 0.552267 1.31281C2.83367 1.69971 4.91435 2.78205 6.5691 4.43249C8.22385 6.08784 9.3009 8.16926 9.68766 10.4515C9.74152 10.7747 10.0206 11 10.3388 11C10.378 11 10.4122 10.9951 10.4514 10.9902C10.8088 10.9363 11.0536 10.5935 10.9899 10.236Z" transform="translate(12 0)" id="Path" fill="#FF9602" stroke="none" />
  </g>
</svg>