<?xml version="1.0" encoding="utf-8"?>
<svg width="89px" height="89px" viewBox="0 0 89 89" version="1.1" xmlns:xlink="http://www.w3.org/1999/xlink" xmlns="http://www.w3.org/2000/svg">
  <desc>Created with Lunacy</desc>
  <defs>
    <linearGradient x1="0" y1="0.9386489" x2="1" y2="0.0578661151" id="gradient_1">
      <stop offset="0" stop-color="#FFA600" />
      <stop offset="1" stop-color="#FF6D00" />
    </linearGradient>
    <linearGradient x1="1" y1="0.0578661151" x2="1.110223E-16" y2="0.9386489" id="gradient_2">
      <stop offset="0" stop-color="#FFA600" />
      <stop offset="1" stop-color="#FF6D00" />
    </linearGradient>
  </defs>
  <g id="website" transform="translate(1.5 1.5)">
    <path d="M3.60092 0L50.3992 0C52.3846 0 54.0001 1.60613 54 3.57986L54 33.1053C54 33.5992 53.5968 34 53.1 34L0.899967 34C0.403208 34 0 33.5992 0 33.1053L0 3.57986C0 1.60613 1.61547 0 3.60092 0ZM1.80004 32.2106L52.2001 32.2106L52.2001 3.57986C52.2001 2.59205 51.3919 1.78951 50.3992 1.78951L3.60092 1.78951C2.60825 1.78951 1.80004 2.59205 1.80004 3.57986L1.80004 32.2106Z" transform="translate(16 20)" id="Shape" fill="url(#gradient_1)" fill-rule="evenodd" stroke="none" />
    <path d="M0.899965 0L53.1 0C53.5968 0 54 0.403209 54 0.899968L54 5.39907C54 7.38453 52.3845 9 50.3991 9L3.60091 9C1.61546 9 0 7.38453 0 5.39907L0 0.899968C0 0.403209 0.403207 0 0.899965 0ZM50.3991 7.20006C51.3918 7.20006 52.2 6.3928 52.2 5.39918L52.2001 5.39918L52.2001 1.80004L1.80004 1.80004L1.80004 5.39918C1.80004 6.3928 2.60824 7.20006 3.60091 7.20006L50.3991 7.20006Z" transform="translate(16 52)" id="Shape" fill="url(#gradient_1)" fill-rule="evenodd" stroke="none" />
    <path d="M6.12503 0L0.874974 0C0.392011 0 0 0.448025 0 1C0 1.55197 0.392011 2 0.874974 2L6.12503 2C6.60799 2 7 1.55197 7 1C7 0.448025 6.60799 0 6.12503 0Z" transform="translate(39 55)" id="Path" fill="url(#gradient_1)" stroke="none" />
    <path d="M0.903812 0L46.0961 0C46.5951 0 47 0.408478 47 0.91173L47 30.0883C47 30.5915 46.5951 31 46.0962 31L0.903812 31C0.40493 31 0 30.5915 0 30.0883L0 0.91173C0 0.408478 0.40493 0 0.903812 0ZM1.80762 29.1764L45.1923 29.1764L45.1923 1.82346L1.80762 1.82346L1.80762 29.1764Z" transform="translate(19 23)" id="Shape" fill="url(#gradient_1)" fill-rule="evenodd" stroke="none" />
    <path d="M2.71875 0L26.2811 0C27.7801 0 29 1.12168 29 2.5C29 3.87832 27.7802 5 26.2813 5L2.71875 5C1.21983 5 0 3.87832 0 2.5C0 1.12168 1.21983 0 2.71875 0ZM2.71875 3.3333L26.2811 3.3333C26.7815 3.3333 27.1875 2.95918 27.1875 2.5C27.1875 2.04082 26.7815 1.6667 26.2813 1.6667L2.71875 1.6667C2.21854 1.6667 1.81253 2.04082 1.81253 2.5C1.81253 2.95918 2.21854 3.3333 2.71875 3.3333Z" transform="translate(28 67)" id="Shape" fill="url(#gradient_1)" fill-rule="evenodd" stroke="none" />
    <path d="M16.5 0.899979C16.5 5.08051 18.0418 7.20004 21.0834 7.20004C21.5893 7.20004 22 7.60326 22 8.10002C22 8.59679 21.5893 9 21.0834 9L0.916635 9C0.410676 9 0 8.59679 0 8.10002C0 7.60326 0.410676 7.20004 0.916635 7.20004C3.95819 7.20004 5.50003 5.08051 5.50003 0.899979C5.50003 0.403213 5.9107 0 6.41666 0L15.5833 0C16.0893 0 16.5 0.403213 16.5 0.899979ZM7.30848 1.79996C7.17463 4.14446 6.51012 5.97247 5.38165 7.20004L16.6191 7.20004C15.4898 5.97247 14.8252 4.14446 14.6923 1.79996L7.30848 1.79996Z" transform="translate(32 60)" id="Shape" fill="url(#gradient_1)" fill-rule="evenodd" stroke="none" />
    <path d="M9.5146 5.58477L11.7308 7.813C12.0897 8.17397 12.0897 8.75734 11.7307 9.1182L9.13438 11.7296C8.96267 11.9031 8.72855 12 8.48529 12C8.24203 12 8.00792 11.9031 7.83621 11.7296L5.61998 9.50037L4.32181 10.8065C4.09319 11.0363 3.75987 11.1268 3.44776 11.0493C3.13467 10.9699 2.88593 10.7308 2.79319 10.4189L0.038907 1.18824C-0.0583536 0.863295 0.0297619 0.510764 0.269363 0.270731C0.508103 0.0306981 0.857875 -0.0588681 1.18193 0.0390273L10.3628 2.80822C10.6723 2.90233 10.91 3.15156 10.989 3.46634C11.068 3.78112 10.9762 4.11526 10.7476 4.34512L9.5146 5.58477ZM6.46735 7.74193L8.48529 9.77177L9.78346 8.4656L7.65352 6.32413C7.45707 6.12844 7.34872 5.8645 7.34872 5.58477C7.34872 5.30601 7.4561 5.04381 7.65169 4.84628L8.36232 4.13181L2.2873 2.29949L4.10975 8.4074L4.77261 7.74096C5.00576 7.50742 5.31239 7.38929 5.61998 7.38929C5.92661 7.38929 6.23324 7.50655 6.46735 7.74193Z" transform="translate(47 39)" id="Shape" fill="url(#gradient_1)" fill-rule="evenodd" stroke="none" />
    <path d="M0.899968 0L26.1 0C26.5968 0 27 0.384009 27 0.857114L27 5.14289C27 5.61599 26.5968 6 26.1 6L0.899968 6C0.403209 6 0 5.61599 0 5.14289L0 0.857114C0 0.384009 0.403209 0 0.899968 0ZM1.79994 4.28577L25.2001 4.28577L25.2001 1.71433L1.79994 1.71433L1.79994 4.28577Z" transform="translate(27 27)" id="Shape" fill="url(#gradient_1)" fill-rule="evenodd" stroke="none" />
    <path d="M0.899968 0L8.10003 0C8.59679 0 9 0.373347 9 0.833317L9 4.16668C9 4.62665 8.59679 5 8.10003 5L0.899968 5C0.403209 5 0 4.62665 0 4.16668L0 0.833317C0 0.373347 0.403209 0 0.899968 0ZM1.79994 3.33337L7.19996 3.33337L7.19996 1.66663L1.79994 1.66663L1.79994 3.33337Z" transform="translate(31 37)" id="Shape" fill="url(#gradient_1)" fill-rule="evenodd" stroke="none" />
    <path d="M0.899965 0L26.0999 0C26.5967 0 26.9999 0.405343 27 0.904732L27 14.2934C27 14.5794 26.8658 14.849 26.6373 15.0191C26.4097 15.1901 26.1145 15.2426 25.8417 15.1602L22.0482 14.0157L23.1876 17.8347C23.2696 18.1088 23.2174 18.4056 23.0472 18.6354C22.878 18.8652 22.6107 19 22.3254 19L0.899965 19C0.403207 19 0 18.5947 0 18.0953L0 0.904732C0 0.405343 0.403207 0 0.899965 0ZM20.9636 11.8L25.2 13.0775L25.2 1.80957L1.79993 1.80957L1.79993 17.1906L21.1157 17.1906L19.8431 12.9274C19.7478 12.6079 19.8341 12.2632 20.069 12.0271C20.3031 11.7918 20.6459 11.704 20.9636 11.8Z" transform="translate(27 27)" id="Shape" fill="url(#gradient_1)" fill-rule="evenodd" stroke="none" />
    <path d="M43 86C66.7482 86 86 66.7482 86 43C86 19.2518 66.7482 0 43 0C19.2518 0 0 19.2518 0 43C0 66.7482 19.2518 86 43 86Z" id="Oval-6" fill="none" stroke="url(#gradient_2)" stroke-width="3" />
  </g>
</svg>