<?xml version="1.0" encoding="utf-8"?>
<svg width="76px" height="70px" viewBox="0 0 76 70" version="1.1" xmlns:xlink="http://www.w3.org/1999/xlink" xmlns="http://www.w3.org/2000/svg">
  <desc>Created with Lunacy</desc>
  <defs>
    <linearGradient x1="0" y1="0.9386489" x2="1" y2="0.0578661151" id="gradient_1">
      <stop offset="0" stop-color="#FFA600" />
      <stop offset="1" stop-color="#FF6D00" />
    </linearGradient>
  </defs>
  <g id="upload">
    <path d="M61.8096 18.2167C60.9969 13.422 58.6058 9.04627 54.9488 5.72569C50.8855 2.0327 45.6031 0 40.102 0C35.8511 0 31.7096 1.21031 28.162 3.49127C25.2083 5.38432 22.7547 7.94458 21.0199 10.9548C20.2698 10.8152 19.4884 10.7376 18.707 10.7376C12.065 10.7376 6.65762 16.1064 6.65762 22.701C6.65762 23.5544 6.75139 24.3768 6.90767 25.1837C2.60991 28.2871 0 33.2835 0 38.6057C0 42.9039 1.60971 47.0779 4.54781 50.3829C7.56405 53.7656 11.5492 55.7672 15.8001 56C15.847 56 15.8783 56 15.9251 56L29.3654 56C30.5375 56 31.4752 55.069 31.4752 53.9052C31.4752 52.7415 30.5375 51.8105 29.3654 51.8105L15.9877 51.8105C9.59572 51.4226 4.21962 45.3865 4.21962 38.5902C4.21962 34.1989 6.59511 30.1025 10.424 27.8836C11.3148 27.3716 11.6899 26.3009 11.3461 25.3389C11.0335 24.501 10.8772 23.6165 10.8772 22.67C10.8772 18.3874 14.3936 14.8961 18.707 14.8961C19.629 14.8961 20.5355 15.0513 21.3794 15.3616C22.4109 15.734 23.5517 15.2685 24.0206 14.2909C26.943 8.13078 33.2568 4.15849 40.1176 4.15849C49.3383 4.15849 56.9492 11.0169 57.8244 20.1097C57.9182 21.0562 58.6371 21.8166 59.5747 21.9717C66.5293 23.151 71.7804 29.5284 71.7804 36.8058C71.7804 44.5176 65.6698 51.2208 58.137 51.795L46.619 51.795C45.4468 51.795 44.5092 52.726 44.5092 53.8897C44.5092 55.0535 45.4468 55.9845 46.619 55.9845L58.2151 55.9845C58.262 55.9845 58.3089 55.9845 58.3714 55.9845C63.138 55.6431 67.592 53.4708 70.9052 49.8398C74.2028 46.24 76 41.616 76 36.8058C75.9844 28.1009 69.9988 20.358 61.8096 18.2167Z" id="Path" fill="url(#gradient_1)" stroke="none" />
    <path d="M25.3919 14.7342C26.2027 13.9087 26.2027 12.5848 25.3919 11.7593L14.4534 0.623009C14.0709 0.233628 13.5355 0 13 0C12.4645 0 11.9291 0.218053 11.5466 0.623009L0.60812 11.7593C-0.202707 12.5848 -0.202707 13.9087 0.60812 14.7342C1.00588 15.1391 1.54134 15.3572 2.06149 15.3572C2.58164 15.3572 3.11709 15.1547 3.51486 14.7342L10.9347 7.18018L10.9347 41.8973C10.9347 43.0655 11.8526 44 13 44C14.1474 44 15.0653 43.0655 15.0653 41.8973L15.0653 7.18018L22.4851 14.7342C23.2807 15.5596 24.5811 15.5596 25.3919 14.7342Z" transform="translate(24 26)" id="Path" fill="url(#gradient_1)" stroke="none" />
  </g>
</svg>