<?xml version="1.0" encoding="utf-8"?>
<svg width="89px" height="89px" viewBox="0 0 89 89" version="1.1" xmlns:xlink="http://www.w3.org/1999/xlink" xmlns="http://www.w3.org/2000/svg">
  <desc>Created with Lunacy</desc>
  <defs>
    <linearGradient x1="1" y1="0.0578661151" x2="1.110223E-16" y2="0.9386489" id="gradient_1">
      <stop offset="0" stop-color="#FFA600" />
      <stop offset="1" stop-color="#FF6D00" />
    </linearGradient>
    <linearGradient x1="0" y1="0.9386489" x2="1" y2="0.0578661151" id="gradient_2">
      <stop offset="0" stop-color="#FFA600" />
      <stop offset="1" stop-color="#FF6D00" />
    </linearGradient>
  </defs>
  <g id="Group-25" transform="translate(1.5 1.5)">
    <path d="M43 86C66.7482 86 86 66.7482 86 43C86 19.2518 66.7482 0 43 0C19.2518 0 0 19.2518 0 43C0 66.7482 19.2518 86 43 86Z" id="Oval-6" fill="none" stroke="url(#gradient_1)" stroke-width="3" />
    <path d="M24.5153 0.0645223L1.19947 17.8659C1.01499 18.0081 1.05832 18.2952 1.27774 18.3766L9.4997 21.4532C9.67719 21.5195 9.74847 21.7321 9.64505 21.8894L0.0506612 36.5424C-0.132422 36.8212 0.219768 37.1401 0.485309 36.9344L23.1834 19.4463C23.3637 19.3069 23.3246 19.0281 23.1135 18.9411L15.1934 15.7113C15.0201 15.6409 14.9545 15.4311 15.0579 15.2765L24.9485 0.460661C25.133 0.181846 24.7822 -0.139758 24.5153 0.0645223Z" transform="translate(30 24)" id="Page-1" fill="none" stroke="url(#gradient_2)" stroke-width="2" />
  </g>
</svg>