<?xml version="1.0" encoding="utf-8"?>
<!-- Generator: Adobe Illustrator 16.0.0, SVG Export Plug-In . SVG Version: 6.00 Build 0)  -->
<!DOCTYPE svg PUBLIC "-//W3C//DTD SVG 1.1//EN" "http://www.w3.org/Graphics/SVG/1.1/DTD/svg11.dtd">
<svg version="1.1" id="Layer_1" xmlns="http://www.w3.org/2000/svg" xmlns:xlink="http://www.w3.org/1999/xlink" x="0px" y="0px"
	 width="112px" height="111.667px" viewBox="46.833 46.5 112 111.667" enable-background="new 46.833 46.5 112 111.667"
	 xml:space="preserve">
<desc>Created with Lunacy</desc>
<g id="Group-20" transform="matrix(0.8660253 0.5000002 -0.5000002 0.8660253 75.81445 2.048828)">
	<path id="Fill-8" fill="#464D5C" d="M64.242,80.784c0-2.034,1.468-3.684,3.277-3.685c1.809,0,3.276,1.65,3.276,3.685
		c0,2.036-1.467,3.686-3.276,3.686C65.711,84.471,64.242,82.822,64.242,80.784z M68.178,80.661c0-0.32-0.232-0.581-0.517-0.581
		c-0.286,0.001-0.519,0.261-0.519,0.581c0,0.322,0.232,0.583,0.518,0.584C67.946,81.244,68.179,80.983,68.178,80.661z"/>
	<path id="Fill-10" fill="#464D5C" d="M58.283,71.279c0-2.035,1.467-3.685,3.276-3.685c1.81,0,3.276,1.65,3.277,3.685
		c0,2.036-1.467,3.686-3.276,3.686S58.283,73.316,58.283,71.279z M62.218,71.155c0-0.32-0.232-0.581-0.517-0.581
		c-0.284,0-0.517,0.261-0.516,0.581c0,0.322,0.232,0.584,0.517,0.583C61.985,71.739,62.218,71.477,62.218,71.155z"/>
	<path id="Fill-12" fill="#464D5C" d="M69.819,51.627c0-2.035,1.466-3.685,3.276-3.685c1.81,0,3.276,1.65,3.277,3.685
		c0.001,2.036-1.467,3.686-3.276,3.686S69.818,53.663,69.819,51.627z M73.753,51.502c-0.001-0.32-0.232-0.581-0.518-0.581
		c-0.284,0-0.517,0.261-0.516,0.581c0,0.322,0.232,0.584,0.516,0.584C73.522,52.086,73.752,51.825,73.753,51.502z"/>
	<path id="Fill-14" fill="#464D5C" d="M74.967,61.661c0-2.035,1.466-3.687,3.276-3.687c1.809,0,3.276,1.651,3.276,3.687
		c0,2.035-1.467,3.685-3.276,3.685C76.434,65.346,74.967,63.696,74.967,61.661z M78.901,61.538c0-0.322-0.232-0.584-0.516-0.584
		c-0.285,0-0.517,0.261-0.518,0.584c0,0.32,0.232,0.582,0.517,0.581C78.67,62.119,78.901,61.858,78.901,61.538z"/>
	<path id="Fill-16" fill="#464D5C" d="M81.267,69.726c0-2.035,1.467-3.685,3.277-3.685c1.809,0,3.276,1.65,3.276,3.685
		c0.001,2.036-1.467,3.686-3.275,3.686C82.734,73.413,81.267,71.763,81.267,69.726z M85.203,69.603c0-0.32-0.232-0.582-0.517-0.581
		c-0.285,0-0.517,0.26-0.517,0.581c0,0.322,0.232,0.583,0.516,0.584C84.97,70.186,85.201,69.925,85.203,69.603z"/>
	<path id="Stroke-18" fill="none" stroke="#464D5C" stroke-width="2" stroke-linecap="round" stroke-linejoin="round" d="
		M88.78,118.704l0-21.061l-31.829,0l0,21.061"/>
	
		<linearGradient id="Oval-6_1_" gradientUnits="userSpaceOnUse" x1="8.6223" y1="565.9675" x2="7.6223" y2="565.0867" gradientTransform="matrix(54 -93.5308 -93.5308 -54 52566.4648 31374.1895)">
		<stop  offset="0" style="stop-color:#FFA600"/>
		<stop  offset="1" style="stop-color:#FF6D00"/>
	</linearGradient>
	<path id="Oval-6" fill="none" stroke="url(#Oval-6_1_)" stroke-width="3" d="M100.766,120.531
		c25.828-14.912,34.677-47.938,19.765-73.765C105.619,20.938,72.593,12.089,46.766,27S12.088,74.938,27,100.766
		C41.912,126.593,74.938,135.443,100.766,120.531z"/>
	<path id="Stroke-7" fill="none" stroke="#464D5C" stroke-width="2" stroke-linecap="round" stroke-linejoin="round" d="
		M84.037,95.19l0-21"/>
	<path id="Stroke-6" fill="none" stroke="#464D5C" stroke-width="2" stroke-linecap="round" stroke-linejoin="round" d="
		M76.574,94.261l0-29"/>
	<path id="Stroke-5" fill="none" stroke="#464D5C" stroke-width="2" stroke-linecap="round" stroke-linejoin="round" d="
		M71.342,93.199l0-37"/>
	<path id="Stroke-4" fill="none" stroke="#464D5C" stroke-width="2" stroke-linecap="round" stroke-linejoin="round" d="
		M66.199,93.793l0-8"/>
	<path id="Stroke-3" fill="none" stroke="#464D5C" stroke-width="2" stroke-linecap="round" stroke-linejoin="round" d="
		M61.588,94.297l0-21"/>
	<path id="Stroke-1" fill="none" stroke="#464D5C" stroke-width="2" stroke-linecap="round" stroke-linejoin="round" d="
		M56.113,93.672l32,0"/>
</g>
</svg>
