<?xml version="1.0" encoding="utf-8"?>
<svg width="111px" height="111px" viewBox="0 0 111 111" version="1.1" xmlns:xlink="http://www.w3.org/1999/xlink" xmlns="http://www.w3.org/2000/svg">
  <desc>Created with Lunacy</desc>
  <defs>
    <linearGradient x1="1" y1="0.0578661151" x2="1.110223E-16" y2="0.9386489" id="gradient_1">
      <stop offset="0" stop-color="#FFA600" />
      <stop offset="1" stop-color="#FF6D00" />
    </linearGradient>
    <path d="M0 62L56 62L56 0L0 0L0 62Z" transform="translate(26 21)" id="path_1" />
    <clipPath id="mask_1">
      <use xlink:href="#path_1" />
    </clipPath>
  </defs>
  <g id="Group-15" transform="translate(1.5 1.5)">
    <path d="M54 108C83.8234 108 108 83.8234 108 54C108 24.1766 83.8234 0 54 0C24.1766 0 0 24.1766 0 54C0 83.8234 24.1766 108 54 108Z" id="Oval-6" fill="none" stroke="url(#gradient_1)" stroke-width="3" />
    <path d="M0 6C0 9.309 2.691 12 6 12C9.309 12 12 9.309 12 6C12 2.691 9.309 0 6 0C2.691 0 0 2.691 0 6ZM3 6C3 4.3455 4.3455 3 6 3C7.6545 3 9 4.3455 9 6C9 7.6545 7.6545 9 6 9C4.3455 9 3 7.6545 3 6Z" transform="translate(39 34)" id="Fill-1" fill="#526069" fill-rule="evenodd" stroke="none" />
    <path d="M12.4444 23C11.5858 23 10.8889 22.3737 10.8889 21.5988L10.8889 13.9134L0.651778 7.32501C0.242667 7.06299 0 6.63843 0 6.18585L0 0.581139C0 -0.193713 3.11111 -0.193713 3.11111 0.581139L3.11111 5.46425L13.3482 12.0526C13.7573 12.3146 14 12.7392 14 13.1917L14 21.5988C14 22.3737 13.3031 23 12.4444 23" transform="translate(32 60)" id="Fill-3" fill="#526069" stroke="none" />
    <path d="M0.16576 11.2052C0.409367 11.6944 0.883981 12 1.3992 12L12.5995 12C13.1162 12 13.5908 11.6944 13.8344 11.2052C14.078 10.7145 14.0514 10.1214 13.7644 9.65931L8.1642 0.627697C7.64479 -0.209232 6.35395 -0.209232 5.83453 0.627697L0.234362 9.65931C-0.051247 10.1214 -0.0778478 10.7145 0.16576 11.2052ZM9.98426 8.98946L4.01588 8.98946L6.99937 4.17712L9.98426 8.98946Z" transform="translate(26 49)" id="Fill-5" fill="#526069" fill-rule="evenodd" stroke="none" />
    <path d="M0 62L56 62L56 0L0 0L0 62Z" transform="translate(26 21)" id="Clip-8" fill="none" stroke="none" />
    <g clip-path="url(#mask_1)">
      <path d="M1.5 12L10.5 12C11.328 12 12 11.3295 12 10.5L12 1.5C12 0.6705 11.328 0 10.5 0L1.5 0C0.672 0 0 0.6705 0 1.5L0 10.5C0 11.3295 0.672 12 1.5 12ZM9 9L3 9L3 3L9 3L9 9Z" transform="translate(64 36)" id="Fill-7" fill="#526069" fill-rule="evenodd" stroke="none" />
      <path d="M5.6 39C4.8272 39 4.2 38.3295 4.2 37.5L4.2 14.121L0.4102 10.0605C0.147 9.78 0 9.399 0 9L0 1.5C0 0.6705 0.6272 0 1.4 0C2.1728 0 2.8 0.6705 2.8 1.5L2.8 8.379L6.5898 12.4395C6.853 12.72 7 13.101 7 13.5L7 37.5C7 38.3295 6.3728 39 5.6 39" transform="translate(44 44)" id="Fill-9" fill="#526069" stroke="none" />
      <path d="M1.5 50C0.672 50 0 49.3426 0 48.5294L0 16.1765C0 15.8868 0.0885 15.6015 0.252 15.3603L3 11.3191L3 1.47059C3 0.657353 3.672 0 4.5 0C5.328 0 6 0.657353 6 1.47059L6 11.7647C6 12.0544 5.9115 12.3397 5.748 12.5809L3 16.6221L3 48.5294C3 49.3426 2.328 50 1.5 50" transform="translate(54 33)" id="Fill-10" fill="#526069" stroke="none" />
      <path d="M1.5 37C0.672 37 0 36.3492 0 35.5442L0 15.1623C0 14.7299 0.198 14.3208 0.54 14.0427L9 7.20026L9 0.603813C9 -0.201271 12 -0.201271 12 0.603813L12 7.88305C12 8.31544 11.802 8.72453 11.46 9.0026L3 15.8451L3 35.5442C3 36.3492 2.328 37 1.5 37" transform="translate(60 46)" id="Fill-11" fill="#526069" stroke="none" />
      <path d="M1.55556 22C0.696889 22 0 21.362 0 20.5728L0 14.864C0 14.4472 0.197556 14.0519 0.542889 13.7807L10.8889 5.64424L10.8889 0.591933C10.8889 -0.197311 14 -0.197311 14 0.591933L14 6.30075C14 6.71749 13.8024 7.11283 13.4571 7.384L3.11111 15.5205L3.11111 20.5728C3.11111 21.362 2.41422 22 1.55556 22" transform="translate(66 61)" id="Fill-12" fill="#526069" stroke="none" />
      <path d="M0 4.5C0 6.981 2.019 9 4.5 9C6.981 9 9 6.981 9 4.5C9 2.019 6.981 0 4.5 0C2.019 0 0 2.019 0 4.5ZM3 4.5C3 3.672 3.6735 3 4.5 3C5.3265 3 6 3.672 6 4.5C6 5.328 5.3265 6 4.5 6C3.6735 6 3 5.328 3 4.5Z" transform="translate(73 53)" id="Fill-13" fill="#526069" fill-rule="evenodd" stroke="none" />
      <path d="M6.01025 13.5898C6.28324 13.8628 6.64162 14 7 14C7.35838 14 7.71676 13.8628 7.98975 13.5898L13.5895 7.98995C14.1368 7.44256 14.1368 6.55779 13.5895 6.0104L7.98975 0.41054C7.44238 -0.136847 6.55762 -0.136847 6.01025 0.41054L0.410529 6.0104C-0.136843 6.55779 -0.136843 7.44256 0.410529 7.98995L6.01025 13.5898ZM7 10.6205L3.37978 7.00017L7 3.37987L10.6202 7.00017L7 10.6205Z" transform="translate(52 21)" id="Fill-14" fill="#526069" fill-rule="evenodd" stroke="none" />
    </g>
  </g>
</svg>