<?xml version="1.0" encoding="utf-8"?>
<svg width="26px" height="17px" viewBox="0 0 26 17" version="1.1" xmlns:xlink="http://www.w3.org/1999/xlink" xmlns="http://www.w3.org/2000/svg">
  <desc>Created with Lunacy</desc>
  <defs>
    <linearGradient x1="0" y1="0.9386489" x2="1" y2="0.0578661151" id="gradient_1">
      <stop offset="0" stop-color="#FFA600" />
      <stop offset="1" stop-color="#FF6D00" />
    </linearGradient>
    <path d="M0 0L26 0L26 17L0 17L0 0Z" id="path_1" />
    <clipPath id="mask_1">
      <use xlink:href="#path_1" />
    </clipPath>
  </defs>
  <g id="Group-3">
    <path d="M0 0L26 0L26 17L0 17L0 0Z" id="Clip-2" fill="none" stroke="none" />
    <g clip-path="url(#mask_1)">
      <path d="M25.9395 15.2813C25.989 15.1764 26.0055 15.0629 25.9921 14.9526C25.9969 14.8928 26 14.8322 26 14.7716L26 2.22922C26 1.61772 25.7463 1.06061 25.3386 0.655789L25.3347 0.652681C24.9263 0.249417 24.3639 0 23.7457 0L2.25353 0C1.633 0 1.06903 0.250194 0.66137 0.654235L0.626809 0.691531C0.238784 1.09324 0 1.63481 0 2.22922L0 14.7716C0 14.8322 0.00235642 14.8928 0.00785475 14.9526C-0.0062838 15.0629 0.0109966 15.1764 0.0596961 15.2813C0.157095 15.6915 0.369959 16.0583 0.66137 16.3465C1.06903 16.7498 1.633 17 2.25353 17L23.7457 17C24.3654 17 24.9278 16.7498 25.3371 16.345L25.3386 16.3465C25.63 16.0583 25.8421 15.6915 25.9395 15.2813ZM1.22927 3.25563L8.64493 8.80186L8.66614 8.81818L12.3814 11.596C12.5676 11.7358 12.7836 11.805 12.9996 11.805C13.2148 11.805 13.4324 11.7358 13.6186 11.596L17.3323 8.81818L17.3566 8.80109L24.7699 3.25563L24.7699 2.22922C24.7699 1.94872 24.6561 1.69542 24.4715 1.5136L24.4691 1.51127C24.2853 1.32867 24.0292 1.21601 23.7457 1.21601L2.25353 1.21601C1.97233 1.21601 1.71626 1.32945 1.5301 1.5136L1.50497 1.53691C1.33374 1.71717 1.22927 1.96037 1.22927 2.22922L1.22927 3.25563ZM7.26643 9.29293L1.22927 4.77778L1.22927 13.8073L7.26643 9.29293ZM18.7336 9.29293L24.7699 4.77778L24.7699 13.8073L18.7336 9.29293ZM17.7164 10.0536L14.3577 12.5649C13.9508 12.8695 13.4756 13.021 12.9996 13.021C12.5236 13.021 12.0484 12.8695 11.6415 12.5649L8.28362 10.0536L1.34709 15.2409C1.395 15.3318 1.45706 15.4149 1.5301 15.4872C1.71626 15.6706 1.97233 15.7848 2.25353 15.7848L23.7457 15.7848C24.0292 15.7848 24.2853 15.6713 24.4691 15.4895L24.4691 15.4872C24.5422 15.4149 24.6042 15.3318 24.6529 15.2409L17.7164 10.0536Z" id="Fill-1" fill="url(#gradient_1)" fill-rule="evenodd" stroke="none" />
    </g>
  </g>
</svg>