<?xml version="1.0" encoding="utf-8"?>
<svg width="48px" height="48px" viewBox="0 0 48 48" version="1.1" xmlns:xlink="http://www.w3.org/1999/xlink" xmlns="http://www.w3.org/2000/svg">
  <desc>Created with Lunacy</desc>
  <path d="M46.4 22.5472L46.4 16.8C46.3894 7.526 38.874 0.0105807 29.6 0L18.4 0C9.126 0.0105807 1.61058 7.526 1.6 16.8L1.6 22.5472C0.644519 22.885 0.00420111 23.7866 0 24.8L0 31.2C0 32.5255 1.07452 33.6 2.4 33.6L2.4 39.2C2.40441 43.1746 5.62538 46.3956 9.6 46.4L18.5472 46.4C18.885 47.3555 19.7866 47.9958 20.8 48L27.2 48C28.5255 48 29.6 46.9255 29.6 45.6C29.6 44.2745 28.5255 43.2 27.2 43.2L20.8 43.2C19.7866 43.2042 18.885 43.8445 18.5472 44.8L9.6 44.8C6.50867 44.7965 4.00353 42.2913 4 39.2L4 33.6L4.88 33.6C5.26275 35.4611 6.89992 36.7976 8.8 36.8L12 36.8C12.4418 36.8 12.8 36.4418 12.8 36L12.8 20C12.8 19.5582 12.4418 19.2 12 19.2L8.8 19.2C7.93162 19.2029 7.08831 19.4914 6.4 20.0208L6.4 16.8C6.40749 10.1757 11.7757 4.8075 18.4 4.8L29.6 4.8C36.2243 4.8075 41.5925 10.1757 41.6 16.8L41.6 20.0208C40.9117 19.4914 40.0684 19.2029 39.2 19.2L36 19.2C35.5582 19.2 35.2 19.5582 35.2 20L35.2 36C35.2 36.4418 35.5582 36.8 36 36.8L39.2 36.8C41.1001 36.7976 42.7373 35.4611 43.12 33.6L45.6 33.6C46.9255 33.6 48 32.5255 48 31.2L48 24.8C47.9958 23.7866 47.3555 22.885 46.4 22.5472ZM18.4 3.19998L29.5999 3.19998C37.1076 3.20835 43.1916 9.29238 43.1999 16.8L43.1999 22.4L44.7999 22.4L44.7999 16.8C44.7907 8.40909 37.9908 1.60923 29.5999 1.59998L18.4 1.59998C10.0091 1.60923 3.20921 8.40909 3.19995 16.8L3.19995 22.4L4.79995 22.4L4.79995 16.8C4.80833 9.29238 10.8924 3.20835 18.4 3.19998ZM8.7999 20.8L11.1999 20.8L11.1999 35.2L8.7999 35.2C7.47442 35.2 6.3999 34.1255 6.3999 32.8L6.3999 23.2C6.3999 21.8745 7.47442 20.8 8.7999 20.8ZM41.6 32.8C41.6 34.1255 40.5255 35.2 39.2001 35.2L36.8 35.2L36.8 20.8L39.2001 20.8C40.5255 20.8 41.6 21.8745 41.6 23.2L41.6 32.8ZM1.6001 24.8L1.6001 31.2C1.6001 31.6418 1.95827 32 2.4001 32L4.8001 32L4.8001 24L2.4001 24C1.95827 24 1.6001 24.3582 1.6001 24.8ZM45.6 32C46.0418 32 46.4 31.6418 46.4 31.2L46.4 24.8C46.4 24.3582 46.0418 24 45.6 24L43.2 24L43.2 32L45.6 32ZM20.8 44.8L27.2 44.8C27.6418 44.8 28 45.1582 28 45.6C28 46.0418 27.6418 46.4 27.2 46.4L20.8 46.4C20.3582 46.4 20 46.0418 20 45.6C20 45.1582 20.3582 44.8 20.8 44.8Z" id="Shape" fill="#FFFFFF" fill-rule="evenodd" stroke="none" />
</svg>