<?xml version="1.0" encoding="utf-8"?>
<svg width="89px" height="89px" viewBox="0 0 89 89" version="1.1" xmlns:xlink="http://www.w3.org/1999/xlink" xmlns="http://www.w3.org/2000/svg">
  <desc>Created with Lunacy</desc>
  <defs>
    <linearGradient x1="1" y1="0.0578661151" x2="1.110223E-16" y2="0.9386489" id="gradient_1">
      <stop offset="0" stop-color="#FFA600" />
      <stop offset="1" stop-color="#FF6D00" />
    </linearGradient>
    <linearGradient x1="0.5" y1="0" x2="0.5" y2="1" id="gradient_2">
      <stop offset="0" stop-color="#FAD961" />
      <stop offset="1" stop-color="#F76B1C" />
    </linearGradient>
  </defs>
  <g id="Group-5" transform="translate(1.5 1.5)">
    <path d="M43 86C66.7482 86 86 66.7482 86 43C86 19.2518 66.7482 0 43 0C19.2518 0 0 19.2518 0 43C0 66.7482 19.2518 86 43 86Z" id="Oval-6" fill="none" stroke="url(#gradient_1)" stroke-width="3" />
    <path d="M26.2093 4.74362C26.2093 5.31219 25.7485 5.77113 25.1818 5.77113C24.6151 5.77113 24.1543 5.31219 24.1543 4.74362L24.1543 1.02751C24.1543 0.45894 24.6151 0 25.1818 0C25.7485 0 26.2093 0.45894 26.2093 1.02751L26.2093 4.74362ZM40.7738 9.18644C41.1752 8.7851 41.1752 8.13664 40.7738 7.7353C40.3725 7.33396 39.7259 7.3321 39.3227 7.7353L36.3981 10.6617C35.9949 11.0631 35.9949 11.7115 36.3981 12.1129C36.5969 12.3136 36.8608 12.4139 37.1227 12.4139C37.3866 12.4139 37.6486 12.3136 37.8492 12.1129L40.7738 9.18644ZM10.458 13.3432C10.7218 13.3432 10.9838 13.2429 11.1845 13.0422C11.5858 12.6409 11.5858 11.9924 11.1845 11.5911L8.25801 8.66275C7.85667 8.25955 7.20821 8.25955 6.80686 8.66275C6.40552 9.06595 6.40552 9.71255 6.80686 10.1139L9.73331 13.0403C9.93212 13.2429 10.196 13.3432 10.458 13.3432ZM24.2525 29.2087C25.5754 29.2087 26.8203 28.6941 27.7549 27.7576C29.4476 26.0649 29.6595 23.4469 28.3867 21.5238L33.3161 16.5944C33.7026 16.206 33.7026 15.578 33.3161 15.1897C32.9278 14.8014 32.2998 14.8014 31.9114 15.1897L26.9764 20.1247C25.0719 18.9077 22.3814 19.1158 20.7501 20.749C18.8177 22.6814 18.8177 25.8234 20.7501 27.7557C21.6847 28.6941 22.9296 29.2087 24.2525 29.2087ZM22.502 22.5029C22.9684 22.0346 23.5908 21.7764 24.2523 21.7764C24.9137 21.7764 25.5362 22.0346 26.0044 22.5029C26.9706 23.4691 26.9706 25.0391 26.0044 26.0053C25.0698 26.9436 23.4384 26.9436 22.502 26.0053C21.5358 25.0391 21.5358 23.4672 22.502 22.5029ZM4.74362 22.2969L1.02751 22.2969C0.460799 22.2969 0 22.7558 0 23.3244C0 23.8929 0.460799 24.3519 1.02751 24.3519L4.74362 24.3519C5.31033 24.3519 5.77113 23.8929 5.77113 23.3244C5.77113 22.7558 5.31033 22.2969 4.74362 22.2969ZM43.7619 24.3519C43.1952 24.3519 42.7344 23.8929 42.7344 23.3244C42.7344 22.7558 43.1952 22.2969 43.7619 22.2969L47.478 22.2969C48.0447 22.2969 48.5055 22.7558 48.5055 23.3244C48.5055 23.8929 48.0447 24.3519 47.478 24.3519L43.7619 24.3519ZM37.4631 33.7458C37.8663 33.3426 38.5129 33.3426 38.9143 33.7458L41.7032 36.5328C42.1045 36.936 42.1045 37.5826 41.7032 37.984C41.5044 38.1847 41.2405 38.285 40.9767 38.285C40.7129 38.285 40.4509 38.1847 40.2502 37.984L37.4631 35.1969C37.0618 34.7956 37.0618 34.1508 37.4631 33.7458ZM7.73265 37.4621L10.5197 34.675C10.9211 34.2737 11.5714 34.2737 11.9727 34.675C12.3741 35.0782 12.3741 35.7248 11.9727 36.1262L9.18565 38.9133C8.98498 39.1139 8.72299 39.2143 8.45915 39.2143C8.1953 39.2143 7.93332 39.1139 7.73265 38.9133C7.33131 38.5119 7.33131 37.8653 7.73265 37.4621ZM30.757 39.1176L17.7506 39.1176C16.0987 39.0544 14.8984 40.2547 14.8984 41.9047L14.8984 43.6829C14.8984 45.3514 16.1508 46.6613 17.7506 46.5499L30.757 46.5499C32.3549 46.6613 33.6109 45.3514 33.6109 43.6829L33.6109 41.9047C33.6109 40.2547 32.4088 39.0544 30.757 39.1176ZM30.7571 44.7382C31.3498 44.6768 31.6211 44.1603 31.6211 43.6828L31.6211 41.9046C31.6211 41.3546 31.3071 41.0406 30.7571 40.9756L17.7507 40.9756C17.2007 41.0406 16.8867 41.3546 16.8867 42.9135L16.8867 44.6917C16.8867 44.3778 16.9801 44.4283 17.1782 44.5355C17.3166 44.6104 17.5061 44.7129 17.7507 44.7382L30.7571 44.7382Z" transform="translate(18.79883 19.25)" id="Fill-1" fill="url(#gradient_2)" fill-rule="evenodd" stroke="none" />
  </g>
</svg>