<?xml version="1.0" encoding="utf-8"?>
<svg width="14px" height="13px" viewBox="0 0 14 13" version="1.1" xmlns:xlink="http://www.w3.org/1999/xlink" xmlns="http://www.w3.org/2000/svg">
  <desc>Created with Lunacy</desc>
  <g id="download-(1)">
    <path d="M13.5989 0.0620018C13.3761 0.0620018 13.1978 0.248007 13.1978 0.480514L13.1978 4.28742C13.1978 5.32285 12.3896 6.16298 11.4003 6.16298L2.59975 6.16298C1.60739 6.16298 0.802207 5.31975 0.802207 4.28742L0.802207 0.418512C0.802207 0.186005 0.623939 0 0.401104 0C0.178268 0 0 0.186005 0 0.418512L0 4.28742C0 5.78477 1.16766 7 2.59975 7L11.4003 7C12.8353 7 14 5.78167 14 4.28742L14 0.480514C14 0.251107 13.8217 0.0620018 13.5989 0.0620018Z" transform="translate(0 6)" id="Path" fill="#FF6D00" stroke="none" />
    <path d="M2.71457 9.88006C2.7931 9.95802 2.89882 10 3.00151 10C3.1042 10 3.20992 9.96102 3.28845 9.88006L5.87994 7.30735C6.04002 7.14843 6.04002 6.89355 5.87994 6.73463C5.71986 6.57571 5.46313 6.57571 5.30305 6.73463L3.40926 8.61769L3.40926 0.404798C3.40926 0.17991 3.22804 0 3.00151 0C2.77498 0 2.59376 0.17991 2.59376 0.404798L2.59376 8.61769L0.696954 6.73463C0.536874 6.57571 0.280141 6.57571 0.12006 6.73463C-0.0400201 6.89355 -0.0400201 7.14843 0.12006 7.30735L2.71457 9.88006Z" transform="translate(4 0)" id="Path" fill="#FF6D00" stroke="none" />
  </g>
</svg>