<?xml version="1.0" encoding="utf-8"?>
<svg width="96px" height="95px" viewBox="0 0 96 95" version="1.1" xmlns:xlink="http://www.w3.org/1999/xlink" xmlns="http://www.w3.org/2000/svg">
  <desc>Created with Lunacy</desc>
  <defs>
    <linearGradient x1="0" y1="0.9386489" x2="1" y2="0.0578661151" id="gradient_1">
      <stop offset="0" stop-color="#FFA600" />
      <stop offset="1" stop-color="#FF6D00" />
    </linearGradient>
  </defs>
  <g id="quality-assurance">
    <path d="M4 2.93344L2.91821 0C1.95062 0.36805 0.969136 0.704777 0 1.00235L0.891975 4C1.92438 3.68363 2.97068 3.32498 4 2.93344L4 2.93344Z" transform="translate(62 36)" id="Path" fill="url(#gradient_1)" stroke="none" />
    <path d="M2.83956 7.7712L2.83956 3.65271C3.89304 3.47038 4.95078 3.24668 6 2.98621L5.35968 0C3.99101 0.343207 2.60388 0.61287 1.23663 0.807457L0 0.983657L0 7.77273C0 8.18335 0.00851869 8.59244 0.0283956 9L2.86512 8.84372C2.84808 8.48672 2.83956 8.13126 2.83956 7.7712L2.83956 7.7712Z" transform="translate(53 38)" id="Path" fill="url(#gradient_1)" stroke="none" />
    <path d="M0 9C0 4.0365 4.0365 0 9 0C13.9635 0 18 4.0365 18 9C18 13.9635 13.9635 18 9 18C4.0365 18 0 13.9635 0 9ZM3 9C3 12.309 5.691 15 9 15C12.309 15 15 12.309 15 9C15 5.691 12.309 3 9 3C5.691 3 3 5.691 3 9Z" transform="translate(19 19)" id="Shape" fill="url(#gradient_1)" fill-rule="evenodd" stroke="none" />
    <path d="M21.5015 0L22.2341 0.405114C28.1159 3.64915 34.7686 5.38692 41.4735 5.42759L43 5.43697L43 18.3803C43 31.9524 34.5705 44.1809 22.0237 48.8076L21.5 49L20.9763 48.8076C8.42954 44.1809 0 31.9524 0 18.3803L0 5.43697L1.5265 5.42759C8.23604 5.38692 14.8903 3.64915 20.769 0.405114L21.5015 0ZM21.5 45.6668C32.5464 41.3451 39.9286 30.4508 39.9286 18.3803L39.9286 8.51834C33.5154 8.25087 27.1914 6.54595 21.5015 3.54905C15.8133 6.54595 9.48764 8.25087 3.07143 8.51834L3.07143 18.3803C3.07143 30.4492 10.4536 41.3435 21.5 45.6668Z" transform="translate(46 27)" id="Shape" fill="url(#gradient_1)" fill-rule="evenodd" stroke="none" />
    <path d="M0 16.0901L6.7987 9.27026L9.87922 12.3604L22.2013 0L29 6.81982L9.87922 26L0 16.0901ZM9.87884 21.6304L24.6438 6.81958L22.2009 4.36914L9.87884 16.7295L6.79832 13.6394L4.35547 16.0898L9.87884 21.6304Z" transform="translate(55 38)" id="Shape" fill="url(#gradient_1)" fill-rule="evenodd" stroke="none" />
    <path d="M88.5228 26.3119L96 26.3119L96 45.3184C96 53.7352 93.1773 61.7123 88.3355 68.1789L93.5443 87.2705L85.8983 85.359L80.112 95L74.9203 79.4311C72.9012 80.451 70.7845 81.3147 68.5657 81.9679L68.129 82.0963L67.6924 81.9663C65.4735 81.3132 63.3569 80.4495 61.3378 79.4295L56.1461 94.9985L50.3597 85.3575L42.7138 87.2689L47.9226 68.1773C43.9788 62.9118 41.4054 56.6357 40.5755 49.9447L39.8617 49.5036C38.225 50.4106 36.497 51.1272 34.7025 51.641L33.7425 55.7194L21.9995 55.7194L21.0395 51.641C19.2449 51.1272 17.5169 50.4106 15.8803 49.5036L12.3143 51.7107L4.01032 43.41L6.21832 39.8456C5.31097 38.2096 4.59406 36.4823 4.08 34.6884L0 33.7288L0 21.9906L4.08 21.031C4.59406 19.2371 5.31097 17.5098 6.21832 15.8738L4.01032 12.3093L12.3143 4.0087L15.8803 6.21581C17.5169 5.30882 19.2449 4.59221 21.0395 4.07835L21.9995 0L33.7425 0L34.7025 4.07835C36.497 4.59221 38.225 5.30882 39.8617 6.21581L43.4276 4.0087L51.7316 12.3093L49.5236 15.8738C50.431 17.5098 51.1479 19.2371 51.6619 21.031L55.7419 21.9906L55.7419 25.3817C59.8095 24.4314 63.6914 22.766 67.217 20.415L68.0702 19.8469L68.9791 20.3747C74.8274 24.2735 81.5644 26.3119 88.5228 26.3119ZM39.0859 46.3771L39.8957 45.8849L40.2921 46.131C40.2859 45.8601 40.2581 45.5924 40.2581 45.32L40.2581 41.6843C36.8826 44.7009 32.4852 46.4328 27.871 46.4328C17.6253 46.4328 9.29032 38.1012 9.29032 27.8597C9.29032 17.6182 17.6253 9.28656 27.871 9.28656C37.5948 9.28656 45.5814 16.7932 46.3726 26.3119L47.7352 26.3119C49.3889 26.3119 51.0271 26.1881 52.6452 25.9621L52.6452 24.4422L49.1241 23.6126L48.8981 22.6902C48.3778 20.5605 47.5339 18.5298 46.3943 16.6493L45.9019 15.8398L47.8049 12.7659L42.9693 7.93227L39.8942 9.83447L39.0844 9.34228C37.2031 8.20313 35.1716 7.3596 33.041 6.83955L32.1182 6.61358L31.2898 3.09552L24.4521 3.09552L23.6222 6.61358L22.6994 6.83955C20.5688 7.3596 18.5373 8.20313 16.656 9.34228L15.8462 9.83447L12.7711 7.93227L7.93548 12.7659L9.83845 15.8413L9.34606 16.6508C8.20645 18.5313 7.36258 20.562 6.84232 22.6917L6.61626 23.6142L3.09677 24.4422L3.09677 31.2771L6.61781 32.1067L6.84387 33.0292C7.36413 35.1589 8.208 37.1896 9.34761 39.0701L9.84 39.8796L7.93703 42.9535L12.7726 47.7871L15.8477 45.8849L16.6575 46.3771C18.5388 47.5163 20.5703 48.3598 22.7009 48.8798L23.6237 49.1058L24.4521 52.6239L31.2898 52.6239L32.1197 49.1058L33.0426 48.8798C35.1732 48.3598 37.2046 47.5163 39.0859 46.3771ZM40.2581 26.3119L40.2581 37.1138C37.3363 41.011 32.7499 43.3373 27.871 43.3373C19.3332 43.3373 12.3871 36.394 12.3871 27.8597C12.3871 19.3253 19.3332 12.3821 27.871 12.3821C35.8854 12.3821 42.497 18.5019 43.2759 26.3119L40.2581 26.3119ZM68.129 78.8677C82.7396 74.3622 92.9032 60.632 92.9032 45.3184L92.9032 29.4075L88.5228 29.4075C81.2717 29.4075 74.2405 27.3737 68.1275 23.5136C61.985 27.3814 54.9708 29.4075 47.7352 29.4075L43.3548 29.4075L43.3548 45.3184C43.3548 60.632 53.5185 74.3622 68.129 78.8677ZM51.8338 81.7991L55.3378 87.6358L58.5863 77.8926C55.5143 76.0043 52.7458 73.7013 50.3427 71.0685L47.0926 82.9832L51.8338 81.7991ZM89.1654 82.9832L84.4243 81.7991L80.9203 87.6358L77.6717 77.8926C80.7437 76.0043 83.5123 73.7013 85.9154 71.0685L89.1654 82.9832Z" id="Shape" fill="url(#gradient_1)" fill-rule="evenodd" stroke="none" />
  </g>
</svg>