<?xml version="1.0" encoding="utf-8"?>
<svg width="28px" height="25px" viewBox="0 0 28 25" version="1.1" xmlns:xlink="http://www.w3.org/1999/xlink" xmlns="http://www.w3.org/2000/svg">
  <desc>Created with Lunacy</desc>
  <g id="Group" transform="translate(0.25 0.25)">
    <path d="M26.7128 9.70578L13.9144 0.138345C13.6676 -0.0461151 13.3324 -0.0461151 13.0857 0.138345L0.287169 9.70578C-0.0254402 9.9395 -0.0933619 10.3877 0.135558 10.7069C0.364477 11.026 0.80349 11.0953 1.11605 10.8616L13.5 1.60396L25.884 10.8616C26.0088 10.955 26.154 11 26.2978 11C26.5138 11 26.727 10.8985 26.8644 10.7068C27.0934 10.3877 27.0255 9.9395 26.7128 9.70578Z" id="Path" fill="#FFFFFF" stroke="#FFFFFF" stroke-width="0.5" />
    <path d="M20.3 0C19.9134 0 19.6 0.307669 19.6 0.687193L19.6 11.6255L14.0002 11.6255L14.0002 5.65469C14.0002 3.75991 12.4299 2.21846 10.5 2.21846C8.57005 2.21846 6.99981 3.76001 6.99981 5.65469L6.99981 11.6256L1.39997 11.6256L1.39997 0.687245C1.39997 0.307721 1.08652 5.1657e-05 0.699986 5.1657e-05C0.313449 5.1657e-05 0 0.307721 0 0.687245L0 12.3128C0 12.6923 0.313449 13 0.699986 13L7.69979 13C8.06791 13 8.36915 12.7208 8.39704 12.3663C8.39873 12.3503 8.39978 12.3327 8.39978 12.3128L8.39978 5.65474C8.39978 4.51782 9.34192 3.5929 10.5 3.5929C11.6581 3.5929 12.6002 4.51787 12.6002 5.65474L12.6002 12.3128C12.6002 12.3326 12.6013 12.3498 12.603 12.3657C12.6305 12.7204 12.9319 13 13.3002 13L20.3 13C20.6866 13 21 12.6923 21 12.3128L21 0.687245C20.9999 0.307669 20.6866 0 20.3 0Z" transform="translate(3 11)" id="Path" fill="#FFFFFF" stroke="#FFFFFF" stroke-width="0.5" />
  </g>
</svg>