<?xml version="1.0" encoding="utf-8"?>
<svg width="89px" height="89px" viewBox="0 0 89 89" version="1.1" xmlns:xlink="http://www.w3.org/1999/xlink" xmlns="http://www.w3.org/2000/svg">
  <desc>Created with Lunacy</desc>
  <defs>
    <linearGradient x1="1" y1="0.0578661151" x2="1.110223E-16" y2="0.9386489" id="gradient_1">
      <stop offset="0" stop-color="#FFA600" />
      <stop offset="1" stop-color="#FF6D00" />
    </linearGradient>
    <linearGradient x1="0" y1="0.9386489" x2="1" y2="0.0578661151" id="gradient_2">
      <stop offset="0" stop-color="#FFA600" />
      <stop offset="1" stop-color="#FF6D00" />
    </linearGradient>
  </defs>
  <g id="Group-35" transform="translate(1.5 1.5)">
    <g id="Group-23">
      <g id="Group-26">
        <g id="Group-10">
          <path d="M43 86C66.7482 86 86 66.7482 86 43C86 19.2518 66.7482 0 43 0C19.2518 0 0 19.2518 0 43C0 66.7482 19.2518 86 43 86Z" id="Oval-6" fill="none" stroke="url(#gradient_1)" stroke-width="3" />
        </g>
      </g>
    </g>
    <g id="router" transform="translate(16 15)">
      <path d="M46.0962 9L0.903846 9C0.404666 9 0 8.59706 0 8.1L0 0.9C0 0.402944 0.404666 0 0.903846 0L46.0962 0C46.5953 0 47 0.402944 47 0.9L47 8.1C47 8.59706 46.5953 9 46.0962 9ZM45.1923 1.8L1.80769 1.8L1.80769 7.2L45.1923 7.2L45.1923 1.8Z" transform="translate(4 38)" id="Shape" fill="url(#gradient_2)" fill-rule="evenodd" stroke="none" />
      <path d="M0 0L2 0L2 2L0 2L0 0Z" transform="translate(7 42)" id="Path" fill="url(#gradient_2)" stroke="none" />
      <path d="M0 0L2 0L2 2L0 2L0 0Z" transform="translate(10 42)" id="Path" fill="url(#gradient_2)" stroke="none" />
      <path d="M0 0L2 0L2 2L0 2L0 0Z" transform="translate(14 42)" id="Path" fill="url(#gradient_2)" stroke="none" />
      <path d="M0 0L2 0L2 2L0 2L0 0Z" transform="translate(18 42)" id="Path" fill="url(#gradient_2)" stroke="none" />
      <path d="M0 0L2 0L2 2L0 2L0 0Z" transform="translate(22 42)" id="Path" fill="url(#gradient_2)" stroke="none" />
      <path d="M0 0L2 0L2 2L0 2L0 0Z" transform="translate(45 42)" id="Path" fill="url(#gradient_2)" stroke="none" />
      <path d="M0 0L2 0L2 2L0 2L0 0Z" transform="translate(42 42)" id="Path" fill="url(#gradient_2)" stroke="none" />
      <path d="M53.9379 34.7904C53.9298 34.7706 53.9109 34.7085 53.9055 34.7004L52.1055 31.1004C51.9538 30.7942 51.6417 30.6004 51.3 30.6L45 30.6L45 17.1C45.0015 16.9607 44.9707 16.823 44.91 16.6977L44.1 15.0876L44.1 2.7C44.1 1.20883 42.8912 0 41.4 0C39.9088 0 38.7 1.20883 38.7 2.7L38.7 15.0876L37.89 16.6977C37.8293 16.823 37.7985 16.9607 37.8 17.1L37.8 30.6L16.2 30.6L16.2 17.1C16.2001 16.9604 16.1678 16.8227 16.1055 16.6977L15.3 15.0876L15.3 2.7C15.3 1.20883 14.0912 0 12.6 0C11.1088 0 9.9 1.20883 9.9 2.7L9.9 15.0876L9.0945 16.6977C9.03222 16.8227 8.99987 16.9604 9 17.1L9 30.6L2.7 30.6C2.35888 30.5998 2.04698 30.7926 1.8945 31.0977L0.0945 34.6977C0.0891 34.7085 0.0702 34.7706 0.0621 34.7877C0.0327753 34.8899 0.0120037 34.9944 0 35.1L0 49.5C0 49.9971 0.402944 50.4 0.9 50.4L3.6 50.4L3.6 51.3C3.6 52.7912 4.80883 54 6.3 54L9.9 54C11.3912 54 12.6 52.7912 12.6 51.3L12.6 50.4L41.4 50.4L41.4 51.3C41.4 52.7912 42.6088 54 44.1 54L47.7 54C49.1912 54 50.4 52.7912 50.4 51.3L50.4 50.4L53.1 50.4C53.5971 50.4 54 49.9971 54 49.5L54 35.1C53.9879 34.9953 53.9671 34.8917 53.9379 34.7904ZM11.7 2.70005C11.7 2.20299 12.1029 1.80005 12.6 1.80005C13.097 1.80005 13.5 2.20299 13.5 2.70005L13.5 14.4L11.7 14.4L11.7 2.70005ZM41.4 1.80005C40.9029 1.80005 40.5 2.20299 40.5 2.70005L40.5 14.4L42.3 14.4L42.3 2.70005C42.3 2.20299 41.8971 1.80005 41.4 1.80005ZM10.8 21.6L10.8 23.4L12.6 23.4L12.6 25.2L10.8 25.2L10.8 27L14.4 27L14.4 17.3124L13.8438 16.2L11.3562 16.2L10.8 17.3124L10.8 19.8L12.6 19.8L12.6 21.6L10.8 21.6ZM39.6 17.3124L40.1562 16.2L42.6438 16.2L43.2 17.3124L43.2 19.8L41.4 19.8L41.4 21.6L43.2 21.6L43.2 23.4L41.4 23.4L41.4 25.2L43.2 25.2L43.2 27L39.6 27L39.6 17.3124ZM14.4 30.6L14.4 28.8L10.8 28.8L10.8 30.6L14.4 30.6ZM43.2 28.8L43.2 30.6L39.6 30.6L39.6 28.8L43.2 28.8ZM3.2562 32.4L50.7438 32.4L51.6438 34.2L2.3562 34.2L3.2562 32.4ZM1.80005 48.6L52.2001 48.6L52.2001 36L1.80005 36L1.80005 48.6ZM9.90002 52.2C10.3971 52.2 10.8 51.7971 10.8 51.3L10.8 50.4L5.40002 50.4L5.40002 51.3C5.40002 51.7971 5.80297 52.2 6.30002 52.2L9.90002 52.2ZM48.6 51.3C48.6 51.7971 48.197 52.2 47.7 52.2L44.1 52.2C43.6029 52.2 43.2 51.7971 43.2 51.3L43.2 50.4L48.6 50.4L48.6 51.3Z" id="Shape" fill="url(#gradient_2)" fill-rule="evenodd" stroke="none" />
      <path d="M15 3.3916C14.9245 3.31476 7.41498 -4.20093 0 3.3916L1.11914 5C7.4037 -1.4315 13.6215 4.73685 13.8817 5L15 3.3916Z" transform="translate(20 8)" id="Path" fill="url(#gradient_2)" stroke="none" />
      <path d="M1.1801 4C4.93385 -0.118155 8.66555 3.83218 8.82166 4L10 2.39814C7.18208 -0.799379 2.81792 -0.799379 0 2.39814L1.1801 4Z" transform="translate(22 11)" id="Path" fill="url(#gradient_2)" stroke="none" />
      <path d="M21 4.74627C20.8073 4.55284 16.2837 0 10.1352 0C6.4927 0 3.08233 1.59761 0 4.74627L1.28169 6C4.00999 3.21224 6.98387 1.79642 10.1209 1.79104L10.1343 1.79104C15.512 1.79104 19.678 5.95791 19.7192 6L21 4.74627Z" transform="translate(17 5)" id="Path" fill="url(#gradient_2)" stroke="none" />
    </g>
  </g>
</svg>