<?xml version="1.0" encoding="utf-8"?>
<svg width="89px" height="89px" viewBox="0 0 89 89" version="1.1" xmlns:xlink="http://www.w3.org/1999/xlink" xmlns="http://www.w3.org/2000/svg">
  <desc>Created with Lunacy</desc>
  <defs>
    <linearGradient x1="1" y1="0.0578661151" x2="1.110223E-16" y2="0.9386489" id="gradient_1">
      <stop offset="0" stop-color="#FFA600" />
      <stop offset="1" stop-color="#FF6D00" />
    </linearGradient>
    <linearGradient x1="0.5" y1="0" x2="1" y2="1" id="gradient_2">
      <stop offset="0" stop-color="#FAD961" />
      <stop offset="1" stop-color="#F76B1C" />
    </linearGradient>
    <linearGradient x1="0.5" y1="0" x2="1.10898435" y2="1.16492748" id="gradient_3">
      <stop offset="0" stop-color="#FAD961" />
      <stop offset="1" stop-color="#F76B1C" />
    </linearGradient>
    <linearGradient x1="0.24807477" y1="0" x2="1" y2="1" id="gradient_4">
      <stop offset="0" stop-color="#FAD961" />
      <stop offset="1" stop-color="#F76B1C" />
    </linearGradient>
    <linearGradient x1="0" y1="0" x2="0.5" y2="1.48648155" id="gradient_5">
      <stop offset="0" stop-color="#FAD961" />
      <stop offset="1" stop-color="#F76B1C" />
    </linearGradient>
    <linearGradient x1="0.8393654" y1="0" x2="0" y2="-0.9733578" id="gradient_6">
      <stop offset="0" stop-color="#FAD961" />
      <stop offset="1" stop-color="#F76B1C" />
    </linearGradient>
  </defs>
  <g id="Group-17" transform="translate(1.5 1.5)">
    <path d="M43 86C66.7482 86 86 66.7482 86 43C86 19.2518 66.7482 0 43 0C19.2518 0 0 19.2518 0 43C0 66.7482 19.2518 86 43 86Z" id="Oval-6" fill="none" stroke="url(#gradient_1)" stroke-width="3" />
    <path d="M11.6667 5.83333C11.6667 9.0552 9.0552 11.6667 5.83333 11.6667C2.61147 11.6667 0 9.0552 0 5.83333C0 2.61147 2.61147 0 5.83333 0C9.0552 0 11.6667 2.61147 11.6667 5.83333Z" transform="translate(22 37.63867)" id="Stroke-1" fill="none" stroke="url(#gradient_2)" stroke-width="2" />
    <path d="M11.6667 5.83333C11.6667 9.0552 9.0552 11.6667 5.83333 11.6667C2.61147 11.6667 0 9.0552 0 5.83333C0 2.61147 2.61147 0 5.83333 0C9.0552 0 11.6667 2.61147 11.6667 5.83333Z" transform="translate(45.33398 25)" id="Stroke-3" fill="none" stroke="url(#gradient_3)" stroke-width="2" />
    <path d="M11.6667 5.83333C11.6667 9.0552 9.0552 11.6667 5.83333 11.6667C2.61147 11.6667 0 9.0552 0 5.83333C0 2.61147 2.61147 0 5.83333 0C9.0552 0 11.6667 2.61147 11.6667 5.83333Z" transform="translate(45.33398 49.30566)" id="Stroke-5" fill="none" stroke="url(#gradient_4)" stroke-width="2" />
    <path d="M12.6389 0L0 7.77778" transform="translate(32.69531 33.75)" id="Stroke-7" fill="none" stroke="url(#gradient_5)" stroke-width="2" />
    <path d="M0 0L13.6111 6.80556" transform="translate(32.69531 46.38867)" id="Stroke-9" fill="none" stroke="url(#gradient_6)" stroke-width="2" />
  </g>
</svg>