<?xml version="1.0" encoding="utf-8"?>
<svg width="77px" height="75px" viewBox="0 0 77 75" version="1.1" xmlns:xlink="http://www.w3.org/1999/xlink" xmlns="http://www.w3.org/2000/svg">
  <desc>Created with Lunacy</desc>
  <g id="customer">
    <path d="M30.9725 16.4517C30.3351 16.3815 29.7653 16.8348 29.6938 17.4654C29.4475 19.6429 28.6965 21.6767 27.462 23.5105C24.1332 28.455 18.0316 30.6782 12.2797 29.0434C12.0112 28.9669 11.7245 28.9899 11.4717 29.1072L5.23037 32.0053L5.54308 25.1682C5.55571 24.8913 5.46729 24.6192 5.29383 24.4021C1.57624 19.7448 1.31483 13.2934 4.6436 8.34906C8.85121 2.09911 17.3926 0.41522 23.6835 4.59517C26.7353 6.62309 28.8077 9.71064 29.5186 13.2893C29.6425 13.9119 30.251 14.3168 30.8776 14.1941C31.5044 14.0712 31.9122 13.4667 31.7885 12.844C30.9576 8.66218 28.536 5.05429 24.9698 2.68463C17.6183 -2.20006 7.63733 -0.23244 2.7205 7.07103C-1.08736 12.7273 -0.874628 20.0714 3.21267 25.4842L2.83233 33.7985C2.814 34.2002 3.00825 34.5822 3.34469 34.8059C3.53817 34.9345 3.76246 35 3.98799 35C4.15451 35 4.3218 34.9643 4.4777 34.8918L12.0672 31.3676C13.4013 31.7087 14.7476 31.8739 16.0794 31.8739C21.3325 31.8737 26.3473 29.3008 29.3849 24.7883C30.8069 22.6761 31.7085 20.2327 31.9926 17.7222C32.0642 17.0912 31.6073 16.5226 30.9725 16.4517Z" transform="translate(45 0)" id="Path" fill="#FFFFFF" stroke="none" />
    <path d="M3.80063 5.67699L2.39874 5.67699L2.39874 1.16151C2.39874 0.520041 1.86174 0 1.19937 0C0.536992 0 0 0.520041 0 1.16151L0 6.83849C0 7.47996 0.536992 8 1.19937 8L3.80063 8C4.46301 8 5 7.47996 5 6.83849C5 6.19703 4.46301 5.67699 3.80063 5.67699Z" transform="translate(26 27)" id="Path" fill="#FFFFFF" stroke="none" />
    <path d="M52.3954 46.2317C52.861 45.8114 53.5797 45.8477 54.0006 46.3136C56.5797 49.1709 58 52.861 58 56.7042L58 62.863C58 63.4908 57.4913 63.9997 56.8635 63.9997L16.7343 63.9997C16.1067 63.9997 15.5978 63.4908 15.5978 62.863C15.5978 62.2353 16.1067 61.7264 16.7343 61.7264L22.3963 61.7264L22.3963 40.5975L18.0679 41.9856L11.4625 44.1039C7.8553 45.2608 5.02508 47.8393 3.50539 51.1071C3.3607 51.4183 3.22781 51.7357 3.10734 52.0589C2.98687 52.3821 2.87865 52.7107 2.7833 53.0445C2.44958 54.2125 2.27295 55.4415 2.27295 56.7045L2.27295 61.7267L12.257 61.7267C12.8846 61.7267 13.3935 62.2356 13.3935 62.8633C13.3935 63.4911 12.8846 64 12.257 64L1.13648 64C0.508834 64 0 63.4911 0 62.8633L0 56.7045C0 49.939 4.32751 44.0053 10.768 41.9394L22.3967 38.2104L22.3967 31.3399C20.0296 29.6281 18.2393 27.2522 17.2256 24.5579C14.7064 24.4562 12.6882 22.3754 12.6882 19.8313C12.6882 17.6145 14.2207 15.7497 16.2816 15.239L16.2816 10.1682C16.2816 5.00268 20.1451 0.660888 25.2684 0.0687226C25.6471 0.0233112 26.0456 0 26.4483 0L31.5506 0C37.1564 0 41.7172 4.56143 41.7172 10.1681L41.7172 15.239C43.7782 15.7496 45.3109 17.6143 45.3109 19.8313C45.3109 22.3756 43.2924 24.4562 40.7729 24.5579C39.7589 27.2519 37.9684 29.6276 35.6008 31.3399L35.6008 38.2104L47.2299 41.9396C48.2639 42.2712 49.2695 42.716 50.219 43.2615C50.7633 43.5741 50.9511 44.2689 50.6385 44.8132C50.3259 45.3577 49.6312 45.5451 49.0871 45.2327C48.276 44.7667 47.4175 44.387 46.5359 44.1042L35.6022 40.5978L35.6022 61.7267L55.7267 61.7267L55.7267 56.7045C55.7267 53.425 54.5144 50.2759 52.3132 47.8372C51.8928 47.3711 51.9294 46.6522 52.3954 46.2317ZM39.4445 10.1678C39.4445 5.81448 35.9034 2.27299 31.5509 2.27299L26.7291 2.27299C27.4145 5.65827 30.0874 14.4013 39.4445 15.0595L39.4445 10.1678ZM23.7568 2.7433C22.3351 6.81444 20.056 8.85402 18.5634 9.80645C18.7093 6.57346 20.8032 3.81017 23.7568 2.7433ZM18.5549 16.2508L18.5549 19.3855C18.5549 23.7836 20.9079 27.9011 24.6957 30.1312L26.3943 31.133C27.9959 32.0756 29.9875 32.077 31.5915 31.136L33.3032 30.1308C37.0907 27.9008 39.4443 23.7832 39.4443 19.3857L39.4443 17.3375C34.3899 17.0246 30.2809 14.6073 27.5123 10.2967C26.4103 8.58064 25.6712 6.79839 25.1808 5.2812C23.0864 9.80872 20.0068 11.7158 18.5549 12.3991L18.5549 16.2214C18.555 16.2264 18.5557 16.2311 18.5557 16.2361C18.5557 16.2411 18.5549 16.2458 18.5549 16.2508ZM41.7175 17.6537L41.7175 19.3855C41.7175 20.3128 41.6274 21.2295 41.4564 22.1249C42.3796 21.7708 43.0381 20.8775 43.0381 19.8309C43.0381 18.8859 42.5014 18.065 41.7175 17.6537ZM14.9613 19.831C14.9613 18.8862 15.498 18.0651 16.2818 17.654L16.2818 19.3857C16.2818 20.313 16.3718 21.2295 16.5427 22.1251C15.6196 21.7708 14.9613 20.8775 14.9613 19.831ZM24.6698 38.449L24.6698 32.7551L25.2407 33.0918C26.3985 33.7731 27.6967 34.1138 28.9954 34.1138C30.2906 34.1138 31.5865 33.7748 32.7423 33.0966L33.3285 32.7524L33.3285 38.4494L33.133 38.5865L28.9995 41.4858L24.6698 38.449ZM24.6698 46.2485L27.3368 43.0961L24.6698 41.2254L24.6698 46.2485ZM33.3283 41.2262L33.3283 41.8002L33.3287 41.8085L33.3289 41.8133L33.3289 46.2487L30.6623 43.0967L33.3283 41.2262ZM26.379 61.7262L27.4988 51.0712C27.5172 50.8965 27.4948 50.7199 27.4333 50.5552L26.3842 47.7416L28.9993 44.6506L31.6267 47.7562L30.583 50.5555C30.5217 50.7199 30.4992 50.8965 30.5176 51.0714L31.6375 61.7264L26.379 61.7264L26.379 61.7262ZM24.6692 49.7687L24.6692 56.2484L25.2103 51.0992L24.7004 49.7317L24.6692 49.7687ZM32.8059 51.0992L33.3293 56.0795L33.3293 49.7684L33.3105 49.7461L32.8059 51.0992Z" transform="translate(0 11)" id="Shape" fill="#FFFFFF" fill-rule="evenodd" stroke="none" />
    <path d="M8.98664 4.45691C8.81767 2.10162 6.97733 0.191387 4.70613 0.0137022C2.74837 -0.139507 0.896535 1.00375 0.0976845 2.85821C-0.154804 3.44471 0.0990291 4.13268 0.664813 4.39464C1.23 4.65659 1.89379 4.39355 2.14658 3.80674C2.56027 2.84597 3.51943 2.25359 4.53716 2.33352C5.71086 2.42538 6.66165 3.41249 6.74905 4.62995C6.78879 5.18237 6.65881 5.71681 6.3733 6.17551C6.08272 6.64242 5.61554 6.99949 5.05752 7.18152C3.45265 7.70497 2.45793 8.23864 2.45793 9.28043L2.45793 12.8368C2.45793 13.4792 2.96007 14 3.57979 14C4.19951 14 4.70165 13.4792 4.70165 12.8368L4.70165 9.79706C4.90648 9.69916 5.23755 9.56159 5.73073 9.40079C6.78685 9.05627 7.68445 8.35901 8.25845 7.43728C8.81109 6.54916 9.06298 5.51853 8.98664 4.45691Z" transform="translate(57 7)" id="Path" fill="#FFFFFF" stroke="none" />
    <path d="M1.50007 0C0.672913 0.000149903 0 0.672913 0 1.50007C0 2.32724 0.672763 3 1.50007 3C2.32724 3 3 2.32724 3 1.50007C3 0.673063 2.32709 0 1.50007 0Z" transform="translate(59 22)" id="Path" fill="#FFFFFF" stroke="none" />
  </g>
</svg>