<?xml version="1.0" encoding="utf-8"?>
<svg width="80px" height="80px" viewBox="0 0 80 80" version="1.1" xmlns:xlink="http://www.w3.org/1999/xlink" xmlns="http://www.w3.org/2000/svg">
  <desc>Created with Lunacy</desc>
  <defs>
    <linearGradient x1="0" y1="0.9386489" x2="1" y2="0.0578661151" id="gradient_1">
      <stop offset="0" stop-color="#FFA600" />
      <stop offset="1" stop-color="#FF6D00" />
    </linearGradient>
  </defs>
  <path d="M40 0C17.9427 0 0 17.9444 0 40C0 62.0556 17.9427 80 40 80C62.0573 80 80 62.0556 80 40C80 17.9444 62.0573 0 40 0ZM57.872 55.5146L67.0383 64.6808C72.9975 58.1583 76.6677 49.5105 76.6677 40.0002C76.6677 19.7821 60.2191 3.3335 40.0009 3.3335C30.4906 3.3335 21.8428 7.00365 15.3203 12.9629L33.9934 31.636C34.1252 30.8522 34.2695 30.068 34.4606 29.3052C35.092 26.7954 37.6442 18.2538 44.0244 13.6493C44.5322 13.2799 45.2092 13.2294 45.7594 13.5158C46.3161 13.8007 46.6677 14.3752 46.6677 15.0002C46.6677 19.8685 49.2262 23.2327 52.1884 27.1276C55.5153 31.4977 59.2816 36.4521 59.8903 44.416L59.9261 44.9238C59.9652 45.443 60.0009 45.9622 60.0009 46.5221C60.0009 49.7558 59.2222 52.8038 57.872 55.5146ZM40.0007 76.6667C19.7826 76.6667 3.33398 60.2181 3.33398 40C3.33398 30.4896 7.00398 21.8418 12.9634 15.3193L33.508 35.864C33.4137 37.2321 33.3591 38.5459 33.3438 39.6664C29.8152 38.1739 28.7116 32.1729 28.6987 32.1029C28.6076 31.5886 28.2787 31.1443 27.8132 30.9067C27.3445 30.6675 26.8009 30.6609 26.3255 30.8937C26.0813 31.0125 20.349 33.9472 20.0266 45.3696C20.0007 45.752 20.0007 46.1376 20.0007 46.5218C20.0007 57.6303 28.9721 66.6667 40.0007 66.6667C46.598 66.6667 52.4413 63.4189 56.0863 58.4425L64.6813 67.0375C58.1588 72.9965 49.511 76.6667 40.0007 76.6667ZM36.9668 34.6094C37.1195 33.0916 37.3296 31.5753 37.6962 30.1174C38.1682 28.2261 39.8609 22.4936 43.6857 18.3872C44.5907 22.645 47.0971 25.9392 49.5354 29.1456C52.7288 33.3449 56.0327 37.6856 56.5634 44.6502L56.5991 45.171C56.6349 45.6105 56.6676 46.0483 56.6676 46.5219C56.6676 48.8221 56.2029 51.0139 55.3702 53.0125L36.9668 34.6094ZM40.0007 63.3333C45.6785 63.3333 50.6901 60.4437 53.7007 56.0567L36.6929 39.0486C36.6741 39.9423 36.6674 40.8219 36.6674 41.6664C36.6674 42.5876 35.922 43.3331 35.0007 43.3331C29.7988 43.3331 27.2727 38.6034 26.166 35.4409C24.9649 37.0311 23.5098 40.0665 23.3568 45.5256C23.334 45.8983 23.334 46.2092 23.334 46.5217C23.334 55.7909 30.8112 63.3333 40.0007 63.3333Z" id="Shape" fill="url(#gradient_1)" fill-rule="evenodd" stroke="none" />
</svg>