<?xml version="1.0" encoding="utf-8"?>
<svg width="111px" height="111px" viewBox="0 0 111 111" version="1.1" xmlns:xlink="http://www.w3.org/1999/xlink" xmlns="http://www.w3.org/2000/svg">
  <desc>Created with Lunacy</desc>
  <defs>
    <linearGradient x1="1" y1="0.0578661151" x2="1.110223E-16" y2="0.9386489" id="gradient_1">
      <stop offset="0" stop-color="#FFA600" />
      <stop offset="1" stop-color="#FF6D00" />
    </linearGradient>
  </defs>
  <g id="team" transform="translate(1.5 1.5)">
    <path d="M7.47428 1.14821C5.26605 0.0131619 1.12579 0 0.950619 0C0.425624 0 0 0.4376 0 0.977369C0 1.51714 0.425624 1.95474 0.950619 1.95474C2.01899 1.95487 5.12092 2.12402 6.62404 2.89666C6.76055 2.9669 6.90555 3 7.0484 3C7.39709 3 7.73285 2.80192 7.89939 2.45958C8.13426 1.97676 7.94388 1.38969 7.47428 1.14821Z" transform="translate(74 48)" id="Path" fill="#FFFFFF" stroke="none" />
    <path d="M69.7367 39.6487L65.3203 38.3773C65.1297 38.3224 64.9965 38.1445 64.9965 37.9447L64.9965 36.4593C65.3558 36.2085 65.6986 35.9277 66.0189 35.6144C67.5716 34.0961 68.4267 32.0596 68.4267 29.8799L68.4267 27.8302L68.8537 26.9698C69.3223 26.0251 69.57 24.9676 69.57 23.9116L69.57 18.3589C69.57 17.7638 69.0912 17.2814 68.5007 17.2814L58.2104 17.2814C54.4686 17.2814 51.4242 20.349 51.4242 24.1194L51.4242 24.1836C51.4242 25.0617 51.6302 25.9411 52.0199 26.7264L52.5676 27.83L52.5676 29.59C52.5676 32.3791 53.9316 34.8817 55.9977 36.3876L55.998 37.9444C55.998 38.1845 55.998 38.2839 55.115 38.5382L52.9601 39.1585L46.7264 36.8745C46.7488 36.5781 46.6496 36.2767 46.435 36.0496L44.443 33.9408L44.443 30.4008C44.6536 30.226 44.8612 30.0464 45.0624 29.8565C47.5753 27.4831 49.0165 24.1322 49.0165 20.663L49.0165 17.8359C49.7753 16.1721 50.1598 14.4115 50.1598 12.5982L50.1598 1.07751C50.1598 0.482437 49.6811 0 49.0905 0L33.0834 0C27.4501 0 22.8673 4.61806 22.8673 10.2942L22.8673 12.5985C22.8673 14.4118 23.2518 16.1724 24.0106 17.8362L24.0106 20.2687C24.0106 24.2965 25.788 27.9253 28.5841 30.3176L28.5841 33.941L26.5921 36.0497C26.3775 36.2768 26.2783 36.5783 26.3007 36.8746L19.7214 39.2853C19.2446 39.46 18.8016 39.6966 18.3994 39.9832L17.3663 39.4627C20.4417 38.1138 21.4159 36.2167 21.4627 36.1224C21.6133 35.8191 21.6133 35.462 21.4627 35.1587C20.6918 33.6051 20.5984 30.7574 20.5234 28.4694C20.4985 27.7076 20.4748 26.988 20.4296 26.3472C20.065 21.1789 16.1658 17.2814 11.3595 17.2814C6.55318 17.2814 2.65381 21.1788 2.28938 26.3472C2.24418 26.9881 2.22051 27.7078 2.19556 28.4696C2.12056 30.7576 2.02703 33.6049 1.25626 35.1585C1.10569 35.4618 1.10569 35.819 1.25626 36.1223C1.30302 36.2165 2.27526 38.1098 5.3568 39.4602L2.48713 40.906C0.952992 41.6795 0 43.2332 0 44.9614L0 52.9219C0 53.517 0.478777 53.9994 1.06934 53.9994C1.65989 53.9994 2.13867 53.517 2.13867 52.9219L2.13867 44.9614C2.13867 44.0546 2.63869 43.2393 3.44355 42.8337L7.01698 41.0334L8.25998 42.2237C9.12914 43.056 10.2441 43.4719 11.3595 43.4719C12.4746 43.4719 13.5901 43.0557 14.459 42.2237L15.7018 41.0335L16.867 41.6206C16.3184 42.5051 16.007 43.5424 16.007 44.629L16.007 52.9222C16.007 53.5173 16.4857 53.9997 17.0763 53.9997C17.6669 53.9997 18.1456 53.5173 18.1456 52.9222L18.1456 44.629C18.1456 43.1498 19.0725 41.8162 20.4523 41.3107L27.389 38.7691L30.2766 43.1338C30.6457 43.6918 31.2373 44.0497 31.8996 44.1158C31.9734 44.1231 32.0469 44.1267 32.1201 44.1267C32.7044 44.1267 33.264 43.895 33.6824 43.4736L35.4441 41.6984L35.4441 52.9223C35.4441 53.5174 35.9228 53.9999 36.5134 53.9999C37.104 53.9999 37.5827 53.5174 37.5827 52.9223L37.5827 41.6984L39.3444 43.4736C39.7626 43.8951 40.3222 44.1269 40.9067 44.1269C40.9798 44.1269 41.0534 44.1233 41.1271 44.1159C41.7895 44.0499 42.3811 43.692 42.7502 43.134L45.638 38.7693L52.5745 41.311C53.9541 41.8165 54.8812 43.1501 54.8812 44.6293L54.8812 52.9225C54.8812 53.5176 55.36 54 55.9505 54C56.5411 54 57.0198 53.5176 57.0198 52.9225L57.0198 44.6293C57.0198 43.1311 56.4291 41.726 55.4382 40.6869L55.7024 40.6109C55.9689 40.5342 56.3325 40.4291 56.6975 40.2488L59.4277 42.9999L59.4277 52.9225C59.4277 53.5176 59.9065 54 60.497 54C61.0876 54 61.5664 53.5176 61.5664 52.9225L61.5664 42.9999L64.2776 40.2679C64.4218 40.3418 64.5732 40.4041 64.7326 40.45L69.1491 41.7214C70.1571 42.0116 70.8613 42.9522 70.8613 44.0088L70.8613 52.9225C70.8613 53.5176 71.3401 54 71.9307 54C72.5212 54 73 53.5176 73 52.9225L73 44.0088C73 41.9948 71.6581 40.202 69.7367 39.6487ZM26.1493 20.2685L26.1493 17.5951C26.1493 17.4329 26.1129 17.2728 26.0429 17.1266C25.3548 15.6908 25.0059 14.1674 25.0059 12.5985L25.0059 10.2944C25.0059 5.80634 28.6295 2.15516 33.0834 2.15516L48.0212 2.15516L48.0212 12.5987C48.0212 14.1675 47.6723 15.691 46.9842 17.1268C46.9142 17.2729 46.8778 17.4331 46.8778 17.5953L46.8778 20.6633C46.8778 23.5814 45.7137 26.2879 43.5998 28.2845C43.3359 28.5336 43.062 28.7672 42.7789 28.9848C42.7726 28.9892 42.7666 28.9939 42.7605 28.9983C40.7802 30.5133 38.3547 31.2496 35.8216 31.0843C30.3978 30.7304 26.1493 25.9796 26.1493 20.2685ZM60.3182 35.7124C61.899 35.7615 63.3962 35.1762 64.5296 34.068C65.6635 32.9591 66.288 31.4719 66.288 29.88L66.288 27.5759C66.288 27.4085 66.3266 27.2437 66.4009 27.094L66.9407 26.0062C67.2617 25.3592 67.4313 24.635 67.4313 23.9118L67.4313 19.4365L58.2104 19.4365C55.6478 19.4365 53.5629 21.5372 53.5629 24.1195L53.5629 24.1838C53.5629 24.7291 53.6908 25.2751 53.9327 25.7628L54.5933 27.094C54.6676 27.2436 54.7062 27.4085 54.7062 27.5759L54.7062 29.5903C54.7062 32.8724 57.2237 35.6189 60.3182 35.7124ZM11.3601 35.7152C8.16688 35.7152 5.56924 33.0976 5.56924 29.8802C5.56924 29.2851 5.09047 28.8027 4.49991 28.8027C4.44003 28.8027 4.38157 28.8088 4.32439 28.8185C4.32753 28.7258 4.33053 28.633 4.33366 28.5412C4.35747 27.8003 4.38043 27.1005 4.42277 26.5002C4.55936 24.5642 5.32715 22.7801 6.58469 21.4765C7.85349 20.1611 9.54931 19.4367 11.3598 19.4367C13.1702 19.4367 14.8659 20.1611 16.1349 21.4765C17.3924 22.7801 18.1602 24.5642 18.2968 26.5002C18.339 27.1003 18.3621 27.8 18.3863 28.5408C18.3884 28.6044 18.3906 28.6689 18.3927 28.733C17.2293 26.9268 15.4325 25.5957 13.1109 24.844C10.9661 24.1497 9.12144 24.1927 9.04359 24.1947C8.76357 24.2026 8.4978 24.3207 8.30346 24.5238L6.3741 26.54C5.96419 26.9685 5.97645 27.6506 6.40162 28.0636C6.82678 28.4767 7.50374 28.4642 7.91366 28.0359L9.51909 26.3583C10.9017 26.4264 15.3497 26.9476 17.0796 30.786C16.6443 33.6145 14.2316 35.7152 11.3601 35.7152ZM36.5135 37.7914L30.7227 33.8029L30.7227 31.7915C32.2211 32.6077 33.8988 33.1182 35.6832 33.2345C35.965 33.2529 36.2452 33.262 36.5245 33.262C38.5692 33.262 40.5371 32.7695 42.3044 31.8346L42.3044 33.8029L36.5135 37.7914ZM6.86015 37.7456C4.85992 37.0203 3.8566 36.0534 3.42829 35.5255C3.72029 34.7563 3.90963 33.8753 4.03781 32.9453C4.62752 34.3701 5.61515 35.5864 6.86015 36.4541L6.86015 37.7456ZM15.859 36.464L15.8588 37.7492C17.8571 37.0242 18.8651 36.0487 19.291 35.5257C18.9995 34.7583 18.8103 33.8793 18.6822 32.9515C18.092 34.387 17.103 35.601 15.859 36.464ZM32.17 41.9497L32.1702 41.9496L34.846 39.2532L29.8008 35.7783L28.7306 36.9114L32.0563 41.9381C32.0621 41.947 32.0758 41.9675 32.1106 41.971C32.1453 41.9747 32.1625 41.9573 32.17 41.9497ZM40.9165 41.9713C40.9513 41.9678 40.965 41.9473 40.9708 41.9384L44.2966 36.9117L43.2263 35.7786L38.1811 39.2536L40.8569 41.9499L40.8579 41.9509C40.866 41.9588 40.8831 41.9755 40.9165 41.9713ZM60.497 41.0292L58.0704 38.5842C58.1127 38.3903 58.1367 38.1781 58.1365 37.9441L58.1364 37.4894C58.8098 37.7121 59.5195 37.8443 60.2539 37.8664C60.3364 37.869 60.418 37.8701 60.5002 37.8701C61.3117 37.8701 62.1039 37.7466 62.8578 37.5108L62.8578 37.9447C62.8578 38.1596 62.8847 38.3702 62.9351 38.5727L60.497 41.0292ZM9.73338 40.6616C10.6452 41.5348 12.0739 41.5349 12.986 40.6617L13.9804 39.7096C13.8124 39.3927 13.7203 39.0334 13.7203 38.657L13.7204 37.5094C12.9732 37.743 12.1806 37.8703 11.3598 37.8703C10.5379 37.8703 9.74493 37.7436 8.99896 37.5087L8.99896 38.6571C8.99896 39.0334 8.90671 39.3926 8.7389 39.7094L9.73338 40.6616Z" transform="translate(17 25)" id="Shape" fill="#FFFFFF" fill-rule="evenodd" stroke="none" />
    <path d="M1 0C0.447733 0 0 0.425636 0 0.950646L0 7.04935C0 7.57436 0.447733 8 1 8C1.55227 8 2 7.57436 2 7.04935L2 0.950646C2 0.425763 1.55227 0 1 0Z" transform="translate(83 71)" id="Path" fill="#FFFFFF" stroke="none" />
    <path d="M1 0C0.447733 0 0 0.504953 0 1.1278L0 6.8722C0 7.49505 0.447733 8 1 8C1.55227 8 2 7.49505 2 6.8722L2 1.1278C2 0.505103 1.55227 0 1 0Z" transform="translate(22 71)" id="Path" fill="#FFFFFF" stroke="none" />
    <path d="M17.6893 3.10097C13.6774 -0.848405 5.28351 -0.0933651 1.86055 0.414543C0.782407 0.574517 0 1.47268 0 2.55018L0 4.95578C0 5.53247 0.474932 6 1.06075 6C1.64656 6 2.12149 5.53247 2.12149 4.95578L2.12149 2.55004C2.12149 2.51454 2.14526 2.48418 2.17694 2.47945C3.54417 2.27659 6.25728 1.96361 9.06826 2.14809C12.3761 2.36487 14.772 3.18228 16.1893 4.57763C16.6035 4.98544 17.2752 4.98544 17.6893 4.57763C18.1036 4.16983 18.1036 3.50863 17.6893 3.10097Z" transform="translate(44 35)" id="Path" fill="#FFFFFF" stroke="none" />
    <path d="M1 0C0.447733 0 0 0.49931 0 1.11519L0 5.88481C0 6.50069 0.447733 7 1 7C1.55227 7 2 6.50069 2 5.88481L2 1.11519C2 0.499458 1.55227 0 1 0Z" transform="translate(40 72)" id="Path" fill="#FFFFFF" stroke="none" />
    <path d="M1 0C0.447733 0 0 0.49931 0 1.11519L0 5.88481C0 6.50069 0.447733 7 1 7C1.55227 7 2 6.50069 2 5.88481L2 1.11519C2 0.499458 1.55227 0 1 0Z" transform="translate(65 72)" id="Path" fill="#FFFFFF" stroke="none" />
    <path d="M54 108C83.8234 108 108 83.8234 108 54C108 24.1766 83.8234 0 54 0C24.1766 0 0 24.1766 0 54C0 83.8234 24.1766 108 54 108Z" id="Oval-6" fill="none" stroke="url(#gradient_1)" stroke-width="3" />
  </g>
</svg>