<?xml version="1.0" encoding="utf-8"?>
<svg width="35px" height="35px" viewBox="0 0 35 35" version="1.1" xmlns:xlink="http://www.w3.org/1999/xlink" xmlns="http://www.w3.org/2000/svg">
  <desc>Created with Lunacy</desc>
  <defs>
    <linearGradient x1="0" y1="0.9386489" x2="1" y2="0.0578661151" id="gradient_1">
      <stop offset="0" stop-color="#FFA600" />
      <stop offset="1" stop-color="#FF6D00" />
    </linearGradient>
  </defs>
  <g id="phone-call">
    <path d="M25.27 18.5255C26.1908 18.5255 27.0596 18.9247 27.7798 19.6714L31.8565 23.7446C32.6064 24.4839 33 25.3636 33 26.2802C33 27.1895 32.6139 28.0766 31.8787 28.838C31.5594 29.1707 31.2327 29.4886 30.9134 29.7917C30.4456 30.2426 30.0001 30.664 29.6139 31.1297C29.6065 31.1445 29.5917 31.1519 29.5842 31.1667C28.4556 32.3864 27.015 33 25.2997 33C25.1512 33 24.9878 32.9926 24.8319 32.9852C22.2849 32.8226 20.0053 31.8689 18.2974 31.0632C13.8272 28.912 9.91396 25.8589 6.66157 21.9926C3.98095 18.7843 2.18396 15.7903 0.981026 12.5598C0.490939 11.244 -0.147658 9.2332 0.030555 7.0746C0.149364 5.73656 0.691429 4.58333 1.6419 3.6371L4.16659 1.10148L4.18144 1.08669C4.92399 0.377016 5.80021 0 6.70613 0C7.61204 0 8.47341 0.377016 9.19368 1.08669C9.67634 1.53024 10.1442 2.00336 10.5897 2.46169C10.8125 2.69825 11.0501 2.93481 11.2803 3.16398L13.3074 5.18212C14.8668 6.73454 14.8668 8.7453 13.3074 10.2977C13.0995 10.5047 12.8916 10.7191 12.6837 10.9261C12.1342 11.4805 11.5699 12.0571 10.961 12.6116C11.4139 13.6095 12.0377 14.5927 12.9659 15.7608C14.8817 18.1042 16.8791 19.9153 19.0771 21.3051C19.2924 21.4382 19.5449 21.5638 19.8122 21.6969C19.9979 21.793 20.1909 21.8891 20.384 21.9926L22.7305 19.664C23.4804 18.9173 24.3567 18.5255 25.27 18.5255ZM30.4326 27.4584C30.4326 27.4575 30.4345 27.4556 30.4382 27.4556C30.4345 27.4593 30.4326 27.4593 30.4326 27.4584ZM29.5323 28.3575C29.8516 28.047 30.1486 27.7661 30.4382 27.4556C31.1956 26.672 31.1956 25.8958 30.4308 25.1418L26.3393 21.0685L26.3244 21.0538C26.0942 20.8024 25.7155 20.5141 25.2552 20.5141C24.7873 20.5141 24.3864 20.8172 24.1339 21.0685L21.5944 23.5968C21.4681 23.7224 21.082 24.1069 20.4657 24.1069C20.2206 24.1069 19.983 24.0477 19.7305 23.922C19.7008 23.9073 19.6711 23.8851 19.6414 23.8703C19.4261 23.7372 19.1736 23.6116 18.9063 23.4785C18.6093 23.3306 18.2974 23.1754 17.993 22.9832C15.6094 21.4825 13.4485 19.5235 11.3991 17.0101L11.3916 17.0027C10.263 15.5759 9.52041 14.3784 8.99319 13.1069L8.97092 13.0403C8.83726 12.619 8.71845 11.998 9.35705 11.3622C9.36447 11.3474 9.37932 11.3401 9.39417 11.3253C10.0402 10.7487 10.6342 10.1573 11.258 9.52151C11.4733 9.31452 11.6812 9.10013 11.8966 8.88575C12.6837 8.10215 12.6837 7.37769 11.8966 6.59409L9.86941 4.57594C9.63179 4.33199 9.39417 4.09543 9.16398 3.85887C8.71102 3.39315 8.28034 2.95699 7.82738 2.53562L7.80511 2.51344C7.56749 2.27688 7.18879 1.99597 6.72098 1.99597C6.34227 1.99597 5.95614 2.18078 5.59229 2.52083L3.06018 5.04167C2.44386 5.65524 2.10971 6.37231 2.03545 7.23723C1.92407 8.59005 2.17654 10.0242 2.86712 11.8649C3.98837 14.881 5.6814 17.6902 8.21351 20.7285C11.2803 24.373 14.9708 27.2487 19.1736 29.2742C20.7107 30.006 22.7602 30.8636 24.9656 31.004C25.0769 31.0114 25.1957 31.0114 25.3071 31.0114C26.4655 31.0114 27.3492 30.6344 28.0991 29.836C28.5595 29.2964 29.0496 28.8159 29.5323 28.3575Z" transform="translate(0 2)" id="Shape" fill="url(#gradient_1)" fill-rule="evenodd" stroke="none" />
    <path d="M0.856027 2.06322C2.87434 2.4022 4.70776 3.35751 6.17142 4.8213C7.63508 6.28508 8.5826 8.11866 8.92926 10.1371C9.014 10.6456 9.4531 11 9.95382 11C10.0154 11 10.0694 10.9923 10.131 10.9846C10.7011 10.8921 11.0785 10.3529 10.9861 9.78275C10.5701 7.34054 9.41458 5.11405 7.65048 3.34981C5.88639 1.58556 3.66009 0.429947 1.21809 0.0139243C0.648033 -0.0785252 0.116494 0.298977 0.016349 0.861378C-0.0837961 1.42378 0.28597 1.97077 0.856027 2.06322Z" transform="translate(18 6)" id="Path" fill="url(#gradient_1)" stroke="none" />
    <path d="M16.9844 15.8193C16.311 11.8683 14.4498 8.27316 11.5898 5.41214C8.72981 2.55113 5.13592 0.689202 1.18641 0.0155777C0.634087 -0.0828169 0.112026 0.295624 0.0136669 0.848148C-0.0771263 1.40824 0.293613 1.93049 0.853504 2.02888C4.37931 2.62682 7.5949 4.29953 10.1522 6.85022C12.7096 9.40848 14.3741 12.6252 14.9718 16.1523C15.0551 16.6518 15.4863 17 15.9781 17C16.0387 17 16.0916 16.9924 16.1522 16.9849C16.7045 16.9016 17.0828 16.3718 16.9844 15.8193Z" transform="translate(18 0)" id="Path" fill="url(#gradient_1)" stroke="none" />
  </g>
</svg>