<?xml version="1.0" encoding="utf-8"?>
<svg width="32px" height="58px" viewBox="0 0 32 58" version="1.1" xmlns:xlink="http://www.w3.org/1999/xlink" xmlns="http://www.w3.org/2000/svg">
  <desc>Created with Lunacy</desc>
  <g id="microphone">
    <path d="M31 0C30.448 0 30 0.447 30 1L30 7C30 14.72 23.72 21 16 21C8.28 21 2 14.72 2 7L2 1C2 0.447 1.552 0 1 0C0.448 0 0 0.447 0 1L0 7C0 15.485 6.644 22.429 15 22.949L15 28L10 28C9.448 28 9 28.447 9 29C9 29.553 9.448 30 10 30L22 30C22.552 30 23 29.553 23 29C23 28.447 22.552 28 22 28L17 28L17 22.949C25.356 22.429 32 15.484 32 7L32 1C32 0.447 31.552 0 31 0Z" transform="translate(0 28)" id="Path" fill="#FFFFFF" stroke="none" />
    <path d="M22 35C22 41.065 17.065 46 11 46C4.935 46 0 41.065 0 35L0 11C0 4.935 4.935 0 11 0C17.065 0 22 4.935 22 11L22 35ZM5 5C4.8 5 4.625 4.927 4.469 4.826C3.879 5.449 3.379 6.155 2.985 6.926C2.987 6.952 3 6.974 3 7C3 7.319 2.841 7.591 2.608 7.774C2.221 8.777 2 9.862 2 11L2 12C2.552 12 3 12.448 3 13C3 13.552 2.552 14 2 14L2 18C2.552 18 3 18.448 3 19C3 19.552 2.552 20 2 20L2 24C2.552 24 3 24.448 3 25C3 25.552 2.552 26 2 26L2 30C2.552 30 3 30.448 3 31C3 31.552 2.552 32 2 32L2 35C2 35.343 2.023 35.679 2.061 36.012C2.583 36.045 3 36.469 3 37C3 37.377 2.783 37.693 2.475 37.864C3.24 40.136 4.888 42 7.011 43.056C7.01 43.036 7 43.02 7 43C7 42.448 7.448 42 8 42C8.552 42 9 42.448 9 43C9 43.271 8.89 43.515 8.715 43.695C9.446 43.887 10.209 44 11 44C11.791 44 12.554 43.887 13.285 43.695C13.11 43.515 13 43.271 13 43C13 42.448 13.448 42 14 42C14.552 42 15 42.448 15 43C15 43.02 14.99 43.036 14.989 43.056C17.112 42.001 18.759 40.136 19.525 37.864C19.217 37.693 19 37.377 19 37C19 36.469 19.417 36.045 19.939 36.012C19.977 35.679 20 35.343 20 35L20 32C19.448 32 19 31.552 19 31C19 30.448 19.448 30 20 30L20 26C19.448 26 19 25.552 19 25C19 24.448 19.448 24 20 24L20 20C19.448 20 19 19.552 19 19C19 18.448 19.448 18 20 18L20 14C19.448 14 19 13.552 19 13C19 12.448 19.448 12 20 12L20 11C20 9.862 19.779 8.777 19.392 7.774C19.159 7.591 19 7.319 19 7C19 6.974 19.013 6.952 19.015 6.926C18.621 6.155 18.121 5.449 17.531 4.826C17.375 4.927 17.2 5 17 5C16.448 5 16 4.552 16 4C16 3.852 16.036 3.714 16.094 3.588C14.644 2.589 12.89 2 11 2C9.11 2 7.356 2.589 5.906 3.588C5.964 3.714 6 3.852 6 4C6 4.552 5.552 5 5 5Z" transform="translate(5 0)" id="Shape" fill="#FFFFFF" fill-rule="evenodd" stroke="none" />
    <path d="M1 2C1.55228 2 2 1.55228 2 1C2 0.447715 1.55228 0 1 0C0.447715 0 0 0.447715 0 1C0 1.55228 0.447715 2 1 2Z" transform="translate(15 3)" id="Oval" fill="#FFFFFF" stroke="none" />
    <path d="M1 2C1.55228 2 2 1.55228 2 1C2 0.447715 1.55228 0 1 0C0.447715 0 0 0.447715 0 1C0 1.55228 0.447715 2 1 2Z" transform="translate(12 6)" id="Oval" fill="#FFFFFF" stroke="none" />
    <path d="M1 2C1.55228 2 2 1.55228 2 1C2 0.447715 1.55228 0 1 0C0.447715 0 0 0.447715 0 1C0 1.55228 0.447715 2 1 2Z" transform="translate(12 12)" id="Oval" fill="#FFFFFF" stroke="none" />
    <path d="M1 2C1.55228 2 2 1.55228 2 1C2 0.447715 1.55228 0 1 0C0.447715 0 0 0.447715 0 1C0 1.55228 0.447715 2 1 2Z" transform="translate(9 9)" id="Oval" fill="#FFFFFF" stroke="none" />
    <path d="M1 2C1.55228 2 2 1.55228 2 1C2 0.447715 1.55228 0 1 0C0.447715 0 0 0.447715 0 1C0 1.55228 0.447715 2 1 2Z" transform="translate(15 9)" id="Oval" fill="#FFFFFF" stroke="none" />
    <path d="M1 2C1.55228 2 2 1.55228 2 1C2 0.447715 1.55228 0 1 0C0.447715 0 0 0.447715 0 1C0 1.55228 0.447715 2 1 2Z" transform="translate(9 15)" id="Oval" fill="#FFFFFF" stroke="none" />
    <path d="M1 2C1.55228 2 2 1.55228 2 1C2 0.447715 1.55228 0 1 0C0.447715 0 0 0.447715 0 1C0 1.55228 0.447715 2 1 2Z" transform="translate(15 15)" id="Oval" fill="#FFFFFF" stroke="none" />
    <path d="M1 2C1.55228 2 2 1.55228 2 1C2 0.447715 1.55228 0 1 0C0.447715 0 0 0.447715 0 1C0 1.55228 0.447715 2 1 2Z" transform="translate(18 6)" id="Oval" fill="#FFFFFF" stroke="none" />
    <path d="M1 2C1.55228 2 2 1.55228 2 1C2 0.447715 1.55228 0 1 0C0.447715 0 0 0.447715 0 1C0 1.55228 0.447715 2 1 2Z" transform="translate(18 12)" id="Oval" fill="#FFFFFF" stroke="none" />
    <path d="M1 2C1.55228 2 2 1.55228 2 1C2 0.447715 1.55228 0 1 0C0.447715 0 0 0.447715 0 1C0 1.55228 0.447715 2 1 2Z" transform="translate(21 9)" id="Oval" fill="#FFFFFF" stroke="none" />
    <path d="M1 2C1.55228 2 2 1.55228 2 1C2 0.447715 1.55228 0 1 0C0.447715 0 0 0.447715 0 1C0 1.55228 0.447715 2 1 2Z" transform="translate(21 15)" id="Oval" fill="#FFFFFF" stroke="none" />
    <path d="M1 2C1.55228 2 2 1.55228 2 1C2 0.447715 1.55228 0 1 0C0.447715 0 0 0.447715 0 1C0 1.55228 0.447715 2 1 2Z" transform="translate(12 18)" id="Oval" fill="#FFFFFF" stroke="none" />
    <path d="M1 2C1.55228 2 2 1.55228 2 1C2 0.447715 1.55228 0 1 0C0.447715 0 0 0.447715 0 1C0 1.55228 0.447715 2 1 2Z" transform="translate(12 24)" id="Oval" fill="#FFFFFF" stroke="none" />
    <path d="M1 2C1.55228 2 2 1.55228 2 1C2 0.447715 1.55228 0 1 0C0.447715 0 0 0.447715 0 1C0 1.55228 0.447715 2 1 2Z" transform="translate(9 21)" id="Oval" fill="#FFFFFF" stroke="none" />
    <path d="M1 2C1.55228 2 2 1.55228 2 1C2 0.447715 1.55228 0 1 0C0.447715 0 0 0.447715 0 1C0 1.55228 0.447715 2 1 2Z" transform="translate(15 21)" id="Oval" fill="#FFFFFF" stroke="none" />
    <path d="M1 2C1.55228 2 2 1.55228 2 1C2 0.447715 1.55228 0 1 0C0.447715 0 0 0.447715 0 1C0 1.55228 0.447715 2 1 2Z" transform="translate(9 27)" id="Oval" fill="#FFFFFF" stroke="none" />
    <path d="M1 2C1.55228 2 2 1.55228 2 1C2 0.447715 1.55228 0 1 0C0.447715 0 0 0.447715 0 1C0 1.55228 0.447715 2 1 2Z" transform="translate(15 27)" id="Oval" fill="#FFFFFF" stroke="none" />
    <path d="M1 2C1.55228 2 2 1.55228 2 1C2 0.447715 1.55228 0 1 0C0.447715 0 0 0.447715 0 1C0 1.55228 0.447715 2 1 2Z" transform="translate(18 18)" id="Oval" fill="#FFFFFF" stroke="none" />
    <path d="M1 2C1.55228 2 2 1.55228 2 1C2 0.447715 1.55228 0 1 0C0.447715 0 0 0.447715 0 1C0 1.55228 0.447715 2 1 2Z" transform="translate(18 24)" id="Oval" fill="#FFFFFF" stroke="none" />
    <path d="M1 2C1.55228 2 2 1.55228 2 1C2 0.447715 1.55228 0 1 0C0.447715 0 0 0.447715 0 1C0 1.55228 0.447715 2 1 2Z" transform="translate(21 21)" id="Oval" fill="#FFFFFF" stroke="none" />
    <path d="M1 2C1.55228 2 2 1.55228 2 1C2 0.447715 1.55228 0 1 0C0.447715 0 0 0.447715 0 1C0 1.55228 0.447715 2 1 2Z" transform="translate(21 27)" id="Oval" fill="#FFFFFF" stroke="none" />
    <path d="M1 2C1.55228 2 2 1.55228 2 1C2 0.447715 1.55228 0 1 0C0.447715 0 0 0.447715 0 1C0 1.55228 0.447715 2 1 2Z" transform="translate(12 30)" id="Oval" fill="#FFFFFF" stroke="none" />
    <path d="M1 2C1.55228 2 2 1.55228 2 1C2 0.447715 1.55228 0 1 0C0.447715 0 0 0.447715 0 1C0 1.55228 0.447715 2 1 2Z" transform="translate(12 36)" id="Oval" fill="#FFFFFF" stroke="none" />
    <path d="M1 2C1.55228 2 2 1.55228 2 1C2 0.447715 1.55228 0 1 0C0.447715 0 0 0.447715 0 1C0 1.55228 0.447715 2 1 2Z" transform="translate(9 33)" id="Oval" fill="#FFFFFF" stroke="none" />
    <path d="M1 2C1.55228 2 2 1.55228 2 1C2 0.447715 1.55228 0 1 0C0.447715 0 0 0.447715 0 1C0 1.55228 0.447715 2 1 2Z" transform="translate(15 33)" id="Oval" fill="#FFFFFF" stroke="none" />
    <path d="M1 2C1.55228 2 2 1.55228 2 1C2 0.447715 1.55228 0 1 0C0.447715 0 0 0.447715 0 1C0 1.55228 0.447715 2 1 2Z" transform="translate(9 39)" id="Oval" fill="#FFFFFF" stroke="none" />
    <path d="M1 2C1.55228 2 2 1.55228 2 1C2 0.447715 1.55228 0 1 0C0.447715 0 0 0.447715 0 1C0 1.55228 0.447715 2 1 2Z" transform="translate(15 39)" id="Oval" fill="#FFFFFF" stroke="none" />
    <path d="M1 2C1.55228 2 2 1.55228 2 1C2 0.447715 1.55228 0 1 0C0.447715 0 0 0.447715 0 1C0 1.55228 0.447715 2 1 2Z" transform="translate(18 30)" id="Oval" fill="#FFFFFF" stroke="none" />
    <path d="M1 2C1.55228 2 2 1.55228 2 1C2 0.447715 1.55228 0 1 0C0.447715 0 0 0.447715 0 1C0 1.55228 0.447715 2 1 2Z" transform="translate(18 36)" id="Oval" fill="#FFFFFF" stroke="none" />
    <path d="M1 2C1.55228 2 2 1.55228 2 1C2 0.447715 1.55228 0 1 0C0.447715 0 0 0.447715 0 1C0 1.55228 0.447715 2 1 2Z" transform="translate(21 33)" id="Oval" fill="#FFFFFF" stroke="none" />
    <path d="M1 2C1.55228 2 2 1.55228 2 1C2 0.447715 1.55228 0 1 0C0.447715 0 0 0.447715 0 1C0 1.55228 0.447715 2 1 2Z" transform="translate(21 39)" id="Oval" fill="#FFFFFF" stroke="none" />
  </g>
</svg>