<?xml version="1.0" encoding="utf-8"?>
<svg width="48px" height="49px" viewBox="0 0 48 49" version="1.1" xmlns:xlink="http://www.w3.org/1999/xlink" xmlns="http://www.w3.org/2000/svg">
  <desc>Created with Lunacy</desc>
  <defs>
    <linearGradient x1="1" y1="0.0578661151" x2="1.110223E-16" y2="0.9386489" id="gradient_1">
      <stop offset="0" stop-color="#FFA600" />
      <stop offset="1" stop-color="#FF6D00" />
    </linearGradient>
  </defs>
  <g id="Group-7" transform="translate(1.5 1.5)">
    <path d="M22.5 46C34.9264 46 45 35.7025 45 23C45 10.2975 34.9264 0 22.5 0C10.0736 0 0 10.2975 0 23C0 35.7025 10.0736 46 22.5 46Z" id="Oval-6" fill="none" stroke="url(#gradient_1)" stroke-width="3" />
    <g id="?" fill="#FF6D00" transform="translate(17 5)">
      <path d="M3.65 21.9Q3.65 20.525 4.175 19.525Q4.7 18.525 5.825 17.725Q6 17.575 6.1625 17.475Q6.325 17.375 6.475 17.275Q7.45 16.625 7.8625 16.175Q8.275 15.725 8.275 15.05Q8.275 14.175 7.575 13.7125Q6.875 13.25 5.475 13.25Q4.3 13.25 3.075 13.525Q1.85 13.8 0.8 14.325L0.8 11.1Q3.075 10.075 5.75 10.075Q8.75 10.075 10.4875 11.3375Q12.225 12.6 12.225 14.875Q12.225 15.775 11.9125 16.4375Q11.6 17.1 11.075 17.6Q10.55 18.1 9.575 18.8Q8.575 19.55 8.175 19.9125Q7.775 20.275 7.5625 20.7375Q7.35 21.2 7.35 21.925L7.35 22.45L3.65 22.45L3.65 21.9ZM5.475 28.3Q4.6 28.3 4.0125 27.725Q3.425 27.15 3.425 26.275Q3.425 25.4 4.0125 24.825Q4.6 24.25 5.475 24.25Q6.325 24.25 6.925 24.8375Q7.525 25.425 7.525 26.275Q7.525 27.125 6.925 27.7125Q6.325 28.3 5.475 28.3Z" />
    </g>
  </g>
</svg>