<?xml version="1.0" encoding="utf-8"?>
<svg width="89px" height="89px" viewBox="0 0 89 89" version="1.1" xmlns:xlink="http://www.w3.org/1999/xlink" xmlns="http://www.w3.org/2000/svg">
  <desc>Created with Lunacy</desc>
  <defs>
    <linearGradient x1="0" y1="0.9386489" x2="1" y2="0.0578661151" id="gradient_1">
      <stop offset="0" stop-color="#FFA600" />
      <stop offset="1" stop-color="#FF6D00" />
    </linearGradient>
    <linearGradient x1="1" y1="0.0578661151" x2="1.110223E-16" y2="0.9386489" id="gradient_2">
      <stop offset="0" stop-color="#FFA600" />
      <stop offset="1" stop-color="#FF6D00" />
    </linearGradient>
  </defs>
  <g id="shield" transform="translate(1.5 1.5)">
    <path d="M35.1429 0.976563C35.1429 3.66895 37.3325 5.85938 40.0238 5.85938C40.5629 5.85938 41 6.29668 41 6.83594L41 22.7725C41 35.4638 32.6453 46.3983 20.7805 49.9588C20.6891 49.9862 20.5945 50 20.5 50C20.4055 50 20.3111 49.9862 20.2196 49.9589C8.09213 46.3208 0 35.1921 0 22.7725L0 6.83594C0 6.29668 0.437138 5.85938 0.976191 5.85938C3.66755 5.85938 5.85714 3.66895 5.85714 0.976563C5.85714 0.437305 6.29428 0 6.83333 0L34.1667 0C34.7057 0 35.1429 0.437305 35.1429 0.976563ZM20.5 48.0022C31.607 44.5393 39.0476 34.4373 39.0476 22.7725L39.0476 7.74297C36.0594 7.31348 33.6893 4.94248 33.26 1.95313L7.74002 1.95313C7.31069 4.94248 4.9406 7.31348 1.95238 7.74297L1.95238 22.7725C1.95238 34.3734 9.48154 44.5669 20.5 48.0022Z" transform="translate(22 21)" id="Shape" fill="url(#gradient_1)" fill-rule="evenodd" stroke="none" />
    <path d="M0 8.5C0 3.8131 3.8131 0 8.5 0C13.1869 0 17 3.8131 17 8.5C17 13.1869 13.1869 17 8.5 17C3.8131 17 0 13.1869 0 8.5ZM1.88889 8.5C1.88889 12.1454 4.85463 15.1111 8.5 15.1111C12.1454 15.1111 15.1111 12.1454 15.1111 8.5C15.1111 4.85463 12.1454 1.88889 8.5 1.88889C4.85463 1.88889 1.88889 4.85463 1.88889 8.5Z" transform="translate(34 35)" id="Shape" fill="url(#gradient_1)" fill-rule="evenodd" stroke="none" />
    <path d="M8.70713 0.2928C8.31653 -0.0976 7.68353 -0.0976 7.29283 0.2928L3.00006 4.5857L1.70717 3.2929C1.31657 2.9025 0.683571 2.9025 0.292873 3.2929C-0.0976245 3.6834 -0.0976245 4.3166 0.292873 4.7072L2.29286 6.7072C2.48826 6.9023 2.74406 7 3.00006 7C3.25606 7 3.51186 6.9023 3.70715 6.7071L8.70713 1.7071C9.09762 1.3166 9.09762 0.6834 8.70713 0.2928Z" transform="translate(39 41)" id="Path" fill="url(#gradient_1)" stroke="none" />
    <path d="M43 86C66.7482 86 86 66.7482 86 43C86 19.2518 66.7482 0 43 0C19.2518 0 0 19.2518 0 43C0 66.7482 19.2518 86 43 86Z" id="Oval-6" fill="none" stroke="url(#gradient_2)" stroke-width="3" />
  </g>
</svg>