<?xml version="1.0" encoding="utf-8"?>
<svg width="76px" height="76px" viewBox="0 0 76 76" version="1.1" xmlns:xlink="http://www.w3.org/1999/xlink" xmlns="http://www.w3.org/2000/svg">
  <desc>Created with Lunacy</desc>
  <defs>
    <linearGradient x1="0" y1="0.9386489" x2="1" y2="0.0578661151" id="gradient_1">
      <stop offset="0" stop-color="#FFA600" />
      <stop offset="1" stop-color="#FF6D00" />
    </linearGradient>
  </defs>
  <g id="mobile-shopping">
    <path d="M1.16667 2L5.83333 2C6.47762 2 7 1.55225 7 1C7 0.44775 6.47762 0 5.83333 0L1.16667 0C0.522375 0 0 0.44775 0 1C0 1.55225 0.522375 2 1.16667 2Z" transform="translate(34 69)" id="Path" fill="url(#gradient_1)" stroke="none" />
    <path d="M2.5 17.2941C2.5 17.9763 1.94031 18.5294 1.25 18.5294C0.559687 18.5294 0 17.9763 0 17.2941L0 6.17647C0.0040625 2.76706 2.8 0.00401471 6.25 0L38.75 0C42.115 0 45 2.71765 45 4.94118L45 19.7647C45 20.4469 44.4403 21 43.75 21C43.0597 21 42.5 20.4469 42.5 19.7647L42.5 9.88235L2.5 9.88235L2.5 17.2941ZM6.25 2.47059C4.17891 2.47059 2.5 4.12974 2.5 6.17647L2.5 7.41176L42.5 7.41176L42.5 4.94118C42.5 4.2 40.9162 2.47059 38.75 2.47059L6.25 2.47059Z" transform="translate(15 0)" id="Shape" fill="url(#gradient_1)" fill-rule="evenodd" stroke="none" />
    <path d="M42.5 1.3125C42.5 0.587672 43.0597 0 43.75 0C44.4403 0 45 0.587672 45 1.3125L45 14.4375C44.9959 18.06 42.2 20.9957 38.75 21L6.25 21C2.8 20.9957 0.0040625 18.06 0 14.4375L0 2.625C0 1.90017 0.559687 1.3125 1.25 1.3125C1.94031 1.3125 2.5 1.90017 2.5 2.625L2.5 7.875L42.5 7.875L42.5 1.3125ZM38.75 18.375C40.8211 18.375 42.5 16.6121 42.5 14.4375L42.5 10.5L2.5 10.5L2.5 14.4375C2.5 16.6121 4.17891 18.375 6.25 18.375L38.75 18.375Z" transform="translate(15 55)" id="Shape" fill="url(#gradient_1)" fill-rule="evenodd" stroke="none" />
    <path d="M3.75 0L1.25 0C0.559687 0 0 0.44775 0 1C0 1.55225 0.559687 2 1.25 2L3.75 2C4.44031 2 5 1.55225 5 1C5 0.44775 4.44031 0 3.75 0Z" transform="translate(31 4)" id="Path" fill="url(#gradient_1)" stroke="none" />
    <path d="M3.75 0L1.25 0C0.559687 0 0 0.44775 0 1C0 1.55225 0.559687 2 1.25 2L3.75 2C4.44031 2 5 1.55225 5 1C5 0.44775 4.44031 0 3.75 0Z" transform="translate(40 4)" id="Path" fill="url(#gradient_1)" stroke="none" />
    <path d="M43.7149 7.54795C44.0975 7.54764 44.4604 7.71417 44.7049 8.00209C44.9488 8.29064 45.0488 8.67071 44.9775 9.03867L41.1203 29.1666C41.006 29.7608 40.4756 30.1913 39.8577 30.1918L13.3947 30.1918L13.8036 32.8915C13.9004 33.5071 14.44 33.9625 15.0765 33.9658L18.2368 33.9658C18.6219 32.8842 19.4909 32.0341 20.5961 31.6574C22.5956 30.9759 24.7813 32.0093 25.4781 33.9658L31.0941 33.9658C31.4824 32.8912 32.3464 32.0456 33.4449 31.6657C35.4532 30.9708 37.6571 32.0007 38.3672 33.9658C39.0774 35.9308 38.0247 38.087 36.0164 38.7819C34.0081 39.4767 31.8042 38.4469 31.0941 36.4818L25.4781 36.4818C25.093 37.5633 24.224 38.4134 23.1187 38.7902C21.1193 39.4717 18.9335 38.4383 18.2368 36.4818L15.0765 36.4818C13.168 36.4719 11.5499 35.1058 11.2604 33.2601L6.76809 3.59031C6.67487 2.97279 6.1331 2.51551 5.49522 2.51598L0 2.51598L0 0L5.49522 0C7.40372 0.00990669 9.02182 1.37593 9.31127 3.22172L9.96699 7.54795L43.7149 7.54795ZM13.0142 27.6758L38.7905 27.6758L42.172 10.0639L10.3489 10.0639L13.0142 27.6758ZM21.8574 33.9658C22.5675 33.9658 23.1432 34.5291 23.1432 35.2238C23.1432 35.9185 22.5675 36.4818 21.8574 36.4818C21.1474 36.4818 20.5717 35.9185 20.5717 35.2238C20.5717 34.5291 21.1474 33.9658 21.8574 33.9658ZM36.0005 35.2238C36.0005 34.5291 35.4248 33.9658 34.7147 33.9658C34.0047 33.9658 33.429 34.5291 33.429 35.2238C33.429 35.9185 34.0047 36.4818 34.7147 36.4818C35.4248 36.4818 36.0005 35.9185 36.0005 35.2238Z" transform="translate(31 16)" id="Shape" fill="url(#gradient_1)" fill-rule="evenodd" stroke="none" />
    <path d="M16.5 0C25.6128 0 33 7.38724 33 16.5C32.9895 25.6083 25.6083 32.9895 16.5 33C7.38724 33 0 25.6128 0 16.5C0 7.38724 7.38724 0 16.5 0ZM16.5 2.53846C8.78926 2.53846 2.53846 8.78926 2.53846 16.5C2.5475 24.2069 8.79307 30.4525 16.5 30.4615C24.2107 30.4615 30.4615 24.2107 30.4615 16.5C30.4615 8.78926 24.2107 2.53846 16.5 2.53846Z" transform="translate(0 22)" id="Shape" fill="url(#gradient_1)" fill-rule="evenodd" stroke="none" />
    <path d="M6.25 21.7222L6.25 20.263C8.91891 19.5609 10.5256 16.7799 9.83875 14.0517C9.27063 11.7955 7.27922 10.2193 5 10.2222C3.61922 10.2222 2.5 9.07813 2.5 7.66667C2.5 6.2552 3.61922 5.11111 5 5.11111C6.38078 5.11111 7.5 6.2552 7.5 7.66667C7.5 8.37232 8.05969 8.94444 8.75 8.94444C9.44031 8.94444 10 8.37232 10 7.66667C9.99141 5.34319 8.45094 3.31791 6.25 2.737L6.25 1.27778C6.25 0.572125 5.69031 0 5 0C4.30969 0 3.75 0.572125 3.75 1.27778L3.75 2.737C1.08109 3.43914 -0.525625 6.22006 0.16125 8.94828C0.729375 11.2045 2.72078 12.7807 5 12.7778C6.38078 12.7778 7.5 13.9219 7.5 15.3333C7.5 16.7448 6.38078 17.8889 5 17.8889C3.61922 17.8889 2.5 16.7448 2.5 15.3333C2.5 14.6277 1.94031 14.0556 1.25 14.0556C0.559687 14.0556 0 14.6277 0 15.3333C0.00859375 17.6568 1.54906 19.6821 3.75 20.263L3.75 21.7222C3.75 22.4279 4.30969 23 5 23C5.69031 23 6.25 22.4279 6.25 21.7222Z" transform="translate(12 27)" id="Path" fill="url(#gradient_1)" stroke="none" />
    <path d="M1.3125 2L19.6875 2C20.4123 2 21 1.55225 21 1C21 0.44775 20.4123 0 19.6875 0L1.3125 0C0.587672 0 0 0.44775 0 1C0 1.55225 0.587672 2 1.3125 2Z" transform="translate(44 28)" id="Path" fill="url(#gradient_1)" stroke="none" />
    <path d="M1.25 2L3.75 2C4.44031 2 5 1.55225 5 1C5 0.44775 4.44031 0 3.75 0L1.25 0C0.559687 0 0 0.44775 0 1C0 1.55225 0.559687 2 1.25 2Z" transform="translate(66 28)" id="Path" fill="url(#gradient_1)" stroke="none" />
  </g>
</svg>