<?xml version="1.0" encoding="utf-8"?>
<svg width="89px" height="89px" viewBox="0 0 89 89" version="1.1" xmlns:xlink="http://www.w3.org/1999/xlink" xmlns="http://www.w3.org/2000/svg">
  <desc>Created with Lunacy</desc>
  <defs>
    <linearGradient x1="1" y1="0.0578661151" x2="1.110223E-16" y2="0.9386489" id="gradient_1">
      <stop offset="0" stop-color="#FFA600" />
      <stop offset="1" stop-color="#FF6D00" />
    </linearGradient>
    <linearGradient x1="0" y1="-0.04923548" x2="1.30858743" y2="1" id="gradient_2">
      <stop offset="0" stop-color="#FAD961" />
      <stop offset="1" stop-color="#F76B1C" />
    </linearGradient>
    <linearGradient x1="-0.2612101" y1="-0.0569000244" x2="1" y2="0.9409256" id="gradient_3">
      <stop offset="0" stop-color="#FAD961" />
      <stop offset="1" stop-color="#F76B1C" />
    </linearGradient>
  </defs>
  <g id="Group" transform="translate(1.5 1.5)">
    <path d="M43 86C66.7482 86 86 66.7482 86 43C86 19.2518 66.7482 0 43 0C19.2518 0 0 19.2518 0 43C0 66.7482 19.2518 86 43 86Z" id="Oval-6" fill="none" stroke="url(#gradient_1)" stroke-width="3" />
    <path d="M1.00593 11.9689L1.63677 6.70135C0.61237 6.00946 0 4.91494 0 3.7143C0 1.66585 1.79389 0 4 0C6.20611 0 8 1.66585 8 3.7143C8 4.91494 7.38772 6.00946 6.36333 6.70135L6.99416 11.9689C7.02548 12.2311 6.93463 12.494 6.74517 12.6908C6.5557 12.8875 6.2842 13 6.00005 13L2.00005 13C1.71589 13 1.44439 12.8875 1.25493 12.6908C1.06546 12.494 0.974711 12.231 1.00593 11.9689ZM5.99981 3.71453C5.99981 2.69078 5.10235 1.85742 3.99986 1.85742C2.89737 1.85742 1.99991 2.69078 2 3.71453C2 4.42636 2.43556 5.06385 3.13671 5.37942C3.51855 5.5517 3.74214 5.92707 3.69527 6.31794L3.11712 11.143L4.8827 11.143L4.30454 6.31794C4.25767 5.92716 4.48126 5.5517 4.8631 5.37942C5.56425 5.06385 5.99981 4.42636 5.99981 3.71453Z" transform="translate(39 44)" id="Shape" fill="url(#gradient_2)" fill-rule="evenodd" stroke="none" />
    <path d="M29.3333 16.5L32.0833 16.5C32.59 16.5 33 16.91 33 17.4167L33 40.3333C33 42.3556 31.3556 44 29.3334 44L3.6667 44C1.64441 44 0 42.3556 0 40.3334L0 17.4167C0 16.91 0.410008 16.5 0.916695 16.5L3.6667 16.5L3.6667 12.8333C3.6667 5.75695 9.42356 0 16.5 0C23.5764 0 29.3333 5.75695 29.3333 12.8333L29.3333 16.5ZM16.5 1.83301C10.4343 1.83301 5.5 6.76728 5.5 12.833L5.5 16.4997L7.3333 16.4997L7.3333 12.833C7.3333 7.77885 11.4458 3.66631 16.5 3.66631C21.5542 3.66631 25.6667 7.77877 25.6667 12.833L25.6667 16.4997L27.5 16.4997L27.5 12.833C27.5 6.76728 22.5657 1.83301 16.5 1.83301ZM23.8326 12.8333L23.8326 16.5L9.16602 16.5L9.16602 12.8333C9.16602 8.78977 12.4558 5.5 16.4993 5.5C20.5429 5.5 23.8326 8.78977 23.8326 12.8333ZM29.334 42.1663C30.3446 42.1663 31.1673 41.3436 31.1673 40.333L31.1673 18.333L1.83398 18.333L1.83398 40.333C1.83398 41.3436 2.65666 42.1663 3.66729 42.1663L29.334 42.1663Z" transform="translate(27 20)" id="Shape" fill="url(#gradient_3)" fill-rule="evenodd" stroke="none" />
  </g>
</svg>