<?xml version="1.0" encoding="utf-8"?>
<svg width="90px" height="90px" viewBox="0 0 90 90" version="1.1" xmlns:xlink="http://www.w3.org/1999/xlink" xmlns="http://www.w3.org/2000/svg">
  <desc>Created with Lunacy</desc>
  <defs>
    <linearGradient x1="0" y1="0.9386489" x2="1" y2="0.0578661151" id="gradient_1">
      <stop offset="0" stop-color="#FFA600" />
      <stop offset="1" stop-color="#FF6D00" />
    </linearGradient>
    <linearGradient x1="1" y1="0.0578661151" x2="1.110223E-16" y2="0.9386489" id="gradient_2">
      <stop offset="0" stop-color="#FFA600" />
      <stop offset="1" stop-color="#FF6D00" />
    </linearGradient>
  </defs>
  <g id="bars" transform="translate(1.5 1.5)">
    <path d="M0 7.52577C0 3.35052 3.29897 0 7.47423 0C11.6495 0 15 3.29897 15 7.47423C15 11.6495 11.5979 15 7.47423 15C3.35052 15 0 11.701 0 7.52577ZM1.59794 7.47423C1.59794 10.7217 4.2268 13.3505 7.47423 13.3505C10.7217 13.3505 13.3505 10.7732 13.3505 7.52577C13.3505 4.27835 10.7217 1.64948 7.47423 1.64948C4.27835 1.64948 1.59794 4.2268 1.59794 7.47423Z" transform="translate(53 21)" id="Shape" fill="url(#gradient_1)" fill-rule="evenodd" stroke="none" />
    <path d="M4.94681 6.19048C4.89362 6.03175 4.89362 5.92593 4.78723 5.7672C4.73404 5.66138 4.68085 5.50265 4.57447 5.39683C4.46809 5.29101 4.41489 5.18518 4.30851 5.07937C4.20213 4.97355 4.09574 4.86772 3.93617 4.81482C3.82979 4.70899 3.67021 4.65609 3.56383 4.60317C3.40426 4.55026 3.29787 4.44444 3.1383 4.39153C2.97872 4.33862 2.81915 4.28571 2.71277 4.2328C2.65957 4.2328 2.55319 4.17989 2.5 4.12698C2.44681 4.07407 2.34043 4.07407 2.28723 4.02116C2.23404 3.96825 2.12766 3.96825 2.07447 3.91534C2.02128 3.86243 1.96809 3.80952 1.91489 3.75661C1.8617 3.7037 1.80851 3.65079 1.80851 3.54497C1.75532 3.49206 1.75532 3.38624 1.75532 3.33333C1.75532 3.22751 1.75532 3.1746 1.75532 3.06878C1.75532 3.01587 1.80851 2.91005 1.80851 2.85714C1.8617 2.80423 1.8617 2.69841 1.91489 2.6455C1.96809 2.59259 2.02128 2.53968 2.07447 2.48677C2.12766 2.43386 2.23404 2.38095 2.34043 2.38095C2.44681 2.32804 2.5 2.32804 2.60638 2.32804C2.65957 2.32804 2.71277 2.32804 2.76596 2.32804C2.81915 2.32804 2.87234 2.32804 2.92553 2.32804C3.03191 2.32804 3.08511 2.32804 3.19149 2.38095C3.29787 2.38095 3.40426 2.43386 3.45745 2.43386C3.51064 2.43386 3.61702 2.48677 3.67021 2.48677C3.7766 2.48677 3.82979 2.53968 3.88298 2.53968L4.14894 2.6455L4.20213 2.32804L4.30851 1.48148L4.30851 1.26984L4.09574 1.21693C4.04255 1.21693 3.93617 1.16402 3.88298 1.16402C3.82979 1.16402 3.7766 1.11111 3.67021 1.11111C3.61702 1.11111 3.51064 1.0582 3.40426 1.0582C3.29787 1.0582 3.24468 1.00529 3.1383 1.00529L3.08511 1.00529L3.08511 0.26455L3.08511 0L2.81915 0L2.07447 0L1.80851 0L1.80851 0.26455L1.80851 1.0582L1.75532 1.0582C1.59574 1.11111 1.43617 1.16402 1.2766 1.26984C1.11702 1.32275 1.01064 1.42857 0.904255 1.53439C0.797872 1.64021 0.691489 1.74603 0.585106 1.90476C0.478723 2.01058 0.425532 2.16931 0.37234 2.32804C0.319149 2.48677 0.265957 2.6455 0.212766 2.80423C0.159574 2.96296 0.159574 3.1746 0.159574 3.33333C0.159574 3.49206 0.159574 3.59788 0.212766 3.75661C0.265957 3.91534 0.265957 4.02116 0.37234 4.17989C0.425532 4.28571 0.531915 4.44444 0.585106 4.55026C0.691489 4.65609 0.744681 4.7619 0.851064 4.86772C0.957447 4.97355 1.06383 5.07937 1.2234 5.13228C1.32979 5.2381 1.48936 5.29101 1.59574 5.34391C1.75532 5.39683 1.91489 5.50265 2.02128 5.55556C2.18085 5.60847 2.34043 5.66138 2.44681 5.71429C2.5 5.71429 2.60638 5.7672 2.65957 5.82011C2.71277 5.87302 2.81915 5.87302 2.87234 5.92593C2.92553 5.97884 2.97872 6.03175 3.03191 6.03175C3.08511 6.08466 3.1383 6.13757 3.19149 6.19048C3.24468 6.24339 3.24468 6.2963 3.29787 6.40212C3.29787 6.45503 3.35106 6.56085 3.35106 6.66667C3.35106 6.77249 3.35106 6.8254 3.35106 6.93122C3.35106 6.98413 3.29787 7.08995 3.24468 7.14286C3.19149 7.19577 3.1383 7.24868 3.08511 7.30159C3.03191 7.3545 2.97872 7.40741 2.87234 7.46032C2.81915 7.51323 2.71277 7.51323 2.65957 7.56614C2.60638 7.56614 2.5 7.61905 2.39362 7.61905C2.34043 7.61905 2.28723 7.61905 2.18085 7.61905C2.12766 7.61905 2.02128 7.61905 1.96809 7.61905C1.8617 7.61905 1.75532 7.61905 1.70213 7.61905C1.59574 7.61905 1.48936 7.56614 1.43617 7.56614C1.32979 7.56614 1.2234 7.51323 1.11702 7.46032C1.01064 7.40741 0.904255 7.40741 0.797872 7.3545C0.744681 7.3545 0.691489 7.30159 0.638298 7.30159C0.585106 7.30159 0.531915 7.24868 0.478723 7.24868L0.159574 7.08995L0.106383 7.46032L0 8.4127L0 8.57143L0.159574 8.62434C0.37234 8.57143 0.478723 8.62434 0.638298 8.67725C0.744681 8.73016 0.904255 8.78307 1.01064 8.78307C1.11702 8.83598 1.2766 8.83598 1.43617 8.88889C1.59574 8.9418 1.70213 8.9418 1.8617 8.9418L1.96809 8.9418L1.96809 9.73545L1.96809 10L2.23404 10L2.97872 10L3.24468 10L3.24468 9.73545L3.24468 8.88889L3.29787 8.88889C3.45745 8.83598 3.61702 8.78307 3.7766 8.67725C3.93617 8.62434 4.04255 8.51852 4.20213 8.4127C4.30851 8.30688 4.41489 8.20106 4.52128 8.04233C4.62766 7.93651 4.68085 7.77778 4.78723 7.61905C4.84043 7.46032 4.89362 7.30159 4.94681 7.14286C5 6.98413 5 6.8254 5 6.61376C5 6.45503 5 6.34921 4.94681 6.19048Z" transform="translate(58 23)" id="Path" fill="url(#gradient_1)" stroke="none" />
    <path d="M31.8445 0.311276C31.5956 -0.044468 31.0481 -0.0952885 30.6996 0.158814L22.6362 6.71466L12.2334 2.29328C11.9845 2.19164 11.6859 2.24246 11.4868 2.39492L0.337343 10.5262C-0.0110767 10.7803 -0.110625 11.2885 0.138246 11.6443C0.287569 11.8984 0.53644 12 0.785312 12C0.934634 12 1.08396 11.9492 1.23328 11.8475L12.0343 3.97035L22.4869 8.39174C22.7358 8.49338 23.0842 8.44256 23.2833 8.2901L31.6951 1.48015C32.0436 1.22605 32.0933 0.66702 31.8445 0.311276Z" transform="translate(24 37)" id="Path" fill="url(#gradient_1)" stroke="none" />
    <path d="M52.2453 23.4344L48.5456 23.4344L48.5456 0.782779C48.5456 0.342466 48.1957 0 47.7457 0L40.3964 0C39.9464 0 39.5964 0.342466 39.5964 0.782779L39.5964 23.4344L36.8967 23.4344L36.8967 8.61057C36.8967 8.17025 36.5467 7.82779 36.0968 7.82779L28.6974 7.82779C28.2475 7.82779 27.8975 8.17025 27.8975 8.61057L27.8975 23.4344L25.1977 23.4344L25.1977 7.4364C25.1977 6.99609 24.8478 6.65362 24.3978 6.65362L17.0485 6.65362C16.5985 6.65362 16.2485 6.99609 16.2485 7.4364L16.2485 23.4344L13.5488 23.4344L13.5488 12.0352C13.5488 11.5949 13.1988 11.2524 12.7489 11.2524L5.34952 11.2524C4.89956 11.2524 4.54959 11.5949 4.54959 12.0352L4.54959 23.4344L0.799928 23.4344C0.349969 23.4344 0 23.7769 0 24.2172C0 24.6575 0.349969 25 0.799928 25L52.1953 25C52.6453 25 52.9952 24.6575 52.9952 24.2172C53.0452 23.7769 52.6953 23.4344 52.2453 23.4344ZM41.1963 23.4344L46.9458 23.4344L46.9458 1.56556L41.1963 1.56556L41.1963 23.4344ZM17.8484 23.4344L23.5979 23.4344L23.5979 8.21918L17.8484 8.21918L17.8484 23.4344ZM35.2468 23.4344L29.4973 23.4344L29.4973 9.39335L35.2468 9.39335L35.2468 23.4344ZM11.8989 23.4344L6.14945 23.4344L6.14945 12.818L11.8989 12.818L11.8989 23.4344Z" transform="translate(16 41)" id="Shape" fill="url(#gradient_1)" fill-rule="evenodd" stroke="none" />
    <path d="M43.5 87C67.5244 87 87 67.5244 87 43.5C87 19.4756 67.5244 0 43.5 0C19.4756 0 0 19.4756 0 43.5C0 67.5244 19.4756 87 43.5 87Z" id="Oval-6" fill="none" stroke="url(#gradient_2)" stroke-width="3" />
  </g>
</svg>