<?xml version="1.0" encoding="utf-8"?>
<svg width="90px" height="90px" viewBox="0 0 90 90" version="1.1" xmlns:xlink="http://www.w3.org/1999/xlink" xmlns="http://www.w3.org/2000/svg">
  <desc>Created with Lunacy</desc>
  <defs>
    <linearGradient x1="1" y1="0.0578661151" x2="1.110223E-16" y2="0.9386489" id="gradient_1">
      <stop offset="0" stop-color="#FFA600" />
      <stop offset="1" stop-color="#FF6D00" />
    </linearGradient>
    <linearGradient x1="0" y1="0.9386489" x2="1" y2="0.0578661151" id="gradient_2">
      <stop offset="0" stop-color="#FFA600" />
      <stop offset="1" stop-color="#FF6D00" />
    </linearGradient>
    <path d="M0 0L29.949 0L29.949 44.9109L0 44.9109L0 0Z" id="path_1" />
    <clipPath id="mask_1">
      <use xlink:href="#path_1" />
    </clipPath>
  </defs>
  <g id="Group-28" transform="translate(1.5 1.5)">
    <path d="M43.5 87C67.5244 87 87 67.5244 87 43.5C87 19.4756 67.5244 0 43.5 0C19.4756 0 0 19.4756 0 43.5C0 67.5244 19.4756 87 43.5 87Z" id="Oval-6" fill="none" stroke="url(#gradient_1)" stroke-width="3" />
    <g id="smartphone" transform="translate(29.00781 21.08887)">
      <g id="Group-3">
        <path d="M0 0L29.949 0L29.949 44.9109L0 44.9109L0 0Z" id="Clip-2" fill="none" stroke="none" />
        <g clip-path="url(#mask_1)">
          <path d="M2.94406 0L27.0122 0C28.6355 0 29.9564 1.27555 29.9564 2.84319L29.9564 42.0674C29.9564 43.6355 28.6355 44.9109 27.0122 44.9109L2.94406 44.9109C1.32074 44.9109 0 43.6355 0 42.0674L0 2.84319C0 1.27555 1.32074 0 2.94406 0ZM2.94326 1.4248L27.0114 1.4248C27.8211 1.4248 28.4801 2.05657 28.4801 2.83284L28.4801 6.16165L1.47461 6.16165L1.47461 2.83284C1.47461 2.05657 2.1335 1.4248 2.94326 1.4248ZM28.4801 35.5261L1.47461 35.5261L1.47461 7.89453L28.4801 7.89453L28.4801 35.5261ZM2.94326 43.3236L27.0114 43.3236C27.8211 43.3236 28.4801 42.6172 28.4801 41.7485L28.4801 37.0078L1.47461 37.0078L1.47461 41.7485C1.47461 42.6172 2.1335 43.3236 2.94326 43.3236Z" transform="translate(-0.0078125 -0.08886719)" id="Fill-1" fill="url(#gradient_2)" fill-rule="evenodd" stroke="none" />
        </g>
      </g>
      <path d="M0 2.39356C0 1.07376 1.08542 0 2.41954 0C3.75366 0 4.83871 1.07376 4.83871 2.39356C4.83871 3.71335 3.75317 4.78723 2.41954 4.78723C1.08542 4.78723 0 3.71335 0 2.39356ZM0.984954 2.39356C0.984954 3.17622 1.62838 3.81286 2.41954 3.81286C3.21021 3.81286 3.85376 3.17622 3.85376 2.39356C3.85376 1.61101 3.21021 0.974377 2.41954 0.974377C1.62838 0.974377 0.984954 1.61101 0.984954 2.39356Z" transform="translate(12.57227 38.20898)" id="Fill-4" fill="url(#gradient_2)" fill-rule="evenodd" stroke="none" />
      <path d="M0.496262 1.91489L7.24567 1.91489C7.51948 1.91489 7.74193 1.48572 7.74193 0.957447C7.74193 0.428218 7.51948 0 7.24567 0L0.496262 0C0.222449 0 0 0.428218 0 0.957447C0 1.48572 0.222449 1.91489 0.496262 1.91489Z" transform="translate(10.63672 2.783691)" id="Fill-5" fill="url(#gradient_2)" stroke="none" />
    </g>
  </g>
</svg>