<?xml version="1.0" encoding="utf-8"?>
<svg width="96px" height="96px" viewBox="0 0 96 96" version="1.1" xmlns:xlink="http://www.w3.org/1999/xlink" xmlns="http://www.w3.org/2000/svg">
  <desc>Created with Lunacy</desc>
  <defs>
    <linearGradient x1="0" y1="0.9386489" x2="1" y2="0.0578661151" id="gradient_1">
      <stop offset="0" stop-color="#FFA600" />
      <stop offset="1" stop-color="#FF6D00" />
    </linearGradient>
  </defs>
  <g id="solar-energy">
    <path d="M0 32C0 49.6446 14.3554 64 32 64C49.6446 64 64 49.6446 64 32C64 14.3554 49.6446 0 32 0C14.3554 0 0 14.3554 0 32ZM3.19993 32C3.19993 16.1205 16.1205 3.19993 32 3.19993C47.8795 3.19993 60.8001 16.1205 60.8001 32C60.8001 47.8795 47.8795 60.8001 32 60.8001C16.1205 60.8001 3.19993 47.8795 3.19993 32Z" transform="translate(16 16)" id="Shape" fill="url(#gradient_1)" fill-rule="evenodd" stroke="none" />
    <path d="M1.5 13C0.672082 13 0 12.2717 0 11.3746L0 1.62463C0 0.727512 0.672082 0 1.5 0C2.32792 0 3 0.727512 3 1.62463L3 11.3746C3 12.2717 2.32792 13 1.5 13Z" transform="translate(46 83)" id="Path" fill="url(#gradient_1)" stroke="none" />
    <path d="M1.5 13C0.672082 13 0 12.2725 0 11.3754L0 1.62537C0 0.728256 0.672082 0 1.5 0C2.32792 0 3 0.728256 3 1.62537L3 11.3754C3 12.2725 2.32792 13 1.5 13Z" transform="translate(46 0)" id="Path" fill="url(#gradient_1)" stroke="none" />
    <path d="M11.3754 3L1.62537 3C0.728256 3 0 2.32792 0 1.5C0 0.672082 0.728256 0 1.62537 0L11.3754 0C12.2725 0 13 0.672082 13 1.5C13 2.32792 12.2725 3 11.3754 3Z" transform="translate(0 47)" id="Path" fill="url(#gradient_1)" stroke="none" />
    <path d="M11.3746 3L1.62463 3C0.727512 3 0 2.32792 0 1.5C0 0.672082 0.727512 0 1.62463 0L11.3746 0C12.2717 0 13 0.672082 13 1.5C13 2.32792 12.2717 3 11.3746 3L11.3746 3Z" transform="translate(83 47)" id="Path" fill="url(#gradient_1)" stroke="none" />
    <path d="M5.71536 47.8271C5.94693 47.9443 6.19693 48 6.44471 48C6.9012 48 7.34884 47.8081 7.663 47.4463L28.6062 23.4459C29.0199 22.9728 29.1165 22.3033 28.8539 21.7342C28.5914 21.1659 28.0199 20.7996 27.3879 20.7996L19.747 20.7996L24.1239 1.96073C24.292 1.24441 23.9454 0.506119 23.2846 0.173594C22.6261 -0.15893 21.8223 -0.00365461 21.337 0.552994L0.393845 24.5534C-0.0198707 25.0265 -0.116478 25.696 0.146058 26.2651C0.408594 26.8334 0.980127 27.1996 1.61213 27.1996L9.25296 27.1996L4.87613 46.04C4.7102 46.7571 5.05607 47.4946 5.71536 47.8271ZM11.2785 23.9998L5.14063 23.9998L19.5285 7.51123L16.1517 22.0398C16.0425 22.5166 16.1568 23.0161 16.4614 23.3962C16.7674 23.7771 17.2313 23.9998 17.7224 23.9998L23.8603 23.9998L9.47247 40.4883L12.8478 25.9598C12.957 25.4829 12.8441 24.9834 12.5381 24.6033C12.2335 24.2224 11.7697 23.9998 11.2785 23.9998Z" transform="translate(33 24)" id="Shape" fill="url(#gradient_1)" fill-rule="evenodd" stroke="none" />
    <path d="M8.39738 10C7.98746 10 7.57755 9.84233 7.26516 9.53067L0.469678 2.73494C-0.156559 2.10868 -0.156559 1.09596 0.469678 0.469695C1.09592 -0.156565 2.1086 -0.156565 2.73484 0.469695L9.53032 7.26543C10.1566 7.89169 10.1566 8.90368 9.53032 9.53067C9.21794 9.84233 8.80729 10 8.39738 10L8.39738 10Z" transform="translate(72 72)" id="Path" fill="url(#gradient_1)" stroke="none" />
    <path d="M8.39788 10C7.98805 10 7.57749 9.84307 7.26516 9.53067L0.469583 2.73494C-0.156528 2.10868 -0.156528 1.09669 0.469583 0.469695C1.09423 -0.156565 2.10818 -0.156565 2.73429 0.469695L9.52987 7.26543C10.1567 7.89169 10.1567 8.90441 9.52987 9.53067C9.21754 9.84453 8.80625 10 8.39788 10Z" transform="translate(14 14)" id="Path" fill="url(#gradient_1)" stroke="none" />
    <path d="M1.6023 10C1.19247 10 0.781906 9.84233 0.469583 9.53067C-0.156528 8.90368 -0.156528 7.89169 0.469583 7.26543L7.26516 0.469695C7.89201 -0.156565 8.90522 -0.156565 9.52987 0.469695C10.1567 1.09596 10.1567 2.10868 9.52987 2.73494L2.73429 9.53067C2.42197 9.84233 2.01213 10 1.6023 10L1.6023 10Z" transform="translate(14 72)" id="Path" fill="url(#gradient_1)" stroke="none" />
    <path d="M1.60189 10C1.19198 10 0.782064 9.84307 0.469678 9.53067C-0.156559 8.90441 -0.156559 7.89169 0.469678 7.26543L7.26516 0.469695C7.8914 -0.156565 8.90335 -0.156565 9.53032 0.469695C10.1566 1.09669 10.1566 2.10868 9.53032 2.73494L2.73484 9.53067C2.42099 9.84453 2.01181 10 1.60189 10L1.60189 10Z" transform="translate(72 14)" id="Path" fill="url(#gradient_1)" stroke="none" />
  </g>
</svg>