<?xml version="1.0" encoding="utf-8"?>
<svg width="26px" height="29px" viewBox="0 0 26 29" version="1.1" xmlns:xlink="http://www.w3.org/1999/xlink" xmlns="http://www.w3.org/2000/svg">
  <desc>Created with Lunacy</desc>
  <defs>
    <linearGradient x1="0" y1="0.9386489" x2="1" y2="0.0578661151" id="gradient_1">
      <stop offset="0" stop-color="#FFA600" />
      <stop offset="1" stop-color="#FF6D00" />
    </linearGradient>
    <path d="M0 1.62852e-15L26 1.62852e-15L26 29L0 29L0 1.62852e-15Z" id="path_1" />
    <clipPath id="mask_1">
      <use xlink:href="#path_1" />
    </clipPath>
  </defs>
  <g id="Group-3">
    <path d="M0 1.62852e-15L26 1.62852e-15L26 29L0 29L0 1.62852e-15Z" id="Clip-2" fill="none" stroke="none" />
    <g clip-path="url(#mask_1)">
      <path d="M15.7196 29C16.33 29 16.8839 28.7461 17.2843 28.3363L17.2878 28.3363C17.5697 28.0484 17.7753 27.6835 17.874 27.2756C19.1218 26.985 20.4433 26.3487 21.4487 25.4952C22.5035 24.5977 23.2306 23.449 23.2306 22.1701L23.2306 21.5229L23.8357 21.5229C24.4317 21.5229 24.973 21.2753 25.3653 20.8747C25.7567 20.475 26 19.9213 26 19.3126L26 13.7643C26 13.1583 25.7567 12.6064 25.3653 12.2058L25.3626 12.203C24.9703 11.8033 24.4299 11.5549 23.8357 11.5549L23.2306 11.5549L23.2306 10.4484C23.2306 7.56239 22.086 4.95053 20.2341 3.06016C18.383 1.16979 15.8255 0 13.0004 0C10.1754 0 7.61696 1.16979 5.76591 3.06016C3.91486 4.95053 2.7694 7.56239 2.7694 10.4484L2.7694 11.5549L2.16435 11.5549C1.57007 11.5549 1.02966 11.8033 0.638263 12.203L0.634672 12.2058C0.243276 12.6064 0 13.1583 0 13.7643L0 19.3126C0 19.9213 0.243276 20.475 0.634672 20.8747C1.02697 21.2753 1.56828 21.5229 2.16435 21.5229L2.7694 21.5229L2.7694 21.7035C2.7694 22.1004 3.08449 22.4213 3.47229 22.4213L7.44729 22.4213C7.8342 22.4213 8.14929 22.1004 8.14929 21.7035L8.14929 11.3734C8.14929 10.9773 7.8342 10.6565 7.44729 10.6565L4.17429 10.6565L4.17429 10.4484C4.17429 7.95751 5.16266 5.70502 6.75876 4.0741C8.35576 2.44318 10.5623 1.43474 13.0004 1.43474C15.4377 1.43474 17.6442 2.44318 19.2412 4.0741C20.8382 5.70502 21.8266 7.95843 21.8266 10.4484L21.8266 10.6565L18.5536 10.6565C18.1658 10.6565 17.8516 10.9773 17.8516 11.3734L17.8516 21.7035C17.8516 22.1004 18.1658 22.4213 18.5536 22.4213L21.8096 22.4213C21.7162 23.14 21.2287 23.823 20.5537 24.3969C19.7673 25.0652 18.743 25.5731 17.7529 25.8307C17.6415 25.5695 17.4827 25.3329 17.2878 25.134C16.8866 24.7242 16.3318 24.4712 15.7196 24.4712C15.1073 24.4712 14.5535 24.7242 14.1513 25.134L14.1513 25.1368C13.75 25.5466 13.5023 26.1122 13.5023 26.7356C13.5023 27.3581 13.75 27.9246 14.1513 28.3344L14.154 28.3363C14.5553 28.7461 15.1091 29 15.7196 29ZM4.17383 20.9867L4.17383 12.0913L6.74394 12.0913L6.74394 20.9867L4.17383 20.9867ZM21.8269 12.0913L21.8269 20.9867L19.2559 20.9867L19.2559 12.0913L21.8269 12.0913ZM2.16375 12.9888L2.7688 12.9888L2.7688 20.0891L2.16375 20.0891C1.95548 20.0891 1.76517 20.0011 1.62782 19.8608C1.48958 19.7197 1.4043 19.5262 1.4043 19.3126L1.4043 13.7644C1.4043 13.5507 1.48868 13.3564 1.62603 13.2161C1.76338 13.0759 1.95369 12.9888 2.16375 12.9888ZM23.2305 12.9888L23.2305 20.0891L23.8355 20.0891C24.0447 20.0891 24.2341 20.0011 24.3723 19.8608C24.5097 19.7197 24.5959 19.5262 24.5959 19.3126L24.5959 13.7644C24.5959 13.5507 24.5106 13.3564 24.3732 13.2161C24.2359 13.0759 24.0456 12.9888 23.8355 12.9888L23.2305 12.9888ZM15.7187 27.566C15.944 27.566 16.1487 27.4725 16.295 27.3239L16.2941 27.3221C16.4404 27.1727 16.532 26.9646 16.532 26.7354C16.532 26.5062 16.4404 26.2981 16.2941 26.1477C16.1469 25.9983 15.9431 25.9048 15.7187 25.9048C15.4942 25.9048 15.2905 25.9983 15.1432 26.1477L15.1423 26.1468C14.9969 26.2962 14.9063 26.5043 14.9063 26.7354C14.9063 26.9655 14.996 27.1727 15.1414 27.3221L15.1432 27.3249C15.2905 27.4734 15.4933 27.566 15.7187 27.566Z" id="Fill-1" fill="url(#gradient_1)" fill-rule="evenodd" stroke="none" />
    </g>
  </g>
</svg>