<?xml version="1.0" encoding="utf-8"?>
<svg width="45px" height="45px" viewBox="0 0 45 45" version="1.1" xmlns:xlink="http://www.w3.org/1999/xlink" xmlns="http://www.w3.org/2000/svg">
  <desc>Created with Lunacy</desc>
  <defs>
    <linearGradient x1="1" y1="0.0578661151" x2="1.110223E-16" y2="0.9386489" id="gradient_1">
      <stop offset="0" stop-color="#FFA600" />
      <stop offset="1" stop-color="#FF6D00" />
    </linearGradient>
  </defs>
  <g id="Group-15" transform="translate(0.5 0.5)">
    <g id="@" fill="#FF9602" transform="translate(11 4)">
      <path d="M11.25 29.825Q8.25 29.825 6 28.8Q3.75 27.775 2.5 25.775Q1.25 23.775 1.25 20.9Q1.25 17.725 2.5625 15.2625Q3.875 12.8 6.325 11.4375Q8.775 10.075 12.05 10.075Q16.55 10.075 19.025 12.2875Q21.5 14.5 21.5 18.6Q21.5 20.4 21.0125 21.9Q20.525 23.4 19.5625 24.3Q18.6 25.2 17.225 25.2Q16.275 25.2 15.475 24.675Q14.675 24.15 14.45 23.25Q13.9 24.2 12.925 24.7Q11.95 25.2 10.7 25.2Q8.825 25.2 7.6625 24.05Q6.5 22.9 6.5 20.775Q6.5 19.125 7.175 17.7625Q7.85 16.4 9.1125 15.6125Q10.375 14.825 12.075 14.825Q13 14.825 13.9875 15.025Q14.975 15.225 15.75 15.55L15.425 21.55Q15.35 22.6 15.825 23.1375Q16.3 23.675 17.2 23.675Q18.5 23.675 19.0375 22.35Q19.575 21.025 19.575 18.6Q19.575 11.625 12.05 11.625Q9.375 11.625 7.3625 12.7625Q5.35 13.9 4.2625 16Q3.175 18.1 3.175 20.9Q3.175 24.45 5.2375 26.375Q7.3 28.3 11.25 28.3Q13.85 28.3 16.1 27.525L16.1 29Q13.9 29.825 11.25 29.825ZM10.925 23.675Q12.25 23.675 13.025 22.8875Q13.8 22.1 13.85 21.05L14.125 16.725Q13.25 16.375 12.025 16.375Q10.375 16.375 9.4 17.5625Q8.425 18.75 8.425 20.625Q8.425 22.125 9.0625 22.9Q9.7 23.675 10.925 23.675Z" />
    </g>
    <path d="M22 44C34.1503 44 44 34.1503 44 22C44 9.84974 34.1503 0 22 0C9.84974 0 0 9.84974 0 22C0 34.1503 9.84974 44 22 44Z" id="Oval-6" fill="none" stroke="url(#gradient_1)" stroke-width="1" />
  </g>
</svg>