<?xml version="1.0" encoding="utf-8"?>
<svg width="23px" height="26px" viewBox="0 0 23 26" version="1.1" xmlns:xlink="http://www.w3.org/1999/xlink" xmlns="http://www.w3.org/2000/svg">
  <desc>Created with Lunacy</desc>
  <defs>
    <linearGradient x1="0" y1="0.9386489" x2="1" y2="0.0578661151" id="gradient_1">
      <stop offset="0" stop-color="#FFA600" />
      <stop offset="1" stop-color="#FF6D00" />
    </linearGradient>
    <path d="M0 1.48307e-15L23 1.48307e-15L23 26L0 26L0 1.48307e-15Z" id="path_1" />
    <clipPath id="mask_1">
      <use xlink:href="#path_1" />
    </clipPath>
  </defs>
  <g id="Group-3">
    <path d="M0 1.48307e-15L23 1.48307e-15L23 26L0 26L0 1.48307e-15Z" id="Clip-2" fill="none" stroke="none" />
    <g clip-path="url(#mask_1)">
      <path d="M9.69353 0.031063C10.04 -0.0783065 10.4109 0.110377 10.5224 0.451843C10.634 0.794144 10.443 1.16149 10.0966 1.27086C8.56975 1.75927 7.13503 2.5307 5.88198 3.56011C4.67709 4.55111 3.63865 5.78339 2.84525 7.23358C2.04593 8.69629 1.57022 10.2467 1.39617 11.8021C1.21535 13.4184 1.35814 15.0431 1.79751 16.5842C1.89468 16.9307 1.69105 17.2906 1.33955 17.3882C0.988901 17.4851 0.62473 17.283 0.526717 16.9357C0.041718 15.2368 -0.115442 13.4434 0.0848102 11.6593C0.277458 9.9411 0.801324 8.2296 1.68345 6.61577C2.55712 5.01864 3.7054 3.65779 5.04041 2.56075C6.42528 1.42197 8.00955 0.568726 9.69353 0.031063ZM7.99175 16.1842L3.61409 21.666C3.39018 21.9465 3.4375 22.3531 3.71802 22.5769L7.04626 25.2134C7.82192 25.8271 8.77755 26.0759 9.69516 25.9799C10.6161 25.8847 11.5 25.4455 12.1286 24.6866C14.3686 21.9808 16.4006 19.0679 18.1894 16.0064C19.9748 12.9499 21.5117 9.75561 22.7648 6.48204C23.1163 5.56451 23.0588 4.58936 22.6828 3.75448C22.3077 2.92127 21.6114 2.22749 20.6845 1.87099L16.7099 0.339819C16.3711 0.210413 15.9892 0.376554 15.8582 0.712176L13.2473 7.19002C13.1138 7.52397 13.2794 7.90217 13.6165 8.03408L15.4813 8.75292C14.7767 10.2315 13.9968 11.7026 13.1577 13.136C12.317 14.5745 11.418 15.9788 10.4767 17.318L8.91866 16.0848C8.63475 15.8586 8.21989 15.9037 7.99175 16.1842ZM5.05469 21.9643L8.61275 17.5102L10.2317 18.7909C10.5282 18.9996 10.9397 18.9312 11.1501 18.6381C12.2638 17.0936 13.3225 15.4631 14.2992 13.7892L14.3009 13.7867C15.2785 12.1135 16.1767 10.3962 16.9693 8.68052L16.9904 8.63293C17.1213 8.29731 16.9532 7.92078 16.6135 7.79053L14.7192 7.06085L16.8442 1.78857L20.2113 3.08514C20.7994 3.3114 21.2421 3.75388 21.4813 4.2857C21.7204 4.81585 21.7559 5.437 21.532 6.02226C20.3009 9.23989 18.7952 12.3707 17.0495 15.3587C15.3073 18.3418 13.3149 21.1937 11.1079 23.8603C10.7074 24.3446 10.1463 24.6242 9.56247 24.6844C8.97608 24.7453 8.36687 24.5883 7.87427 24.1976L5.05469 21.9643ZM11.2286 4.26469C11.0984 3.9299 10.7182 3.76125 10.3785 3.88982C9.26997 4.3106 8.23492 4.92174 7.33336 5.70486C6.46222 6.46209 5.70937 7.38297 5.12383 8.45245C4.52307 9.55199 4.15299 10.7158 3.99667 11.8897C3.83613 13.1044 3.90626 14.3283 4.18932 15.5005C4.27297 15.8503 4.62869 16.0657 4.98188 15.9831C5.33591 15.9004 5.5539 15.5489 5.47025 15.2C5.22353 14.1814 5.16269 13.1161 5.3038 12.0575C5.43815 11.0414 5.76092 10.0295 6.28563 9.07026C6.79259 8.14354 7.44743 7.34373 8.20619 6.68501C8.99621 5.9979 9.89354 5.46692 10.8492 5.10458C11.188 4.97601 11.3578 4.60031 11.2286 4.26469Z" id="Fill-1" fill="url(#gradient_1)" fill-rule="evenodd" stroke="none" />
    </g>
  </g>
</svg>