<?xml version="1.0" encoding="utf-8"?>
<svg width="86px" height="86px" viewBox="0 0 86 86" version="1.1" xmlns:xlink="http://www.w3.org/1999/xlink" xmlns="http://www.w3.org/2000/svg">
  <desc>Created with Lunacy</desc>
  <defs>
    <linearGradient x1="0" y1="0.9386489" x2="1" y2="0.0578661151" id="gradient_1">
      <stop offset="0" stop-color="#FFA600" />
      <stop offset="1" stop-color="#FF6D00" />
    </linearGradient>
  </defs>
  <g id="check-mark">
    <path d="M0 14C0 6.2805 6.28033 0 14 0C21.7197 0 28 6.2805 28 14C28 21.7195 21.7197 28 14 28C6.28033 28 0 21.7195 0 14ZM3.33333 14C3.33333 19.8817 8.11833 24.6667 14 24.6667C19.8817 24.6667 24.6667 19.8817 24.6667 14C24.6667 8.11833 19.8817 3.33333 14 3.33333C8.11833 3.33333 3.33333 8.11833 3.33333 14Z" transform="translate(58 0)" id="Shape" fill="url(#gradient_1)" fill-rule="evenodd" stroke="none" />
    <path d="M3.414 0.586C3.042 0.214 2.526 0 2 0C1.474 0 0.958 0.2138 0.586 0.586C0.214 0.958 0 1.474 0 2C0 2.526 0.214 3.042 0.586 3.4138C0.958 3.7858 1.474 4 2 4C2.526 4 3.042 3.786 3.414 3.4138C3.786 3.042 4 2.526 4 2C4 1.474 3.786 0.958 3.414 0.586Z" transform="translate(49 24)" id="Path" fill="url(#gradient_1)" stroke="none" />
    <path d="M47.3219 8.72318C46.3951 8.72318 45.6438 9.51766 45.6438 10.4974L45.6438 18.4516L3.35616 18.4516L3.35616 3.54839L23.1575 3.54839C24.0843 3.54839 24.8356 2.7539 24.8356 1.77419C24.8356 0.794484 24.0843 0 23.1575 0L1.67808 0C0.751277 0 0 0.794484 0 1.77419L0 20.2258C0 21.2055 0.751277 22 1.67808 22L47.3219 22C48.2487 22 49 21.2055 49 20.2258L49 10.4974C49 9.51766 48.2487 8.72318 47.3219 8.72318Z" transform="translate(20 24)" id="Path" fill="url(#gradient_1)" stroke="none" />
    <path d="M20.3304 0L1.6696 0C0.74748 0 0 0.8956 0 2C0 3.1044 0.74748 4 1.6696 4L20.3304 4C21.2525 4 22 3.1044 22 2C22 0.8956 21.2525 0 20.3304 0Z" transform="translate(47 60)" id="Path" fill="url(#gradient_1)" stroke="none" />
    <path d="M20.3304 0L1.6696 0C0.74748 0 0 0.8956 0 2C0 3.1044 0.74748 4 1.6696 4L20.3304 4C21.2525 4 22 3.1044 22 2C22 0.8956 21.2525 0 20.3304 0Z" transform="translate(47 50)" id="Path" fill="url(#gradient_1)" stroke="none" />
    <path d="M20.3304 0L1.6696 0C0.74748 0 0 0.8956 0 2C0 3.1044 0.74748 4 1.6696 4L20.3304 4C21.2525 4 22 3.1044 22 2C22 0.8956 21.2525 0 20.3304 0Z" transform="translate(47 68)" id="Path" fill="url(#gradient_1)" stroke="none" />
    <path d="M20.3304 0L11 0C10.0779 0 9.3304 0.794484 9.3304 1.77419C9.3304 2.7539 10.0779 3.54839 11 3.54839L18.6608 3.54839L18.6608 18.4516L1.6696 18.4516C0.74748 18.4516 0 19.2461 0 20.2258C0 21.2055 0.74748 22 1.6696 22L20.3304 22C21.2525 22 22 21.2055 22 20.2258L22 1.77419C22 0.794484 21.2525 0 20.3304 0Z" transform="translate(20 50)" id="Path" fill="url(#gradient_1)" stroke="none" />
    <path d="M2 0C0.8954 0 0 0.758219 0 1.69321L0 16.3068C0 17.2418 0.8954 18 2 18C3.1046 18 4 17.2418 4 16.3068L4 1.69321C4 0.758219 3.1046 0 2 0Z" transform="translate(73 34)" id="Path" fill="url(#gradient_1)" stroke="none" />
    <path d="M3.414 0.586C3.042 0.214 2.526 0 2 0C1.474 0 0.958 0.2138 0.586 0.586C0.214 0.958 0 1.474 0 2C0 2.526 0.214 3.042 0.586 3.4138C0.958 3.7858 1.474 4 2 4C2.526 4 3.042 3.786 3.414 3.4138C3.786 3.042 4 2.526 4 2C4 1.474 3.786 0.958 3.414 0.586Z" transform="translate(73 54)" id="Path" fill="url(#gradient_1)" stroke="none" />
    <path d="M63.3248 10.3596C62.3995 10.3596 61.6495 11.1195 61.6495 12.0565L61.6495 28.9091C61.6495 29.8448 60.898 30.6061 59.9743 30.6061L5.02621 30.6061C4.10248 30.6061 3.35096 29.8448 3.35096 28.9091L3.35096 18.8789L13.4869 10.8968C15.3087 9.46238 16.1508 7.14909 15.6851 4.8599C15.3407 3.16651 14.2972 1.69643 12.8223 0.826406C11.3474 -0.0431133 9.57014 -0.237075 7.94666 0.29492L1.16008 2.51895C0.279734 2.80743 -0.202904 3.76417 0.0817203 4.65592C0.366512 5.54767 1.31118 6.03674 2.19136 5.74825L8.97794 3.52422C9.70735 3.28529 10.4738 3.36878 11.1363 3.75959C11.7989 4.1504 12.249 4.78438 12.4037 5.54496C12.6097 6.55838 12.237 7.58232 11.4305 8.21749L0.647451 16.7091C0.239193 17.0305 0.000470862 17.5248 0.000470862 18.0486L0.000470862 28.9091L0.000470862 29.4413C0.000470862 29.5782 0.0168883 29.6195 0.0472102 29.5935C0.378406 32.078 2.48419 34 5.02621 34L59.9743 34C62.7455 34 65 31.7162 65 28.9091L65 12.0565C65 11.1195 64.25 10.3596 63.3248 10.3596Z" transform="translate(12 52)" id="Path" fill="url(#gradient_1)" stroke="none" />
    <path d="M51.3139 0L16.8611 0C14.0719 0 11.8028 2.243 11.8028 5L11.8028 25.389L0.27804 42.6788C0.0967827 42.9512 0 43.2698 0 43.5958L0 72.3333C0 73.2537 0.754871 74 1.68611 74C2.61735 74 3.37222 73.2537 3.37222 72.3333L3.37222 44.0955L11.8028 31.4477L11.8028 38.3012C11.8028 39.2215 12.5576 39.9678 13.4889 39.9678C14.4201 39.9678 15.175 39.2215 15.175 38.3012L15.175 5C15.175 4.081 15.9314 3.33333 16.8611 3.33333L51.3139 3.33333C52.2451 3.33333 53 2.587 53 1.66667C53 0.746333 52.2451 0 51.3139 0Z" transform="translate(0 12)" id="Path" fill="url(#gradient_1)" stroke="none" />
    <path d="M11.4924 0.498775C10.8154 -0.166173 9.71824 -0.166344 9.04131 0.498775L4.57765 4.88696L2.95846 3.29521C2.2817 2.63009 1.18433 2.63009 0.507569 3.29521C-0.16919 3.96067 -0.16919 5.03927 0.507569 5.70473L3.35221 8.50099C3.69067 8.83355 4.13416 9 4.57765 9C5.02114 9 5.4648 8.83355 5.80309 8.50099L11.4924 2.9083C12.1691 2.24301 12.1693 1.16424 11.4924 0.498775Z" transform="translate(67 10)" id="Path" fill="url(#gradient_1)" stroke="none" />
  </g>
</svg>