<?xml version="1.0" encoding="utf-8"?>
<svg width="89px" height="89px" viewBox="0 0 89 89" version="1.1" xmlns:xlink="http://www.w3.org/1999/xlink" xmlns="http://www.w3.org/2000/svg">
  <desc>Created with Lunacy</desc>
  <defs>
    <linearGradient x1="1" y1="0.0578661151" x2="1.110223E-16" y2="0.9386489" id="gradient_1">
      <stop offset="0" stop-color="#FFA600" />
      <stop offset="1" stop-color="#FF6D00" />
    </linearGradient>
    <linearGradient x1="0" y1="0.9386489" x2="1" y2="0.0578661151" id="gradient_2">
      <stop offset="0" stop-color="#FFA600" />
      <stop offset="1" stop-color="#FF6D00" />
    </linearGradient>
    <path d="M0 1.31371e-14L41.7952 1.31371e-14L41.7952 51.5722L0 51.5722L0 1.31371e-14Z" transform="translate(0.2047624 0.23088)" id="path_1" />
    <path d="M0 0L41 0L41 36.0001L0 36.0001L0 0Z" id="path_2" />
    <clipPath id="mask_1">
      <use xlink:href="#path_1" />
    </clipPath>
    <clipPath id="mask_2">
      <use xlink:href="#path_2" />
    </clipPath>
  </defs>
  <g id="Group-23" transform="translate(1.5 1.5)">
    <g id="Group-26">
      <g id="Group-10">
        <path d="M43 86C66.7482 86 86 66.7482 86 43C86 19.2518 66.7482 0 43 0C19.2518 0 0 19.2518 0 43C0 66.7482 19.2518 86 43 86Z" id="Oval-6" fill="none" stroke="url(#gradient_1)" stroke-width="3" />
      </g>
      <g id="Group-7" transform="translate(8 14)">
        <g id="Group-3" transform="translate(13 0)">
          <path d="M0 1.31371e-14L41.7952 1.31371e-14L41.7952 51.5722L0 51.5722L0 1.31371e-14Z" transform="translate(0.2047624 0.23088)" id="Clip-2" fill="none" stroke="none" />
          <g clip-path="url(#mask_1)">
            <path d="M35.1396 27.1556C35.1396 25.3078 36.6325 23.8044 38.4674 23.8044C40.3024 23.8044 41.7953 25.3078 41.7953 27.1556C41.7953 29.0033 40.3024 30.5067 38.4674 30.5067C38.2274 30.5067 37.9937 30.4796 37.7677 30.4306L27.2247 48.1973L29.6963 49.6309C30.1907 49.9175 30.3605 50.5532 30.0759 51.0511C29.8848 51.3852 29.5373 51.5722 29.1799 51.5722C29.005 51.5722 28.8279 51.5274 28.6654 51.4331L0.517339 35.1097C0.0232081 34.8229 -0.146628 34.1871 0.137962 33.6893C0.422782 33.1912 1.05416 33.0207 1.54852 33.3073L5.70652 35.7185L15.672 18.381C15.2169 17.8078 14.9428 17.0826 14.9428 16.2933C14.9428 14.4456 16.4358 12.9422 18.2707 12.9422C20.1056 12.9422 21.5986 14.4456 21.5986 16.2933C21.5986 18.1411 20.1056 19.6444 18.2707 19.6444C17.9694 19.6444 17.679 19.6003 17.4013 19.5245L7.49645 36.7566L9.96596 38.1888L13.5392 31.9726C12.9877 31.3743 12.6478 30.5762 12.6478 29.6978C12.6478 27.85 14.1407 26.3467 15.9756 26.3467C17.8106 26.3467 19.3035 27.85 19.3035 29.6978C19.3035 31.5455 17.8106 33.0489 15.9756 33.0489C15.7592 33.0489 15.5481 33.0262 15.3429 32.9863L11.7559 39.2267L14.4891 40.8117L34.5504 5.75767C33.9243 5.148 33.533 4.2952 33.533 3.35111C33.533 1.50338 35.026 0 36.8609 0C38.6958 0 40.1888 1.50338 40.1888 3.35111C40.1888 5.19884 38.6958 6.70222 36.8609 6.70222C36.7087 6.70222 36.56 6.68812 36.4131 6.66825L16.2793 41.8501L18.9921 43.423L32.945 19.1482C32.4539 18.5642 32.156 17.8101 32.156 16.9867C32.156 15.1389 33.6489 13.6356 35.4838 13.6356C37.3187 13.6356 38.8117 15.1389 38.8117 16.9867C38.8117 18.8344 37.3187 20.3378 35.4838 20.3378C35.2146 20.3378 34.9544 20.302 34.7037 20.2409L20.7818 44.4612L25.4344 47.1591L35.9851 29.3795C35.4609 28.7872 35.1396 28.0093 35.1396 27.1556ZM38.1232 3.35111C38.1232 2.65015 37.5568 2.08 36.8609 2.08C36.165 2.08 35.5986 2.65015 35.5986 3.35111C35.5986 4.05207 36.165 4.62222 36.8609 4.62222C37.5568 4.62222 38.1232 4.05207 38.1232 3.35111ZM19.533 16.2933C19.533 15.5924 18.9666 15.0222 18.2707 15.0222C17.5748 15.0222 17.0084 15.5924 17.0084 16.2933C17.0084 16.9943 17.5748 17.5644 18.2707 17.5644C18.9666 17.5644 19.533 16.9943 19.533 16.2933ZM35.4838 15.7156C36.1797 15.7156 36.7461 16.2857 36.7461 16.9867C36.7461 17.6876 36.1797 18.2578 35.4838 18.2578C34.788 18.2578 34.2215 17.6876 34.2215 16.9867C34.2215 16.2857 34.788 15.7156 35.4838 15.7156ZM37.2051 27.1556C37.2051 27.8565 37.7716 28.4267 38.4674 28.4267C39.1633 28.4267 39.7297 27.8565 39.7297 27.1556C39.7297 26.4546 39.1633 25.8844 38.4674 25.8844C37.7716 25.8844 37.2051 26.4546 37.2051 27.1556ZM15.9756 28.4267C16.6715 28.4267 17.2379 28.9968 17.2379 29.6978C17.2379 30.3987 16.6715 30.9689 15.9756 30.9689C15.2798 30.9689 14.7133 30.3987 14.7133 29.6978C14.7133 28.9968 15.2798 28.4267 15.9756 28.4267Z" transform="translate(0.2047624 0.23088)" id="Fill-1" fill="url(#gradient_2)" fill-rule="evenodd" stroke="none" />
          </g>
        </g>
        <g id="Group-6" transform="translate(0 36)">
          <path d="M0 0L41 0L41 36.0001L0 36.0001L0 0Z" id="Clip-5" fill="none" stroke="none" />
          <g clip-path="url(#mask_2)">
            <path d="M12.42 0.15797C11.9195 -0.138568 11.2788 -0.00702951 10.9319 0.46374L0.226343 16.6176C-0.150174 17.1283 -0.0460792 17.851 0.457765 18.2323C0.962065 18.6135 1.67547 18.5083 2.05153 17.9976L12.1482 2.67082L38.2753 18.1656L28.8724 34.2354C28.5398 34.7764 28.7027 35.488 29.2363 35.8252C29.4238 35.9436 29.632 36.0001 29.8379 36.0001C30.2181 36.0001 30.5896 35.8072 30.8055 35.4564L40.8277 18.3795C40.9904 18.115 41.0405 17.7952 40.9669 17.4927C40.8933 17.1901 40.702 16.9307 40.4366 16.7734L12.42 0.15797Z" id="Fill-4" fill="url(#gradient_2)" stroke="none" />
          </g>
        </g>
      </g>
    </g>
  </g>
</svg>