<?xml version="1.0" encoding="utf-8"?>
<svg width="89px" height="89px" viewBox="0 0 89 89" version="1.1" xmlns:xlink="http://www.w3.org/1999/xlink" xmlns="http://www.w3.org/2000/svg">
  <desc>Created with Lunacy</desc>
  <defs>
    <linearGradient x1="1" y1="0.0578661151" x2="1.110223E-16" y2="0.9386489" id="gradient_1">
      <stop offset="0" stop-color="#FFA600" />
      <stop offset="1" stop-color="#FF6D00" />
    </linearGradient>
    <linearGradient x1="0" y1="0.9386489" x2="1" y2="0.0578661151" id="gradient_2">
      <stop offset="0" stop-color="#FFA600" />
      <stop offset="1" stop-color="#FF6D00" />
    </linearGradient>
  </defs>
  <g id="Group-7" transform="translate(1.5 1.5)">
    <g id="Group">
      <g id="Group-8-Copy">
        <path d="M43 86C66.7482 86 86 66.7482 86 43C86 19.2518 66.7482 0 43 0C19.2518 0 0 19.2518 0 43C0 66.7482 19.2518 86 43 86Z" id="Oval-6" fill="none" stroke="url(#gradient_1)" stroke-width="3" />
      </g>
    </g>
    <g id="question" transform="translate(15 13)">
      <path d="M53.3301 0.79903C54.3188 1.51948 54.925 2.62517 54.9935 3.83246C55.062 5.03976 54.5846 6.20464 53.6836 7.02849L40.9652 18.6583C39.6888 19.8252 38.0257 20.4679 36.2822 20.4679L19.6363 20.4679C19.0432 20.4679 18.5622 19.9955 18.5622 19.4128C18.5622 18.8303 19.0431 18.3578 19.6363 18.3578L36.282 18.3578C37.4805 18.3578 38.6239 17.916 39.5012 17.1139L52.22 5.48408C52.6525 5.08851 52.8818 4.52939 52.8488 3.9498C52.816 3.3702 52.5251 2.83947 52.0505 2.4937C51.2824 1.93405 50.2169 1.99229 49.517 2.63255L40.2844 11.0783C38.984 12.2677 37.2894 12.9228 35.5126 12.9228L30.1857 12.9228C30.144 12.9228 30.1031 12.92 30.0627 12.9155L27.7486 12.9155C27.1555 12.9155 26.6745 12.4431 26.6745 11.8604C26.6745 11.2779 27.1554 10.8054 27.7486 10.8054L35.2984 10.8054C36.1961 10.8054 36.9403 10.1437 37.0294 9.26646C37.1157 8.41791 36.5676 7.64997 35.7264 7.44021L24.8952 4.73999C23.3895 4.36478 21.8126 4.41522 20.3348 4.88666L12.1838 7.48601L12.1838 21.945C12.1838 22.5275 11.7029 23 11.1097 23L1.07411 23C0.481036 23 0 22.5276 0 21.945L0 3.15105C0 2.56851 0.480928 2.09601 1.07411 2.09601L11.1096 2.09601C11.7027 2.09601 12.1837 2.5684 12.1837 3.15105L12.1837 5.26735L19.6713 2.87956C21.5353 2.28509 23.5241 2.22115 25.4236 2.69481L36.2547 5.39503C38.0436 5.84082 39.238 7.41615 39.184 9.20104L48.0527 1.08835C49.5107 -0.245352 51.7305 -0.366905 53.3301 0.79903ZM2.14819 20.8899L10.0354 20.8899L10.0354 4.20618L2.14819 4.20618L2.14819 20.8899Z" transform="translate(0 32)" id="Shape" fill="url(#gradient_2)" fill-rule="evenodd" stroke="none" />
      <path d="M1.70712 0.293029C1.52019 0.106911 1.26329 0 1.0005 0C0.736505 0 0.479708 0.106911 0.292883 0.293029C0.106957 0.479048 0 0.737074 0 1C0 1.26293 0.106857 1.52105 0.292883 1.70687C0.479808 1.89289 0.736605 2 1.0005 2C1.26339 2 1.52029 1.89299 1.70712 1.70687C1.89294 1.52095 2 1.26293 2 1C2 0.737074 1.89304 0.479048 1.70712 0.293029Z" transform="translate(14 50)" id="Path" fill="url(#gradient_2)" stroke="none" />
      <path d="M1.70607 0.293029C1.52095 0.107011 1.26293 0 1 0C0.735974 0 0.477948 0.106011 0.292029 0.293029C0.106111 0.479048 0 0.736174 0 1C0 1.26303 0.106111 1.52105 0.292029 1.70697C0.479048 1.89289 0.736074 2 1 2C1.26303 2 1.52005 1.89299 1.70607 1.70697C1.89299 1.52095 2 1.26293 2 1C2 0.735974 1.89299 0.479048 1.70607 0.293029Z" transform="translate(5 49)" id="Path" fill="url(#gradient_2)" stroke="none" />
      <path d="M0 9.68604C0 4.34517 4.03739 0 8.99995 0C13.9625 0 17.9999 4.34507 18 9.68604C18 13.8203 15.5693 17.4634 12.0001 18.8193L12.0001 20.7713C12.0001 22.5516 10.6543 24 9.00005 24C7.34583 24 6.00003 22.5516 6.00003 20.7713L6.00003 16.1435C6.00003 14.3631 7.34583 12.9148 9.00005 12.9148C10.6543 12.9148 12.0001 11.4664 12.0001 9.68604C12.0001 7.90571 10.6543 6.45732 9.00005 6.45732C7.34583 6.45732 6.00003 7.90571 6.00003 9.68604C6.00003 11.4664 4.65424 12.9148 3.00002 12.9148C1.3458 12.9148 0 11.4664 0 9.68604ZM10 18.0234C10 17.5328 10.3083 17.1041 10.7499 16.9814C13.841 16.1221 16 13.1221 16.0002 9.68593C16.0002 5.53191 12.86 2.1523 9.00015 2.1523C5.14027 2.1523 2.00014 5.53191 2.00014 9.68593C2.00014 10.2793 2.44868 10.7621 3.00012 10.7621C3.55146 10.7621 4.00009 10.2794 4.00009 9.68593C4.00009 6.71876 6.24305 4.30481 9.00005 4.30481C11.757 4.30481 14 6.71876 14 9.68593C14 12.6531 11.757 15.0671 9.00005 15.0671C8.44871 15.0671 8.00008 15.5498 8.00008 16.1433L8.00008 20.7711C8.00008 21.3644 8.44861 21.8473 9.00005 21.8473C9.55139 21.8473 10 21.3645 10 20.7711L10 18.0234Z" transform="translate(18 0)" id="Shape" fill="url(#gradient_2)" fill-rule="evenodd" stroke="none" />
      <path d="M3 0C3.79098 0 4.56446 0.320632 5.12211 0.879888C5.67977 1.43744 6.0001 2.21062 6 3C6 3.78938 5.67977 4.56246 5.12111 5.12111C4.56276 5.67957 3.78958 6 3 6C2.21052 6 1.43744 5.67977 0.878788 5.12111C0.320732 4.56446 0 3.79088 0 3C0 2.20912 0.320632 1.43564 0.879788 0.877988C1.43554 0.320732 2.20912 0 3 0ZM3 4.0001C3.25893 4.0001 3.52325 3.89049 3.70667 3.70697C3.89039 3.52335 4 3.25913 4 3.0001C4 2.74107 3.89039 2.47675 3.70677 2.29333C3.52345 2.10931 3.25963 2.0001 3 2.0001C2.74047 2.0001 2.47645 2.10941 2.29393 2.29233C2.10641 2.47925 2 2.73657 2 3.0001C2 3.25963 2.10921 3.52365 2.29213 3.70607C2.47655 3.89049 2.74097 4.0001 3 4.0001Z" transform="translate(24 27)" id="Shape" fill="url(#gradient_2)" fill-rule="evenodd" stroke="none" />
      <path d="M1 0C0.447745 0 0 0.750847 0 1.67658L0 12.3234C0 13.2493 0.447745 14 1 14C1.55226 14 2 13.2492 2 12.3234L2 1.67658C2 0.750847 1.55216 0 1 0Z" transform="translate(5 38)" id="Path" fill="url(#gradient_2)" stroke="none" />
    </g>
  </g>
</svg>