<?xml version="1.0" encoding="utf-8"?>
<svg width="76px" height="76px" viewBox="0 0 76 76" version="1.1" xmlns:xlink="http://www.w3.org/1999/xlink" xmlns="http://www.w3.org/2000/svg">
  <desc>Created with Lunacy</desc>
  <defs>
    <linearGradient x1="1" y1="0.0578661151" x2="1.110223E-16" y2="0.9386489" id="gradient_1">
      <stop offset="0" stop-color="#FFA600" />
      <stop offset="1" stop-color="#FF6D00" />
    </linearGradient>
    <linearGradient x1="0" y1="0.9386489" x2="1" y2="0.0578661151" id="gradient_2">
      <stop offset="0" stop-color="#FFA600" />
      <stop offset="1" stop-color="#FF6D00" />
    </linearGradient>
  </defs>
  <g id="data-center" transform="translate(1.5 1.5)">
    <path d="M36.5 73C56.6584 73 73 56.6584 73 36.5C73 16.3416 56.6584 0 36.5 0C16.3416 0 0 16.3416 0 36.5C0 56.6584 16.3416 73 36.5 73Z" id="Oval-6" fill="none" stroke="url(#gradient_1)" stroke-width="3" />
    <path d="M0 0L1 0L1 1L0 1L0 0Z" transform="translate(39 22)" id="Path" fill="url(#gradient_2)" stroke="none" />
    <path d="M0 0L1 0L1 1L0 1L0 0Z" transform="translate(36 22)" id="Path" fill="url(#gradient_2)" stroke="none" />
    <path d="M0 0L1 0L1 1L0 1L0 0Z" transform="translate(30 27)" id="Path" fill="url(#gradient_2)" stroke="none" />
    <path d="M0 0L1 0L1 1L0 1L0 0Z" transform="translate(33 27)" id="Path" fill="url(#gradient_2)" stroke="none" />
    <path d="M0 0L1 0L1 1L0 1L0 0Z" transform="translate(39 32)" id="Path" fill="url(#gradient_2)" stroke="none" />
    <path d="M0 0L1 0L1 1L0 1L0 0Z" transform="translate(36 32)" id="Path" fill="url(#gradient_2)" stroke="none" />
    <path d="M0 0L1 0L1 1L0 1L0 0Z" transform="translate(30 38)" id="Path" fill="url(#gradient_2)" stroke="none" />
    <path d="M0 0L1 0L1 1L0 1L0 0Z" transform="translate(33 38)" id="Path" fill="url(#gradient_2)" stroke="none" />
    <path d="M0 0L1 0L1 1L0 1L0 0Z" transform="translate(20 27)" id="Path" fill="url(#gradient_2)" stroke="none" />
    <path d="M0 0L1 0L1 1L0 1L0 0Z" transform="translate(23 27)" id="Path" fill="url(#gradient_2)" stroke="none" />
    <path d="M0 0L1 0L1 1L0 1L0 0Z" transform="translate(20 38)" id="Path" fill="url(#gradient_2)" stroke="none" />
    <path d="M0 0L1 0L1 1L0 1L0 0Z" transform="translate(23 38)" id="Path" fill="url(#gradient_2)" stroke="none" />
    <path d="M36.7742 5.16129L29.6774 5.16129L29.6774 3.22581C29.6774 1.4471 28.2303 0 26.4516 0L13.5484 0C11.7697 0 10.3226 1.4471 10.3226 3.22581L10.3226 5.16129L3.22581 5.16129C1.4471 5.16129 0 6.60839 0 8.3871L0 26.4516C0 28.2303 1.4471 29.6774 3.22581 29.6774L8.51677 29.6774C8.51484 29.6858 8.51419 29.6948 8.5129 29.7039C5.90968 29.9652 3.87097 32.1684 3.87097 34.8387C3.87097 37.6845 6.18645 40 9.03226 40L30.9677 40C33.8135 40 36.129 37.6845 36.129 34.8387C36.129 32.211 34.1535 30.04 31.611 29.7219C31.611 29.7071 31.6129 29.6923 31.6129 29.6774L36.7742 29.6774C38.5529 29.6774 40 28.2303 40 26.4516L40 8.3871C40 6.60839 38.5529 5.16129 36.7742 5.16129ZM26.452 1.29004L13.5488 1.29004C12.4817 1.29004 11.6133 2.15843 11.6133 3.22552L11.6133 25.3823C12.0184 25.1487 12.4501 24.9578 12.9036 24.8158L12.9036 3.87068C12.9036 3.15907 13.4823 2.58036 14.1939 2.58036L25.8068 2.58036C26.5184 2.58036 27.0972 3.15907 27.0972 3.87068L27.0972 22.6481C27.5533 22.8584 27.9842 23.1107 28.3875 23.4017L28.3875 3.22552C28.3875 2.15843 27.5191 1.29004 26.452 1.29004ZM14.1934 7.74206L25.8063 7.74206L25.8063 3.87109L14.1934 3.87109L14.1934 7.74206ZM1.29102 8.38666L1.29102 26.4512C1.29102 27.2912 1.83231 28.0008 2.58134 28.2679L2.58134 9.03182C2.58134 8.3202 3.16005 7.74149 3.87166 7.74149L10.3233 7.74149L10.3233 6.45117L3.2265 6.45117C2.1594 6.45117 1.29102 7.31956 1.29102 8.38666ZM37.4197 28.2679C38.1687 28.0008 38.71 27.2912 38.71 26.4512L38.71 8.38666C38.71 7.31956 37.8416 6.45117 36.7745 6.45117L29.6777 6.45117L29.6777 7.74149L36.1293 7.74149C36.841 7.74149 37.4197 8.3202 37.4197 9.03182L37.4197 28.2679ZM10.3227 12.9032L3.87109 12.9032L3.87109 9.03223L10.3227 9.03223L10.3227 12.9032ZM14.1934 9.03223L25.8063 9.03223L25.8063 12.9032L14.1934 12.9032L14.1934 9.03223ZM36.1293 12.9032L29.6777 12.9032L29.6777 9.03223L36.1293 9.03223L36.1293 12.9032ZM10.3227 14.1934L3.87109 14.1934L3.87109 18.0643L10.3227 18.0643L10.3227 14.1934ZM25.8063 14.1934L14.1934 14.1934L14.1934 18.0643L25.8063 18.0643L25.8063 14.1934ZM36.1293 18.0643L29.6777 18.0643L29.6777 14.1934L36.1293 14.1934L36.1293 18.0643ZM3.87109 19.3545L10.3227 19.3545L10.3227 23.2255L3.87109 23.2255L3.87109 19.3545ZM17.603 25.1506C16.7424 24.7416 15.8011 24.5158 14.8385 24.5158C14.6211 24.5158 14.4056 24.528 14.1934 24.5493L14.1934 19.3545L25.8063 19.3545L25.8063 22.19C25.1863 22.0293 24.5405 21.9351 23.8708 21.9351C21.2927 21.9351 19.0108 23.2068 17.603 25.1506ZM36.1293 23.2255L36.1293 19.3545L29.6777 19.3545L29.6777 23.2255L36.1293 23.2255ZM30.9686 38.7095C33.1034 38.7095 34.8395 36.9733 34.8395 34.8385C34.8395 32.7037 33.1034 30.9675 30.9686 30.9675C28.8337 30.9675 27.0976 32.7037 27.0976 34.8385L25.8073 34.8385C25.8073 32.212 27.7808 30.0424 30.3215 29.7224C30.3215 29.7069 30.3234 29.692 30.3234 29.6772C30.3234 26.1198 27.4292 23.2256 23.8718 23.2256C20.3144 23.2256 17.4202 26.1198 17.4202 29.6772L16.1299 29.6772C16.1299 28.4482 16.4253 27.2888 16.9376 26.2559C16.2802 25.963 15.5666 25.8062 14.8395 25.8062C12.4273 25.8062 10.3802 27.4604 9.82856 29.7449C12.2969 30.1295 14.1944 32.2636 14.1944 34.8385L12.904 34.8385C12.904 32.7037 11.1679 30.9675 9.03308 30.9675C6.89824 30.9675 5.16211 32.7037 5.16211 34.8385C5.16211 36.9733 6.89824 38.7095 9.03308 38.7095L30.9686 38.7095ZM3.87109 28.3876L3.87109 24.5166L10.3227 24.5166L10.3227 26.3637C9.73755 26.9372 9.26013 27.6211 8.92593 28.3876L3.87109 28.3876ZM31.4964 28.3876C31.2519 26.9405 30.6074 25.6308 29.6777 24.574L29.6777 24.5166L36.1293 24.5166L36.1293 28.3876L31.4964 28.3876Z" transform="translate(15 17)" id="Shape" fill="url(#gradient_2)" fill-rule="evenodd" stroke="none" />
    <path d="M0 0L1 0L1 1L0 1L0 0Z" transform="translate(49 27)" id="Path" fill="url(#gradient_2)" stroke="none" />
    <path d="M0 0L1 0L1 1L0 1L0 0Z" transform="translate(46 27)" id="Path" fill="url(#gradient_2)" stroke="none" />
    <path d="M0 0L1 0L1 1L0 1L0 0Z" transform="translate(49 38)" id="Path" fill="url(#gradient_2)" stroke="none" />
    <path d="M0 0L1 0L1 1L0 1L0 0Z" transform="translate(46 38)" id="Path" fill="url(#gradient_2)" stroke="none" />
    <path d="M5.64158 4L7 3.8415C6.61649 1.65108 4.28109 0 1.56768 0C1.03528 0 0.507694 0.0621675 0 0.185382L0.391061 1.25959C0.771832 1.16718 1.1677 1.12013 1.56768 1.12013C3.60325 1.12013 5.3548 2.35788 5.64158 4L5.64158 4Z" transform="translate(37 42)" id="Path" fill="url(#gradient_2)" stroke="none" />
    <path d="M0 0L1 0L1 1L0 1L0 0Z" transform="translate(24 53)" id="Path" fill="url(#gradient_2)" stroke="none" />
    <path d="M0 0L1 0L1 1L0 1L0 0Z" transform="translate(27 53)" id="Path" fill="url(#gradient_2)" stroke="none" />
    <path d="M0 0L1 0L1 1L0 1L0 0Z" transform="translate(30 53)" id="Path" fill="url(#gradient_2)" stroke="none" />
  </g>
</svg>