<?xml version="1.0" encoding="utf-8"?>
<svg width="76px" height="76px" viewBox="0 0 76 76" version="1.1" xmlns:xlink="http://www.w3.org/1999/xlink" xmlns="http://www.w3.org/2000/svg">
  <desc>Created with Lunacy</desc>
  <defs>
    <linearGradient x1="0" y1="0.9386489" x2="1" y2="0.0578661151" id="gradient_1">
      <stop offset="0" stop-color="#FFA600" />
      <stop offset="1" stop-color="#FF6D00" />
    </linearGradient>
    <linearGradient x1="1" y1="0.0578661151" x2="1.110223E-16" y2="0.9386489" id="gradient_2">
      <stop offset="0" stop-color="#FFA600" />
      <stop offset="1" stop-color="#FF6D00" />
    </linearGradient>
  </defs>
  <g id="tv" transform="translate(1.5 1.5)">
    <path d="M1.707 0.293C1.521 0.107 1.263 0 1 0C0.736 0 0.479 0.107 0.293 0.293C0.107 0.479 0 0.737 0 1C0 1.263 0.107 1.521 0.293 1.707C0.479 1.893 0.736 2 1 2C1.263 2 1.521 1.893 1.707 1.707C1.893 1.521 2 1.263 2 1C2 0.737 1.893 0.479 1.707 0.293Z" transform="translate(30 20)" id="Path" fill="url(#gradient_1)" stroke="none" />
    <path d="M39.2188 0L16.6666 0C16.2352 0 15.8854 0.351904 15.8854 0.786026C15.8854 1.22015 16.2352 1.57205 16.6666 1.57205L38.4375 1.57205L38.4375 8.00576L24.187 22.3432C23.882 22.6501 23.882 23.1478 24.187 23.4549C24.3396 23.6083 24.5395 23.6851 24.7395 23.6851C24.9394 23.6851 25.1394 23.6083 25.2919 23.4549L38.4375 10.229L38.4375 27.0393L1.5625 27.0393L1.5625 1.57205L9.92188 1.57205C10.3534 1.57205 10.7031 1.22015 10.7031 0.786026C10.7031 0.351904 10.3534 0 9.92188 0L0.78125 0C0.349766 0 0 0.351904 0 0.786026L0 27.8253C0 28.2594 0.349766 28.6114 0.78125 28.6114L14.2188 28.6114L14.2188 31.2838L9.6875 31.2838C9.25602 31.2838 8.90625 31.6357 8.90625 32.0699L8.90625 34.4279L4.46516 34.4279C4.03367 34.4279 3.68391 34.7799 3.68391 35.214C3.68391 35.6481 4.03367 36 4.46516 36L32.7377 36C33.1692 36 33.519 35.6481 33.519 35.214C33.519 34.7799 33.1692 34.4279 32.7377 34.4279L31.0938 34.4279L31.0938 32.0699C31.0938 31.6357 30.744 31.2838 30.3125 31.2838L25.7813 31.2838L25.7813 28.6114L39.2188 28.6114C39.6502 28.6114 40 28.2594 40 27.8253L40 0.786026C40 0.351904 39.6502 0 39.2188 0ZM15.7813 28.6114L24.2188 28.6114L24.2188 31.2838L15.7813 31.2838L15.7813 28.6114ZM29.5313 34.4279L29.5313 32.8559L10.4688 32.8559L10.4688 34.4279L29.5313 34.4279Z" transform="translate(17 20)" id="Shape" fill="url(#gradient_1)" fill-rule="evenodd" stroke="none" />
    <path d="M7.78404 0.269914C7.49613 -0.0900635 7.02936 -0.0898792 6.74131 0.269914L0.215931 8.42664C-0.071977 8.78653 -0.071977 9.37008 0.215931 9.73006C0.359922 9.91005 0.548592 10 0.737262 10C0.925932 10 1.11468 9.90996 1.25859 9.73006L7.78404 1.57334C8.07195 1.21336 8.07202 0.629799 7.78404 0.269914Z" transform="translate(24 26)" id="Path" fill="url(#gradient_1)" stroke="none" />
    <path d="M1.707 0.293C1.521 0.107 1.263 0 1 0C0.737 0 0.479 0.107 0.293 0.293C0.107 0.479 0 0.736 0 1C0 1.263 0.107 1.521 0.293 1.707C0.479 1.893 0.737 2 1 2C1.263 2 1.521 1.893 1.707 1.707C1.893 1.521 2 1.263 2 1C2 0.737 1.893 0.479 1.707 0.293Z" transform="translate(20 36)" id="Path" fill="url(#gradient_1)" stroke="none" />
    <path d="M1.707 0.293C1.521 0.107 1.263 0 1 0C0.736 0 0.479 0.107 0.293 0.293C0.106 0.479 0 0.737 0 1C0 1.263 0.106 1.521 0.293 1.707C0.478 1.893 0.736 2 1 2C1.263 2 1.521 1.893 1.707 1.707C1.893 1.521 2 1.263 2 1C2 0.737 1.893 0.479 1.707 0.293Z" transform="translate(52 54)" id="Path" fill="url(#gradient_1)" stroke="none" />
    <path d="M4.34211 0L0.657895 0C0.294539 0 0 0.301319 0 0.673038C0 1.04476 0.294539 1.34608 0.657895 1.34608L1.84211 1.34608L1.84211 6.32696C1.84211 6.69868 2.13664 7 2.5 7C2.86336 7 3.15789 6.69868 3.15789 6.32696L3.15789 1.34608L4.34211 1.34608C4.70546 1.34608 5 1.04476 5 0.673038C5 0.301319 4.70546 0 4.34211 0Z" transform="translate(31 32)" id="Path" fill="url(#gradient_1)" stroke="none" />
    <path d="M4.54996 0.0346887C4.20532 -0.0827537 3.83271 0.107644 3.71785 0.460375L2.49998 4.19854L1.28211 0.460375C1.16726 0.107779 0.794586 -0.0827537 0.450006 0.0346887C0.105361 0.152198 -0.0809407 0.533331 0.0339191 0.885995L1.87589 6.53979C1.96542 6.81465 2.21685 7 2.49998 7C2.78312 7 3.03455 6.81465 3.12408 6.53979L4.96605 0.885995C5.08097 0.533331 4.89467 0.152198 4.54996 0.0346887Z" transform="translate(38 32)" id="Path" fill="url(#gradient_1)" stroke="none" />
    <path d="M36.5 73C56.6584 73 73 56.6584 73 36.5C73 16.3416 56.6584 0 36.5 0C16.3416 0 0 16.3416 0 36.5C0 56.6584 16.3416 73 36.5 73Z" id="Oval-6" fill="none" stroke="url(#gradient_2)" stroke-width="3" />
  </g>
</svg>