<?xml version="1.0" encoding="utf-8"?>
<svg width="89px" height="89px" viewBox="0 0 89 89" version="1.1" xmlns:xlink="http://www.w3.org/1999/xlink" xmlns="http://www.w3.org/2000/svg">
  <desc>Created with Lunacy</desc>
  <g id="file" transform="translate(1.5 1.5)">
    <path d="M22.1481 0L0.851852 0C0.38163 0 0 0.447 0 1C0 1.553 0.38163 2 0.851852 2L22.1481 2C22.6184 2 23 1.553 23 1C23 0.447 22.6184 0 22.1481 0Z" transform="translate(33 39)" id="Path" fill="#283336" stroke="none" />
    <path d="M0.833333 2L9.16667 2C9.62667 2 10 1.553 10 1C10 0.447 9.62667 0 9.16667 0L0.833333 0C0.373333 0 0 0.447 0 1C0 1.553 0.373333 2 0.833333 2Z" transform="translate(33 32)" id="Path" fill="#283336" stroke="none" />
    <path d="M22.1481 0L0.851852 0C0.38163 0 0 0.447 0 1C0 1.553 0.38163 2 0.851852 2L22.1481 2C22.6184 2 23 1.553 23 1C23 0.447 22.6184 0 22.1481 0Z" transform="translate(33 45)" id="Path" fill="#283336" stroke="none" />
    <path d="M22.1481 0L0.851852 0C0.38163 0 0 0.447 0 1C0 1.553 0.38163 2 0.851852 2L22.1481 2C22.6184 2 23 1.553 23 1C23 0.447 22.6184 0 22.1481 0Z" transform="translate(33 52)" id="Path" fill="#283336" stroke="none" />
    <path d="M22.1481 0L0.851852 0C0.38163 0 0 0.447 0 1C0 1.553 0.38163 2 0.851852 2L22.1481 2C22.6184 2 23 1.553 23 1C23 0.447 22.6184 0 22.1481 0Z" transform="translate(33 59)" id="Path" fill="#283336" stroke="none" />
    <path d="M35.8333 0L35.8333 12.155L40 16.3217L40 50L4.16667 50L4.16667 45.8333L0 45.8333L0 0L35.8333 0ZM1.66675 44.1666L1.66675 1.66663L34.1667 1.66663L34.1667 10.4883L27.8451 4.16663L4.16675 4.16663L4.16675 44.1666L1.66675 44.1666ZM5.83325 45.8334L5.83325 48.3334L38.3333 48.3334L38.3333 17.5L26.6666 17.5L26.6666 5.83337L5.83325 5.83337L5.83325 45.8334ZM35.8333 14.5117L28.3333 7.01172L28.3333 15.8334L37.1549 15.8334L35.8333 14.5117Z" transform="translate(22 18)" id="Shape" fill="#283336" fill-rule="evenodd" stroke="none" />
    <path d="M43 86C66.7482 86 86 66.7482 86 43C86 19.2518 66.7482 0 43 0C19.2518 0 0 19.2518 0 43C0 66.7482 19.2518 86 43 86Z" id="Oval-6" fill="none" stroke="#283336" stroke-width="3" />
  </g>
</svg>