<?xml version="1.0" encoding="utf-8"?>
<svg width="84px" height="85px" viewBox="0 0 84 85" version="1.1" xmlns:xlink="http://www.w3.org/1999/xlink" xmlns="http://www.w3.org/2000/svg">
  <desc>Created with Lunacy</desc>
  <defs>
    <linearGradient x1="0" y1="0.9386489" x2="1" y2="0.0578661151" id="gradient_1">
      <stop offset="0" stop-color="#FFA600" />
      <stop offset="1" stop-color="#FF6D00" />
    </linearGradient>
  </defs>
  <g id="manufacture">
    <path d="M79.7685 41.7061L83.9685 61.3061C84.1029 61.9305 83.7976 62.5668 83.2262 62.8525L74.8262 67.0525C74.4729 67.2289 74.0616 67.2482 73.6936 67.1054C72.9722 66.8255 72.6144 66.0141 72.8942 65.2929L75.4221 58.7864L71.6897 48.6392L59.9032 43.4001L54.8967 43.4001L43.1102 48.6391L39.3778 58.7862L41.9057 65.2927C42.0488 65.6611 42.0296 66.0727 41.8528 66.426C41.5069 67.1178 40.6656 67.3983 39.9739 67.0523L31.5739 62.8524C31.009 62.5699 30.7032 61.9443 30.8273 61.3251L35.0273 40.3252C35.1458 39.7346 35.6286 39.2859 36.2264 39.211L46.9492 37.8698L51.8 33.0204L51.8 12.946L16.8 20.7237L16.8 65.8L21.0016 65.8C21.7744 65.8006 22.4005 66.4272 22.4 67.2L22.4 82.6016C22.3995 83.3744 21.7728 84.0005 21 84L1.39843 84C0.625626 83.9995 -0.00052467 83.3728 0 82.6L0 67.1985C0.00052533 66.4257 0.627201 65.7995 1.4 65.8L5.60018 65.8L5.60018 20.2435C3.8388 18.6707 2.8224 16.4281 2.80053 14.067C2.75765 9.43637 6.47658 5.64781 11.1073 5.60493L11.1071 5.60301L51.7586 2.89349C53.0749 1.07122 55.1884 -0.00572895 57.4364 4.60323e-05C61.2924 0.010196 64.41 3.14409 64.4 7.00003C64.3955 8.50065 63.9043 9.95927 63 11.1568L63 33.0204L67.9163 37.9354L78.739 40.6425C79.2572 40.7713 79.6567 41.1839 79.7685 41.7061ZM61.6 7.0002C61.6 4.68058 59.7197 2.80021 57.4 2.80021C55.0815 2.80266 53.2025 4.68163 53.2 7.0002C53.2 9.31982 55.0804 11.2002 57.4 11.2002C59.7197 11.2002 61.6 9.31982 61.6 7.0002ZM18.8783 17.3925C20.2997 14.1972 19.5825 10.455 17.0805 8.0117L50.5232 5.78291C50.4464 6.18435 50.4053 6.59158 50.4 7.0002C50.4077 8.11932 50.6872 9.21972 51.2143 10.2069L18.8783 17.3925ZM5.6 14.0002C5.6 17.093 8.10723 19.6002 11.2 19.6002C14.2916 19.597 16.7969 17.0917 16.8 14.0002C16.8 10.9074 14.2928 8.4002 11.2 8.4002C8.10723 8.4002 5.6 10.9074 5.6 14.0002ZM60.2 13.4068L60.2 32.2001L54.6 32.2001L54.6 13.4068C56.3829 14.1979 58.4171 14.1979 60.2 13.4068ZM8.4 65.8L8.4 21.9102C10.2095 22.5636 12.1905 22.5636 14 21.9102L14 65.8L8.4 65.8ZM78.225 59.3072L76.8182 62.9248L81.0046 60.8332L77.2134 43.1472L66.8611 40.5578C66.6148 40.4963 66.39 40.3691 66.2102 40.1899L61.0204 35.0001L53.7798 35.0001L48.5898 40.1899C48.3699 40.4101 48.0825 40.5506 47.7736 40.5891L37.5744 41.8647L33.7832 60.8262L37.9818 62.9248L36.575 59.3072C36.452 58.9892 36.4492 58.6373 36.5668 58.3174L40.6861 47.1174C40.8165 46.7618 41.0853 46.4743 41.4313 46.3203L54.0313 40.7203C54.2105 40.6409 54.4042 40.5999 54.6 40.5999L60.2 40.5999C60.3959 40.6001 60.5896 40.6411 60.7688 40.7203L73.3688 46.3203C73.7148 46.4743 73.9836 46.762 74.1139 47.1174L78.2333 58.3174C78.3509 58.6373 78.3481 58.9892 78.225 59.3072ZM11.2 79.9929L18.4494 68.6L3.95063 68.6L11.2 79.9929ZM2.8 72.0083L2.8 81.2L8.64938 81.2L2.8 72.0083ZM19.6 81.2L13.7506 81.2L19.6 72.0083L19.6 81.2Z" id="Shape" fill="url(#gradient_1)" fill-rule="evenodd" stroke="none" />
    <path d="M2.5 5C3.88071 5 5 3.88071 5 2.5C5 1.11929 3.88071 0 2.5 0C1.11929 0 0 1.11929 0 2.5C0 3.88071 1.11929 5 2.5 5Z" transform="translate(8 11)" id="Oval" fill="url(#gradient_1)" stroke="none" />
    <path d="M24.5614 10.5522L26.19 11.2931C26.6826 11.5166 27.0005 12.0191 27 12.5742L27 15.426C27.0003 15.9809 26.6824 16.4835 26.1898 16.707L24.5612 17.4479C24.5055 17.6488 24.4472 17.8456 24.3835 18.0385L25.292 19.6531C25.5324 20.0811 25.5357 20.608 25.3013 21.0394C24.8026 21.9556 24.2081 22.8129 23.5283 23.5958C23.1995 23.9782 22.694 24.1441 22.2114 24.0279L20.4993 23.6245C20.356 23.7379 20.2089 23.8501 20.059 23.9595L19.892 25.8366C19.8421 26.3887 19.4813 26.8587 18.9716 27.0356L16.4002 27.927C15.8767 28.1076 15.2992 27.944 14.9389 27.5128L13.736 26.0732L13.264 26.0732L12.0584 27.5141C11.698 27.9452 11.1204 28.1083 10.597 27.9269L8.02689 27.0355C7.51781 26.8578 7.15761 26.3882 7.10787 25.8364L6.94084 23.9593C6.79095 23.8513 6.64378 23.7392 6.49915 23.6244L4.78877 24.0277C4.25457 24.1562 3.69814 23.939 3.38037 23.4781L1.77828 21.1703C1.46781 20.7227 1.44031 20.1289 1.70801 19.6528L2.6165 18.0381C2.55285 17.8453 2.49445 17.6484 2.43877 17.4475L0.810209 16.7066C0.317599 16.4832 -0.000339225 15.9806 0 15.4257L0 12.5739C-0.000339225 12.019 0.317599 11.5164 0.810209 11.2929L2.43877 10.552C2.49445 10.3511 2.55285 10.1543 2.6165 9.96142L1.70801 8.34678C1.46798 7.91875 1.46391 7.3922 1.69731 6.9605C2.19688 6.04443 2.79185 5.18714 3.47169 4.40406C3.80083 4.02223 4.30601 3.85651 4.7886 3.97201L6.50068 4.37536C6.64395 4.26197 6.79112 4.1498 6.94101 4.04043L7.10804 2.1633C7.15795 1.61121 7.51866 1.14118 8.02842 0.964265L10.5998 0.0728611C11.1233 -0.108255 11.7011 0.055537 12.0611 0.487064L13.264 1.92671L13.736 1.92671L14.9416 0.48584C15.302 0.054837 15.8796 -0.108255 16.403 0.073036L18.9731 0.96444C19.4822 1.14206 19.8424 1.61173 19.8921 2.16348L20.0592 4.0406C20.209 4.14857 20.3562 4.26074 20.5008 4.37554L22.2116 3.97218C22.6942 3.85616 23.1997 4.02206 23.5285 4.40424C24.209 5.18732 24.804 6.04513 25.3029 6.96208C25.5363 7.39343 25.5322 7.91945 25.2922 8.34696L24.3837 9.9616C24.4473 10.1544 24.5057 10.3513 24.5614 10.5522ZM22.0847 16.1308C22.179 15.6986 22.4669 15.3385 22.8604 15.1602L24.2836 14.5136L24.2836 13.4855L22.8606 12.8389C22.4673 12.6606 22.1794 12.3005 22.0848 11.8682C21.9743 11.3559 21.8226 10.8536 21.6313 10.3672C21.4695 9.96451 21.4989 9.50708 21.7109 9.12998L22.5384 7.659C22.3722 7.39792 22.1948 7.14225 22.0066 6.89202L20.4549 7.25845C20.0288 7.36099 19.581 7.24427 19.2534 6.94539C18.8784 6.60503 18.476 6.29827 18.0506 6.02809C17.6883 5.79657 17.4522 5.40337 17.4127 4.96589L17.2669 3.32815L16.4008 3.02734L15.385 4.24143C15.1272 4.54941 14.7519 4.72668 14.3572 4.72668L12.6412 4.72668C12.2457 4.72651 11.87 4.54889 11.612 4.24003L10.5988 3.02734L9.73156 3.32815L9.58575 4.96589C9.54636 5.40284 9.31075 5.79535 8.94919 6.02686C8.52363 6.29792 8.12082 6.60521 7.745 6.94556C7.41738 7.24427 6.96958 7.36099 6.54352 7.25862L4.99185 6.89219C4.80309 7.14243 4.62587 7.39809 4.46003 7.65918L5.28755 9.13015C5.49957 9.50726 5.5291 9.96468 5.36716 10.3673C5.17585 10.8538 5.0241 11.3559 4.91359 11.8684C4.81921 12.3006 4.53132 12.6608 4.13784 12.8391L2.71484 13.4857L2.71484 14.5137L4.13784 15.1603C4.53115 15.3387 4.81904 15.6988 4.91359 16.131C5.0241 16.6434 5.17585 17.1456 5.36716 17.6321C5.52893 18.0347 5.49957 18.4922 5.28755 18.8693L4.49584 20.276L5.06212 21.0908L6.54352 20.7408C6.96958 20.6377 7.41755 20.7544 7.745 21.0539C8.11997 21.3942 8.52244 21.701 8.94783 21.9712C9.31008 22.2027 9.54619 22.5959 9.58575 23.0334L9.73156 24.6711L10.5976 24.9719L11.6134 23.7578C11.8712 23.4498 12.2466 23.2726 12.6412 23.2726L14.3572 23.2726C14.7525 23.2727 15.1282 23.4504 15.3862 23.7592L16.3994 24.9719L17.2667 24.6711L17.4125 23.0334C17.4519 22.5964 17.6875 22.2039 18.0491 21.9724C18.4746 21.7013 18.8774 21.394 19.2533 21.0537C19.5805 20.7541 20.0287 20.6374 20.4547 20.7406L22.0064 21.1071C22.1952 20.8568 22.3724 20.6012 22.5382 20.3401L21.7107 18.8691C21.4987 18.492 21.4691 18.0346 21.6311 17.6319C21.8224 17.1454 21.9741 16.6434 22.0847 16.1308Z" transform="translate(44 48)" id="Shape" fill="url(#gradient_1)" fill-rule="evenodd" stroke="none" />
    <path d="M0 7C0 3.13407 3.13407 0 7 0C10.8642 0.00455 13.9955 3.13583 14 7C14 10.8659 10.8659 14 7 14C3.13407 14 0 10.8659 0 7ZM2.8 7C2.8 9.31962 4.68038 11.2 7 11.2C9.31857 11.1975 11.1975 9.31857 11.2 7C11.2 4.68038 9.31962 2.8 7 2.8C4.68038 2.8 2.8 4.68038 2.8 7Z" transform="translate(50 55)" id="Shape" fill="url(#gradient_1)" fill-rule="evenodd" stroke="none" />
    <path d="M0 0L3 0L3 3L0 3L0 0Z" transform="translate(76 82)" id="Rectangle" fill="url(#gradient_1)" stroke="none" />
    <path d="M0 0L3 0L3 3L0 3L0 0Z" transform="translate(81 82)" id="Rectangle" fill="url(#gradient_1)" stroke="none" />
  </g>
</svg>