<?xml version="1.0" encoding="utf-8"?>
<svg width="111px" height="111px" viewBox="0 0 111 111" version="1.1" xmlns:xlink="http://www.w3.org/1999/xlink" xmlns="http://www.w3.org/2000/svg">
  <desc>Created with Lunacy</desc>
  <defs>
    <linearGradient x1="1" y1="0.0578661151" x2="1.110223E-16" y2="0.9386489" id="gradient_1">
      <stop offset="0" stop-color="#FFA600" />
      <stop offset="1" stop-color="#FF6D00" />
    </linearGradient>
  </defs>
  <g id="house" transform="translate(1.5 1.5)">
    <path d="M20.703 30.9535L43.9977 30.9535L43.9977 0.324332L46 0.324332L46 33L0 33L0 0.196194L2.00231 0.196194L2.00231 30.9535L5.40087 30.9535L5.40087 0L20.703 0L20.703 30.9535ZM18.7007 2.04648L7.40318 2.04648L7.40318 30.9535L18.7007 30.9535L18.7007 2.04648Z" transform="translate(24 58)" id="Shape" fill="#FFFFFF" fill-rule="evenodd" stroke="none" />
    <path d="M0 30.0471L30.0682 0L60 30.0445L55.0657 34.9974L30.0651 9.90218L4.9338 35L0 30.0471ZM4.9374 32.1902L30.0687 7.09292L55.0657 32.184L57.1977 30.0445L30.0651 2.80978L2.80541 30.0502L4.9374 32.1902Z" transform="translate(17 23)" id="Shape" fill="#FFFFFF" fill-rule="evenodd" stroke="none" />
    <path d="M2.08046 1.96605L11.9195 1.96605L11.9195 15L14 15L14 0L0 0L0 3.73544L2.08046 3.73544L2.08046 1.96605Z" transform="translate(56 25)" id="Path" fill="#FFFFFF" stroke="none" />
    <path d="M0 15L0 0L17 0L17 15L0 15ZM1.99704 13.0623L15.003 13.0623L15.003 1.93768L1.99704 1.93768L1.99704 13.0623Z" transform="translate(47 59)" id="Shape" fill="#FFFFFF" fill-rule="evenodd" stroke="none" />
    <path d="M0 2L1.875 2L1.875 0L0 0L0 2ZM3.125 2L5 2L5 0L3.125 0L3.125 2Z" transform="translate(44 45)" id="Shape" fill="#FFFFFF" fill-rule="evenodd" stroke="none" />
    <path d="M54 108C83.8234 108 108 83.8234 108 54C108 24.1766 83.8234 0 54 0C24.1766 0 0 24.1766 0 54C0 83.8234 24.1766 108 54 108Z" id="Oval-6" fill="none" stroke="url(#gradient_1)" stroke-width="3" />
  </g>
</svg>