<?xml version="1.0" encoding="utf-8"?>
<svg width="111px" height="111px" viewBox="0 0 111 111" version="1.1" xmlns:xlink="http://www.w3.org/1999/xlink" xmlns="http://www.w3.org/2000/svg">
  <desc>Created with Lunacy</desc>
  <defs>
    <linearGradient x1="1" y1="0.0578661151" x2="1.110223E-16" y2="0.9386489" id="gradient_1">
      <stop offset="0" stop-color="#FFA600" />
      <stop offset="1" stop-color="#FF6D00" />
    </linearGradient>
  </defs>
  <g id="placeholder" transform="translate(1.5 1.5)">
    <path d="M0 17.9297C0 8.04326 8.0748 0 18 0C27.9252 0 36 8.04326 36 17.9297C36 21.1709 35.1221 24.3473 33.4611 27.1157L19.5368 50.2737C19.2681 50.7207 18.7849 50.9959 18.2618 51L18.2499 51C17.7313 51 17.2491 50.733 16.9754 50.2937L2.6869 27.3579C0.9289 24.5298 0 21.27 0 17.9297ZM18.2272 46.6357L30.8866 25.5815C32.2689 23.2775 33.01 20.6312 33.01 17.9297C33.01 9.691 26.271 2.96836 18 2.96836C9.729 2.96836 2.98 9.691 2.98 17.9297C2.98 20.7138 3.7734 23.4295 5.2367 25.7835L18.2272 46.6357Z" transform="translate(37 29)" id="Fill-1" fill="#464D5C" fill-rule="evenodd" stroke="none" />
    <path d="M0 8.94737C0 4.01379 4.0374 0 9 0C13.9626 0 18 4.01379 18 8.94737C18 13.7956 14.0903 17.8947 9 17.8947C3.9717 17.8947 0 13.8494 0 8.94737ZM2.98047 8.9472C2.98047 12.2445 5.67477 14.932 9.00047 14.932C12.3789 14.932 15.0105 12.1964 15.0105 8.9472C15.0105 5.65814 12.3089 2.9624 9.00047 2.9624C5.69207 2.9624 2.98047 5.65814 2.98047 8.9472Z" transform="translate(46 37.94727)" id="Fill-2" fill="#464D5C" fill-rule="evenodd" stroke="none" />
    <path d="M54 108C83.8234 108 108 83.8234 108 54C108 24.1766 83.8234 0 54 0C24.1766 0 0 24.1766 0 54C0 83.8234 24.1766 108 54 108Z" id="Oval-6" fill="none" stroke="url(#gradient_1)" stroke-width="3" />
  </g>
</svg>