<?xml version="1.0" encoding="utf-8"?>
<svg width="89px" height="89px" viewBox="0 0 89 89" version="1.1" xmlns:xlink="http://www.w3.org/1999/xlink" xmlns="http://www.w3.org/2000/svg">
  <desc>Created with Lunacy</desc>
  <defs>
    <linearGradient x1="0" y1="0.9386489" x2="1" y2="0.0578661151" id="gradient_1">
      <stop offset="0" stop-color="#FFA600" />
      <stop offset="1" stop-color="#FF6D00" />
    </linearGradient>
    <linearGradient x1="1" y1="0.0578661151" x2="1.110223E-16" y2="0.9386489" id="gradient_2">
      <stop offset="0" stop-color="#FFA600" />
      <stop offset="1" stop-color="#FF6D00" />
    </linearGradient>
  </defs>
  <g id="street-lamp" transform="translate(1.5 1.5)">
    <path d="M30.2439 13C30.237 6.92788 25.4362 2.00712 19.5122 2C13.5882 2.00712 8.78744 6.92788 8.78049 13L8.78049 55L14.6341 55C15.1729 55 15.6098 55.4478 15.6098 56L15.6098 59C15.6098 59.5522 15.1729 60 14.6341 60L0.97561 60C0.436829 60 0 59.5522 0 59L0 56C0 55.4478 0.436829 55 0.97561 55L6.82927 55L6.82927 13C6.82927 5.82025 12.5076 0 19.5122 0C26.5168 0 32.1951 5.82025 32.1951 13L32.1951 17C32.1922 17.0192 32.1883 17.0382 32.1834 17.057C36.629 17.5658 39.9934 21.4149 40 26C40 26.5522 39.5632 27 39.0244 27L36 27C35.6102 28.9676 34.1099 30.5055 32.1902 30.905C29.55 31.4545 26.9751 29.7062 26.439 27L23.4146 27C22.8759 27 22.439 26.5522 22.439 26C22.4456 21.4149 25.81 17.5658 30.2556 17.057C30.2507 17.0382 30.2468 17.0192 30.2439 17L30.2439 13ZM32.1897 19.0656C35.1909 19.5071 37.5487 21.9239 37.9795 25.0001L24.4595 25.0001C24.9953 21.1733 28.4562 18.5163 32.1897 19.0656ZM28.4595 27C28.8745 28.1978 29.9795 28.9985 31.2195 29C32.4595 28.9985 33.5645 28.1978 33.9795 27L28.4595 27ZM13.6585 58L13.6585 57L1.95117 57L1.95117 58L13.6585 58Z" transform="translate(25 12)" id="Shape" fill="url(#gradient_1)" fill-rule="evenodd" stroke="none" />
    <path d="M1.5 0C0.671625 0 0 0.44775 0 1L0 5C0 5.55225 0.671625 6 1.5 6C2.32838 6 3 5.55225 3 5L3 1C3 0.44775 2.32838 0 1.5 0Z" transform="translate(55 44)" id="Path" fill="url(#gradient_1)" stroke="none" />
    <path d="M3.86272 3.62498L1.86624 0.462042C1.59384 0.023645 0.984413 -0.129754 0.505131 0.119405C0.0258501 0.368564 -0.141855 0.926005 0.130541 1.3644C0.132787 1.36794 0.135033 1.37148 0.137279 1.37502L2.13376 4.53796C2.40616 4.97636 3.01559 5.12975 3.49487 4.88059C3.97415 4.63144 4.14185 4.07399 3.86946 3.6356C3.86721 3.63206 3.86497 3.62852 3.86272 3.62498Z" transform="translate(59 43)" id="Path" fill="url(#gradient_1)" stroke="none" />
    <path d="M4.5486 2.1405C4.54507 2.13826 4.54153 2.13601 4.53799 2.13376L1.37512 0.137294C0.940153 -0.141587 0.38067 0.0178805 0.125581 0.493414C-0.129508 0.968948 0.016355 1.58062 0.451319 1.8595C0.454857 1.86174 0.458395 1.86399 0.461933 1.86624L3.62481 3.86271C4.05977 4.14159 4.61925 3.98212 4.87434 3.50659C5.12955 3.03093 4.98368 2.41938 4.5486 2.1405Z" transform="translate(62 40)" id="Path" fill="url(#gradient_1)" stroke="none" />
    <path d="M4.8774 0.499675C4.62501 0.021861 4.06595 -0.141864 3.62881 0.134009L0.462529 2.13218C0.02367 2.40481 -0.129891 3.01475 0.119531 3.49444C0.368953 3.97413 0.926982 4.14197 1.36584 3.86935C1.36938 3.8671 1.37293 3.86485 1.37647 3.8626L4.54274 1.86443C4.98 1.58856 5.12979 0.977489 4.8774 0.499675Z" transform="translate(47 40)" id="Path" fill="url(#gradient_1)" stroke="none" />
    <path d="M3.50033 0.122602C3.02252 -0.129789 2.41145 0.0200003 2.13558 0.457144L0.137411 3.62341C-0.141708 4.05884 0.0178957 4.61892 0.493834 4.87428C0.969773 5.12965 1.58196 4.98363 1.86108 4.5482C1.86333 4.54466 1.86558 4.54111 1.86782 4.53757L3.86599 1.37131C4.14186 0.934049 3.97814 0.374994 3.50033 0.122602Z" transform="translate(50 43)" id="Path" fill="url(#gradient_1)" stroke="none" />
    <path d="M43 86C66.7482 86 86 66.7482 86 43C86 19.2518 66.7482 0 43 0C19.2518 0 0 19.2518 0 43C0 66.7482 19.2518 86 43 86Z" id="Oval-6" fill="none" stroke="url(#gradient_2)" stroke-width="3" />
  </g>
</svg>