<?xml version="1.0" encoding="utf-8"?>
<svg width="86px" height="95px" viewBox="0 0 86 95" version="1.1" xmlns:xlink="http://www.w3.org/1999/xlink" xmlns="http://www.w3.org/2000/svg">
  <desc>Created with Lunacy</desc>
  <defs>
    <linearGradient x1="0" y1="0.9386489" x2="1" y2="0.0578661151" id="gradient_1">
      <stop offset="0" stop-color="#FFA600" />
      <stop offset="1" stop-color="#FF6D00" />
    </linearGradient>
  </defs>
  <g id="data">
    <path d="M0 0L4 0L4 4L0 4L0 0Z" transform="translate(23 81)" id="Path" fill="url(#gradient_1)" stroke="none" />
    <path d="M0 0L4 0L4 4L0 4L0 0Z" transform="translate(30 81)" id="Path" fill="url(#gradient_1)" stroke="none" />
    <path d="M0 0L4 0L4 4L0 4L0 0Z" transform="translate(36 81)" id="Path" fill="url(#gradient_1)" stroke="none" />
    <path d="M0 0L4 0L4 6L0 6L0 0Z" transform="translate(46 80)" id="Path" fill="url(#gradient_1)" stroke="none" />
    <path d="M0 0L4 0L4 6L0 6L0 0Z" transform="translate(52 80)" id="Path" fill="url(#gradient_1)" stroke="none" />
    <path d="M0 0L4 0L4 6L0 6L0 0Z" transform="translate(59 80)" id="Path" fill="url(#gradient_1)" stroke="none" />
    <path d="M3.1875 0L47.8125 0C49.5728 0 51 1.41789 51 3.16667L51 12.6667C51 14.4154 49.5728 15.8333 47.8125 15.8333L46.2188 15.8333L46.2188 17.4167L47.8125 17.4167C49.5728 17.4167 51 18.8346 51 20.5833L51 30.0833C51 31.8321 49.5728 33.25 47.8125 33.25L46.2188 33.25L46.2188 36.4167C46.2188 37.2911 45.5051 38 44.625 38L38.25 38C37.3699 38 36.6563 37.2911 36.6563 36.4167L36.6563 33.25L14.3438 33.25L14.3438 36.4167C14.3438 37.2911 13.6301 38 12.75 38L6.375 38C5.49486 38 4.78125 37.2911 4.78125 36.4167L4.78125 33.25L3.1875 33.25C1.42722 33.25 0 31.8321 0 30.0833L0 20.5833C0 18.8346 1.42722 17.4167 3.1875 17.4167L4.78125 17.4167L4.78125 15.8333L3.1875 15.8333C1.42722 15.8333 0 14.4154 0 12.6667L0 3.16667C0 1.41789 1.42722 0 3.1875 0ZM3.1875 12.6665L47.8125 12.6665L47.8125 3.1665L3.1875 3.1665L3.1875 12.6665ZM11.1563 15.8335L7.96875 15.8335L7.96875 17.4168L11.1563 17.4168L11.1563 15.8335ZM14.3438 17.4168L14.3438 15.8335L36.6563 15.8335L36.6563 17.4168L14.3438 17.4168ZM43.0313 17.4168L39.8438 17.4168L39.8438 15.8335L43.0313 15.8335L43.0313 17.4168ZM3.1875 30.0835L47.8125 30.0835L47.8125 20.5835L3.1875 20.5835L3.1875 30.0835ZM7.96875 34.8333L11.1563 34.8333L11.1563 33.25L7.96875 33.25L7.96875 34.8333ZM43.0313 34.8333L39.8438 34.8333L39.8438 33.25L43.0313 33.25L43.0313 34.8333Z" transform="translate(17 57)" id="Shape" fill="url(#gradient_1)" fill-rule="evenodd" stroke="none" />
    <path d="M0 0L4 0L4 4L0 4L0 0Z" transform="translate(23 63)" id="Path" fill="url(#gradient_1)" stroke="none" />
    <path d="M0 0L4 0L4 4L0 4L0 0Z" transform="translate(30 63)" id="Path" fill="url(#gradient_1)" stroke="none" />
    <path d="M0 0L4 0L4 4L0 4L0 0Z" transform="translate(36 63)" id="Path" fill="url(#gradient_1)" stroke="none" />
    <path d="M0 0L4 0L4 6L0 6L0 0Z" transform="translate(46 62)" id="Path" fill="url(#gradient_1)" stroke="none" />
    <path d="M0 0L4 0L4 6L0 6L0 0Z" transform="translate(52 62)" id="Path" fill="url(#gradient_1)" stroke="none" />
    <path d="M0 0L4 0L4 6L0 6L0 0Z" transform="translate(59 62)" id="Path" fill="url(#gradient_1)" stroke="none" />
    <path d="M38 27.2L38 4.8C38 2.14922 35.8732 0 33.25 0L4.75 0C2.12683 0 0 2.14922 0 4.8L0 27.2C0 29.8508 2.12683 32 4.75 32L33.25 32C35.8732 32 38 29.8508 38 27.2ZM4.75 3.2L33.25 3.2C34.1244 3.2 34.8333 3.91641 34.8333 4.8L34.8333 6.4L3.16667 6.4L3.16667 4.8C3.16667 3.91641 3.87561 3.2 4.75 3.2ZM3.16667 9.6L3.16667 27.2C3.16667 28.0836 3.87561 28.8 4.75 28.8L33.25 28.8C34.1244 28.8 34.8333 28.0836 34.8333 27.2L34.8333 9.6L3.16667 9.6Z" id="Shape" fill="url(#gradient_1)" fill-rule="evenodd" stroke="none" />
    <path d="M0 0L4 0L4 4L0 4L0 0Z" transform="translate(17 15)" id="Path" fill="url(#gradient_1)" stroke="none" />
    <path d="M0 0L4 0L4 4L0 4L0 0Z" transform="translate(23 15)" id="Path" fill="url(#gradient_1)" stroke="none" />
    <path d="M0 0L4 0L4 4L0 4L0 0Z" transform="translate(10 15)" id="Path" fill="url(#gradient_1)" stroke="none" />
    <path d="M33.25 0L4.75 0C2.12683 0 0 2.14922 0 4.8L0 27.2C0 29.8508 2.12683 32 4.75 32L33.25 32C35.8732 32 38 29.8508 38 27.2L38 4.8C38 2.14922 35.8732 0 33.25 0ZM4.75 3.2L33.25 3.2C34.1244 3.2 34.8333 3.91641 34.8333 4.8L34.8333 6.4L3.16667 6.4L3.16667 4.8C3.16667 3.91641 3.87561 3.2 4.75 3.2ZM4.75 28.8L33.25 28.8C34.1244 28.8 34.8333 28.0836 34.8333 27.2L34.8333 9.6L3.16667 9.6L3.16667 27.2C3.16667 28.0836 3.87561 28.8 4.75 28.8Z" transform="translate(48 0)" id="Shape" fill="url(#gradient_1)" fill-rule="evenodd" stroke="none" />
    <path d="M0 0L4 0L4 4L0 4L0 0Z" transform="translate(65 15)" id="Path" fill="url(#gradient_1)" stroke="none" />
    <path d="M0 0L4 0L4 4L0 4L0 0Z" transform="translate(59 15)" id="Path" fill="url(#gradient_1)" stroke="none" />
    <path d="M0 0L4 0L4 4L0 4L0 0Z" transform="translate(72 15)" id="Path" fill="url(#gradient_1)" stroke="none" />
    <path d="M47.8125 7.91667L3.1875 7.91667L3.1875 0L0 0L0 9.5C0 10.3744 0.713608 11.0833 1.59375 11.0833L23.9063 11.0833L23.9063 19L27.0938 19L27.0938 11.0833L49.4063 11.0833C50.2864 11.0833 51 10.3744 51 9.5L51 0L47.8125 0L47.8125 7.91667Z" transform="translate(17 35)" id="Path" fill="url(#gradient_1)" stroke="none" />
    <path d="M0 0L4 0L4 4L0 4L0 0Z" transform="translate(72 35)" id="Path" fill="url(#gradient_1)" stroke="none" />
    <path d="M0 0L4 0L4 4L0 4L0 0Z" transform="translate(72 41)" id="Path" fill="url(#gradient_1)" stroke="none" />
    <path d="M0 0L4 0L4 4L0 4L0 0Z" transform="translate(10 35)" id="Path" fill="url(#gradient_1)" stroke="none" />
    <path d="M0 0L4 0L4 4L0 4L0 0Z" transform="translate(10 41)" id="Path" fill="url(#gradient_1)" stroke="none" />
  </g>
</svg>