<?xml version="1.0" encoding="utf-8"?>
<svg width="93px" height="93px" viewBox="0 0 93 93" version="1.1" xmlns:xlink="http://www.w3.org/1999/xlink" xmlns="http://www.w3.org/2000/svg">
  <desc>Created with Lunacy</desc>
  <defs>
    <linearGradient x1="0" y1="0.9386489" x2="1" y2="0.0578661151" id="gradient_1">
      <stop offset="0" stop-color="#FFA600" />
      <stop offset="1" stop-color="#FF6D00" />
    </linearGradient>
    <linearGradient x1="1" y1="0.0578661151" x2="1.110223E-16" y2="0.9386489" id="gradient_2">
      <stop offset="0" stop-color="#FFA600" />
      <stop offset="1" stop-color="#FF6D00" />
    </linearGradient>
  </defs>
  <g id="team" transform="translate(1.5 1.5)">
    <path d="M6.53999 1.14821C4.60779 0.0131619 0.985064 0 0.831792 0C0.372421 0 0 0.4376 0 0.977369C0 1.51714 0.372421 1.95474 0.831792 1.95474C1.76662 1.95487 4.48081 2.12402 5.79604 2.89666C5.91548 2.9669 6.04236 3 6.16735 3C6.47245 3 6.76624 2.80192 6.91197 2.45958C7.11748 1.97676 6.9509 1.38969 6.53999 1.14821Z" transform="translate(61 39)" id="Path" fill="url(#gradient_1)" stroke="none" />
    <path d="M59.2284 33.7748L55.4775 32.6917C55.3156 32.645 55.2025 32.4935 55.2025 32.3233L55.2025 31.0579C55.5077 30.8442 55.7988 30.6051 56.0709 30.3382C57.3896 29.0448 58.1158 27.31 58.1158 25.4532L58.1158 23.7072L58.4785 22.9742C58.8765 22.1696 59.0868 21.2687 59.0868 20.3692L59.0868 15.639C59.0868 15.1321 58.6802 14.7212 58.1786 14.7212L49.4389 14.7212C46.261 14.7212 43.6754 17.3343 43.6754 20.5461L43.6754 20.6009C43.6754 21.3489 43.8503 22.098 44.1813 22.7669L44.6464 23.7071L44.6464 25.2063C44.6464 27.5822 45.8049 29.714 47.5597 30.9969L47.5599 32.323C47.5599 32.5275 47.5599 32.6122 46.81 32.8288L44.9798 33.3573L39.6855 31.4116C39.7045 31.1591 39.6202 30.9024 39.4379 30.7089L37.7461 28.9125L37.7461 25.897C37.925 25.7481 38.1013 25.5951 38.2722 25.4333C40.4064 23.4115 41.6305 20.557 41.6305 17.6018L41.6305 15.1936C42.2749 13.7762 42.6015 12.2764 42.6015 10.7318L42.6015 0.917878C42.6015 0.410965 42.1949 0 41.6933 0L28.0982 0C23.3138 0 19.4215 3.9339 19.4215 8.76916L19.4215 10.7321C19.4215 12.2767 19.7481 13.7765 20.3926 15.1938L20.3926 17.2659C20.3926 20.697 21.9021 23.7882 24.2769 25.8261L24.2769 28.9127L22.5851 30.709C22.4028 30.9025 22.3185 31.1593 22.3376 31.4117L16.7497 33.4652C16.3447 33.614 15.9685 33.8156 15.6269 34.0598L14.7495 33.6164C17.3615 32.4673 18.1889 30.8512 18.2286 30.7709C18.3565 30.5126 18.3565 30.2083 18.2286 29.95C17.5739 28.6265 17.4945 26.2008 17.4308 24.2517C17.4096 23.6028 17.3895 22.9898 17.3512 22.4439C17.0415 18.0413 13.7299 14.7212 9.64778 14.7212C5.56571 14.7212 2.25392 18.0412 1.9444 22.4439C1.90602 22.9899 1.88591 23.6029 1.86472 24.2519C1.80103 26.2009 1.72159 28.6264 1.06696 29.9499C0.939082 30.2082 0.939082 30.5125 1.06696 30.7708C1.10668 30.8511 1.93241 32.4639 4.54961 33.6143L2.11236 34.8458C0.809391 35.5047 0 36.8283 0 38.3005L0 45.0816C0 45.5885 0.406633 45.9995 0.908203 45.9995C1.40977 45.9995 1.81641 45.5885 1.81641 45.0816L1.81641 38.3005C1.81641 37.528 2.24108 36.8335 2.92466 36.488L5.95963 34.9544L7.01532 35.9683C7.75351 36.6773 8.70046 37.0316 9.64778 37.0316C10.5949 37.0316 11.5423 36.6771 12.2802 35.9683L13.3358 34.9545L14.3254 35.4546C13.8594 36.2081 13.595 37.0917 13.595 38.0173L13.595 45.0819C13.595 45.5888 14.0016 45.9998 14.5032 45.9998C15.0047 45.9998 15.4114 45.5888 15.4114 45.0819L15.4114 38.0173C15.4114 36.7572 16.1986 35.6212 17.3704 35.1906L23.2619 33.0255L25.7144 36.7436C26.0279 37.219 26.5303 37.5238 27.0928 37.5801C27.1555 37.5864 27.2179 37.5894 27.2801 37.5894C27.7764 37.5894 28.2517 37.392 28.6069 37.0331L30.1032 35.5209L30.1032 45.082C30.1032 45.5889 30.5098 45.9999 31.0114 45.9999C31.513 45.9999 31.9196 45.5889 31.9196 45.082L31.9196 35.5209L33.4158 37.0331C33.771 37.3921 34.2463 37.5895 34.7426 37.5895C34.8048 37.5895 34.8673 37.5865 34.9299 37.5802C35.4925 37.5239 35.9949 37.2191 36.3084 36.7438L38.761 33.0257L44.6524 35.1908C45.8241 35.6215 46.6114 36.7575 46.6114 38.0175L46.6114 45.0821C46.6114 45.589 47.018 46 47.5196 46C48.0212 46 48.4278 45.589 48.4278 45.0821L48.4278 38.0175C48.4278 36.7413 47.9261 35.5444 47.0845 34.6592L47.3089 34.5945C47.5352 34.5291 47.844 34.4396 48.154 34.286L50.4728 36.6296L50.4728 45.0821C50.4728 45.589 50.8795 46 51.3811 46C51.8826 46 52.2893 45.589 52.2893 45.0821L52.2893 36.6296L54.592 34.3023C54.7144 34.3652 54.843 34.4183 54.9784 34.4574L58.7294 35.5405C59.5855 35.7877 60.1836 36.5889 60.1836 37.4889L60.1836 45.0821C60.1836 45.589 60.5902 46 61.0918 46C61.5934 46 62 45.589 62 45.0821L62 37.4889C62 35.7734 60.8603 34.2461 59.2284 33.7748ZM22.209 17.2658L22.209 14.9885C22.209 14.8503 22.1781 14.7138 22.1186 14.5894C21.5342 13.3663 21.2379 12.0685 21.2379 10.7321L21.2379 8.76928C21.2379 4.94614 24.3155 1.83588 28.0982 1.83588L40.7851 1.83588L40.7851 10.7322C40.7851 12.0686 40.4888 13.3664 39.9044 14.5895C39.8449 14.7139 39.8141 14.8504 39.8141 14.9886L39.8141 17.6021C39.8141 20.0878 38.8253 22.3934 37.03 24.0942C36.8058 24.3064 36.5732 24.5054 36.3327 24.6908C36.3274 24.6945 36.3223 24.6985 36.3171 24.7023C34.6352 25.9928 32.5752 26.62 30.4238 26.4792C25.8173 26.1778 22.209 22.1308 22.209 17.2658ZM51.2292 30.4217C52.5718 30.4635 53.8434 29.9649 54.8059 29.0209C55.769 28.0763 56.2994 26.8094 56.2994 25.4534L56.2994 23.4906C56.2994 23.348 56.3322 23.2076 56.3953 23.0801L56.8538 22.1534C57.1263 21.6023 57.2704 20.9854 57.2704 20.3693L57.2704 16.557L49.4389 16.557C47.2625 16.557 45.4918 18.3465 45.4918 20.5463L45.4918 20.601C45.4918 21.0655 45.6004 21.5306 45.8059 21.9461L46.3669 23.0801C46.43 23.2075 46.4628 23.348 46.4628 23.4906L46.4628 25.2065C46.4628 28.0024 48.601 30.342 51.2292 30.4217ZM9.64827 30.4241C6.93625 30.4241 4.73004 28.1943 4.73004 25.4535C4.73004 24.9466 4.32341 24.5356 3.82184 24.5356C3.77098 24.5356 3.72133 24.5409 3.67277 24.5491C3.67544 24.4701 3.67798 24.3911 3.68064 24.3129C3.70087 23.6817 3.72036 23.0856 3.75633 22.5743C3.87234 20.925 4.52443 19.4053 5.59247 18.2948C6.67009 17.1742 8.11037 16.5572 9.64802 16.5572C11.1857 16.5572 12.6258 17.1742 13.7036 18.2948C14.7716 19.4053 15.4237 20.925 15.5397 22.5743C15.5756 23.0855 15.5952 23.6815 15.6158 24.3125C15.6176 24.3667 15.6194 24.4217 15.6212 24.4763C14.6331 22.9376 13.1071 21.8038 11.1353 21.1634C9.31368 20.572 7.74697 20.6086 7.68086 20.6103C7.44303 20.617 7.21731 20.7176 7.05226 20.8907L5.41362 22.6082C5.06547 22.9731 5.07589 23.5542 5.43699 23.9061C5.79809 24.2579 6.37304 24.2473 6.72119 23.8824L8.0847 22.4534C9.25895 22.5114 13.0367 22.9554 14.5059 26.2251C14.1362 28.6346 12.0871 30.4241 9.64827 30.4241ZM31.0115 32.1927L26.0933 28.7951L26.0933 27.0817C27.3659 27.7769 28.7908 28.2118 30.3063 28.3109C30.5457 28.3266 30.7836 28.3343 31.0208 28.3343C32.7574 28.3343 34.4288 27.9147 35.9297 27.1184L35.9297 28.7951L31.0115 32.1927ZM5.82643 32.1536C4.1276 31.5358 3.27546 30.7122 2.9117 30.2624C3.1597 29.6072 3.32051 28.8567 3.42938 28.0645C3.93022 29.2782 4.76903 30.3143 5.82643 31.0535L5.82643 32.1536ZM13.4693 31.062L13.4691 32.1567C15.1663 31.5391 16.0224 30.7082 16.3841 30.2627C16.1366 29.6089 15.9759 28.8602 15.867 28.0698C15.3658 29.2927 14.5258 30.3268 13.4693 31.062ZM27.3225 35.735L27.3226 35.7348L29.5952 33.4379L25.3103 30.4778L24.4014 31.4431L27.2259 35.725C27.2308 35.7326 27.2425 35.7501 27.272 35.7531C27.3015 35.7562 27.3161 35.7414 27.3225 35.735ZM34.751 35.7533C34.7805 35.7504 34.7922 35.7329 34.7971 35.7253L37.6218 31.4433L36.7127 30.4781L32.4278 33.4383L34.7004 35.7351L34.7013 35.7359C34.7081 35.7426 34.7226 35.7569 34.751 35.7533ZM51.381 34.9508L49.32 32.868C49.356 32.7029 49.3763 32.5221 49.3762 32.3228L49.3761 31.9354C49.948 32.1251 50.5508 32.2377 51.1746 32.2566C51.2446 32.2588 51.314 32.2597 51.3837 32.2597C52.073 32.2597 52.7458 32.1545 53.3861 31.9537L53.3861 32.3233C53.3861 32.5063 53.4089 32.6858 53.4517 32.8582L51.381 34.9508ZM8.26671 34.6376C9.0411 35.3815 10.2546 35.3816 11.0292 34.6378L11.8737 33.8267C11.7311 33.5568 11.6529 33.2507 11.6529 32.93L11.653 31.9524C11.0183 32.1514 10.3452 32.2599 9.64802 32.2599C8.95004 32.2599 8.27652 32.1519 7.64295 31.9518L7.64295 32.9302C7.64295 33.2507 7.56461 33.5566 7.42208 33.8265L8.26671 34.6376Z" transform="translate(13 20)" id="Shape" fill="url(#gradient_1)" fill-rule="evenodd" stroke="none" />
    <path d="M1 0C0.447733 0 0 0.372431 0 0.831815L0 6.16819C0 6.62757 0.447733 7 1 7C1.55227 7 2 6.62757 2 6.16819L2 0.831815C2 0.372542 1.55227 0 1 0Z" transform="translate(69 59)" id="Path" fill="url(#gradient_1)" stroke="none" />
    <path d="M1 0C0.447733 0 0 0.441834 0 0.986824L0 6.01318C0 6.55817 0.447733 7 1 7C1.55227 7 2 6.55817 2 6.01318L2 0.986824C2 0.441965 1.55227 0 1 0Z" transform="translate(17 59)" id="Path" fill="url(#gradient_1)" stroke="none" />
    <path d="M14.7411 2.58414C11.3978 -0.707004 4.40293 -0.0778043 1.55046 0.345452C0.652006 0.478764 0 1.22724 0 2.12515L0 4.12982C0 4.61039 0.395777 5 0.883956 5C1.37214 5 1.76791 4.61039 1.76791 4.12982L1.76791 2.12503C1.76791 2.09545 1.78771 2.07015 1.81411 2.06621C2.95347 1.89716 5.2144 1.63634 7.55688 1.79007C10.3134 1.97072 12.31 2.6519 13.4911 3.8147C13.8363 4.15453 14.396 4.15453 14.7411 3.8147C15.0863 3.47486 15.0863 2.92386 14.7411 2.58414Z" transform="translate(36 29)" id="Path" fill="url(#gradient_1)" stroke="none" />
    <path d="M1 0C0.447733 0 0 0.42798 0 0.955881L0 5.04412C0 5.57202 0.447733 6 1 6C1.55227 6 2 5.57202 2 5.04412L2 0.955881C2 0.428107 1.55227 0 1 0Z" transform="translate(32 60)" id="Path" fill="url(#gradient_1)" stroke="none" />
    <path d="M1 0C0.447733 0 0 0.42798 0 0.955881L0 5.04412C0 5.57202 0.447733 6 1 6C1.55227 6 2 5.57202 2 5.04412L2 0.955881C2 0.428107 1.55227 0 1 0Z" transform="translate(54 60)" id="Path" fill="url(#gradient_1)" stroke="none" />
    <path d="M45 90C69.8528 90 90 69.8528 90 45C90 20.1472 69.8528 0 45 0C20.1472 0 0 20.1472 0 45C0 69.8528 20.1472 90 45 90Z" id="Oval-6" fill="none" stroke="url(#gradient_2)" stroke-width="3" />
  </g>
</svg>