<?xml version="1.0" encoding="UTF-8"?>
<svg width="23px" height="21px" viewBox="0 0 23 21" version="1.1" xmlns="http://www.w3.org/2000/svg" xmlns:xlink="http://www.w3.org/1999/xlink">
    <!-- Generator: Sketch 49.3 (51167) - http://www.bohemiancoding.com/sketch -->
    <title>Group</title>
    <desc>Created with Sketch.</desc>
    <defs></defs>
    <g id="Symbols" stroke="none" stroke-width="1" fill="none" fill-rule="evenodd">
        <g id="faq/box/ico2" transform="translate(0.000000, -3.000000)">
            <g id="Group">
                <rect id="Rectangle" x="0" y="0" width="26" height="26"></rect>
                <g id="Page-1" transform="translate(0.000000, 3.000000)" stroke="#464D5C">
                    <path d="M8.20807283,12.4038281 C6.55555961,12.7327246 5.15215887,13.1286371 3.8649333,13.6519849 C2.83761604,14.0696249 2.07259601,14.4959229 1.45118077,15.0324587 C0.873148987,15.5315482 0.573515629,16.0029054 0.53587263,16.5196271 C0.489642663,17.1530468 0.488042389,17.7908254 0.531384396,18.4199574 C0.577193879,19.0854907 0.984161364,19.5270532 1.76430596,19.7326443 C2.30474941,19.8750386 2.86432345,19.9528487 3.38753095,19.9545302 C8.2329904,19.970429 13.2116556,19.9707836 19.7083771,19.9595082 C20.1051246,19.9588427 20.5266447,19.9118173 20.9493799,19.8238041 C22.0241309,19.5999736 22.4980141,19.063581 22.4987791,18.1223131 C22.4990124,17.9171832 22.4990124,17.9171832 22.4993205,17.712236 C22.5000179,17.248262 22.5001826,17.0421557 22.4998446,16.7847341 C22.4993701,16.4100624 22.4004928,16.0694894 22.1970995,15.7525189 C21.8377774,15.1925808 21.2877177,14.7388719 20.4682599,14.2825259 C19.284492,13.6233137 17.9459524,13.1495526 16.1646724,12.7069393 C15.9846341,12.6622205 15.7946053,12.6179417 15.5773142,12.5696548 C15.4035945,12.5310504 15.3626861,12.5222331 14.9234989,12.4281531 C14.8790448,12.4186305 14.8381074,12.4098462 14.7998474,12.4016165 C13.7512951,13.8742031 12.520732,15.1951784 11.7548343,15.6374389 L11.5047576,15.7818434 L11.2547046,15.637398 C10.4852292,15.1929034 9.22467296,13.8408446 8.20807283,12.4038281 Z" id="Stroke-1"></path>
                    <path d="M7.68923903,3.91232911 L7.68950049,3.93282211 C7.68432478,4.60164837 7.76515451,5.22589194 7.93437088,5.93696994 C8.20014182,7.05408471 8.58200675,7.87089191 9.20055184,8.5220611 C10.025432,9.39049286 10.9848594,9.71963121 12.1282233,9.49313422 C12.9593763,9.32844244 13.6193698,8.87476943 14.0978664,8.16108062 C15.1464276,6.59731557 15.5131057,4.86085999 15.2095921,2.98793473 C15.0189522,1.81135991 14.2847721,1.04157103 13.0259592,0.704391367 C11.9752232,0.422954641 10.9184136,0.431919773 9.88037964,0.732767707 C8.86863343,1.02606159 8.21317328,1.63756499 7.89359395,2.582056 C7.74500113,3.02121913 7.67525964,3.49210019 7.68923903,3.91232911 Z" id="Stroke-3"></path>
                </g>
            </g>
        </g>
    </g>
</svg>