<?xml version="1.0" encoding="UTF-8"?>
<svg width="62px" height="62px" viewBox="0 0 62 62" version="1.1" xmlns="http://www.w3.org/2000/svg" xmlns:xlink="http://www.w3.org/1999/xlink">
    <!-- Generator: Sketch 49.3 (51167) - http://www.bohemiancoding.com/sketch -->
    <title>Group 55</title>
    <desc>Created with Sketch.</desc>
    <defs></defs>
    <g id="00_home" stroke="none" stroke-width="1" fill="none" fill-rule="evenodd">
        <g id="01_home" transform="translate(-1060.000000, -2853.000000)">
            <g id="Group-49" transform="translate(798.000000, 2589.000000)">
                <g id="Group-25">
                    <g id="Group-41">
                        <g id="Group-55" transform="translate(262.000000, 264.000000)">
                            <circle id="Oval-5-Copy-2" fill="#464D5C" cx="31" cy="31" r="31"></circle>
                            <path d="M38.7801995,35.9815621 C36.9396727,35.9815621 35.2986471,36.8584701 34.2488159,38.2139484 L25.458141,33.3039113 C25.6641206,32.7124676 25.7770771,32.0745955 25.7770771,31.4167069 C25.7770771,30.7522568 25.6641206,30.1211953 25.4516627,29.5232732 L34.2355269,24.6193823 C35.2785475,25.9816711 36.9267159,26.8654728 38.7737211,26.8654728 C41.9230485,26.8654728 44.4945534,24.3004463 44.4945534,21.1443083 C44.4945534,17.9881703 41.9298591,15.4234759 38.7737211,15.4234759 C35.6175831,15.4234759 33.0528888,17.9881703 33.0528888,21.1443083 C33.0528888,21.8087584 33.1658453,22.4466305 33.3783032,23.0380741 L24.6010004,27.9416328 C23.5578968,26.5727826 21.9100606,25.6958745 20.0627232,25.6958745 C16.9133958,25.6958745 14.3418908,28.2605689 14.3418908,31.4167069 C14.3418908,34.5728448 16.9133958,37.1377884 20.0695338,37.1377884 C21.9165389,37.1377884 23.5643752,36.2540697 24.6142894,34.8852195 L33.3984028,39.7955888 C33.1856127,40.3935939 33.0661778,41.0378613 33.0661778,41.7023114 C33.0661778,44.851971 35.6308721,47.4234759 38.7870101,47.4234759 C41.9431481,47.4234759 44.5078424,44.8584494 44.5078424,41.7023114 C44.5078424,38.5461734 41.9363375,35.9815621 38.7801995,35.9815621 Z M38.7801995,17.2241357 C40.9464729,17.2241357 42.7072657,18.9848454 42.7072657,21.1511189 C42.7072657,23.3170601 40.9464729,25.0777698 38.7801995,25.0777698 C36.6142583,25.0777698 34.8535486,23.3170601 34.8535486,21.1511189 C34.8535486,18.9848454 36.6207367,17.2241357 38.7801995,17.2241357 Z M20.0695338,35.34369 C17.9032603,35.34369 16.1425506,33.5829803 16.1425506,31.4167069 C16.1425506,29.2506826 17.9032603,27.4899729 20.0695338,27.4899729 C22.235475,27.4899729 23.9961847,29.2506826 23.9961847,31.4167069 C23.9961847,33.5829803 22.2289966,35.34369 20.0695338,35.34369 Z M38.7801995,45.6228992 C36.6142583,45.6228992 34.8535486,43.8617742 34.8535486,41.695833 C34.8535486,39.5295596 36.6142583,37.7688498 38.7801995,37.7688498 C40.9464729,37.7688498 42.7072657,39.5295596 42.7072657,41.695833 C42.7072657,43.8617742 40.9464729,45.6228992 38.7801995,45.6228992 Z" id="Fill-1" fill="#FFFFFF"></path>
                        </g>
                    </g>
                </g>
            </g>
        </g>
    </g>
</svg>