<?xml version="1.0" encoding="UTF-8"?>
<svg width="112px" height="112px" viewBox="0 0 112 112" version="1.1" xmlns="http://www.w3.org/2000/svg" xmlns:xlink="http://www.w3.org/1999/xlink">
    <!-- Generator: Sketch 49.3 (51167) - http://www.bohemiancoding.com/sketch -->
    <title>Group 57</title>
    <desc>Created with Sketch.</desc>
    <defs>
        <polygon id="path-1" points="0.00909836066 0.112796834 36.946168 0.112796834 36.946168 57 0.00909836066 57"></polygon>
    </defs>
    <g id="00_home" stroke="none" stroke-width="1" fill="none" fill-rule="evenodd">
        <g id="01_home_banner1_informar-endereco" transform="translate(-798.000000, -3424.000000)">
            <g id="Group-15" transform="translate(798.000000, 3426.000000)">
                <g id="Group-55" transform="translate(2.000000, 0.000000)">
                    <g id="Group-54">
                        <g id="Group-57">
                            <circle id="Oval-6" stroke="#FFA600" stroke-width="3" cx="54" cy="54" r="54"></circle>
                            <g id="Group-56" transform="translate(36.000000, 26.000000)">
                                <g id="Group-3">
                                    <mask id="mask-2" fill="white">
                                        <use xlink:href="#path-1"></use>
                                    </mask>
                                    <g id="Clip-2"></g>
                                    <path d="M33.3150123,0 L3.6310041,0 C1.62890984,0 0,1.61570185 0,3.60137731 L0,53.2853747 C0,55.2716517 1.62890984,56.8872032 3.6310041,56.8872032 L33.3150123,56.8872032 C35.3171066,56.8872032 36.946168,55.2716517 36.946168,53.2853747 L36.946168,3.60137731 C36.946168,1.61570185 35.3171066,0 33.3150123,0 Z M1.81967213,45 L35.1264959,45 L35.1264959,10 L1.81967213,10 L1.81967213,45 Z M3.6310041,1.80474934 L33.3150123,1.80474934 C34.313709,1.80474934 35.1264959,2.60498822 35.1264959,3.58826681 L35.1264959,7.80474934 L1.81967213,7.80474934 L1.81967213,3.58826681 C1.81967213,2.60498822 2.63230738,1.80474934 3.6310041,1.80474934 Z M33.3150123,54.8763905 L3.6310041,54.8763905 C2.63230738,54.8763905 1.81967213,53.9816207 1.81967213,52.881316 L1.81967213,46.8763905 L35.1264959,46.8763905 L35.1264959,52.881316 C35.1264959,53.9816207 34.313709,54.8763905 33.3150123,54.8763905 Z" id="Fill-1" fill="#fff" mask="url(#mask-2)"></path>
                                </g>
                                <path d="M18.000229,48 C16.34592,48 15,49.345783 15,50.9999237 C15,52.6540644 16.34592,54 18.000229,54 C19.6539274,54 21,52.6540644 21,50.9999237 C21,49.345783 19.6545381,48 18.000229,48 Z M18.000229,52.7787813 C17.0191853,52.7787813 16.221343,51.9808676 16.221343,50.9999237 C16.221343,50.0191324 17.0191853,49.2212187 18.000229,49.2212187 C18.9806621,49.2212187 19.778657,50.0191324 19.778657,50.9999237 C19.778657,51.9808676 18.9806621,52.7787813 18.000229,52.7787813 Z" id="Fill-4" fill="#fff"></path>
                                <path d="M13.6410051,6 L22.3589949,6 C22.7126695,6 23,5.55175 23,5 C23,4.44725 22.7126695,4 22.3589949,4 L13.6410051,4 C13.2873305,4 13,4.44725 13,5 C13,5.55175 13.2873305,6 13.6410051,6 Z" id="Fill-5" fill="#fff"></path>
                            </g>
                        </g>
                    </g>
                </g>
            </g>
        </g>
    </g>
</svg>