<?xml version="1.0" encoding="UTF-8"?>
<svg width="24px" height="24px" viewBox="0 0 24 24" version="1.1" xmlns="http://www.w3.org/2000/svg" xmlns:xlink="http://www.w3.org/1999/xlink">
    <!-- Generator: Sketch 49.3 (51167) - http://www.bohemiancoding.com/sketch -->
    <title>Group 2</title>
    <desc>Created with Sketch.</desc>
    <defs></defs>
    <g id="Symbols" stroke="none" stroke-width="1" fill="none" fill-rule="evenodd">
        <g id="faq/box/ico4-copy-4" transform="translate(1.000000, -1.000000)" stroke="#464D5C">
            <g id="Group-2" transform="translate(0.000000, 2.000000)">
                <circle id="Oval-3" cx="11" cy="11" r="11"></circle>
                <path d="M21.8309237,10.4824431 C21.8380356,10.6438751 21.841629,10.8062211 21.841629,10.9694065 C21.841629,13.2639685 21.1311724,15.3925946 19.9182353,17.1473086 L19.4556594,17.4833896 L15.6937225,14.7501825 L17.1306546,10.3277605 L21.7806643,10.3277605 L21.8309237,10.4824431 Z M1.84529611,16.902634 C0.745633431,15.2160431 0.101233107,13.2055225 0.0864491581,11.0454261 L0.319632843,10.3277605 L4.96964256,10.3277605 L6.40657458,14.7501825 L2.6446377,17.4833896 L1.84529611,16.902634 Z M7.43744271,21.2627659 L7.20197214,21.0916866 L8.63890416,16.6692645 L13.2889139,16.6692645 L14.7258459,21.0916866 L14.4903753,21.2627659 C13.3844831,21.6415489 12.1982037,21.8471264 10.963909,21.8471264 C9.72961436,21.8471264 8.54333491,21.6415489 7.43744271,21.2627659 Z M14.95484,0.847126434 C16.6161974,1.50268487 18.0774196,2.55543048 19.2214817,3.88833834 L19.6702641,5.26954847 L15.9083272,8.00275561 L12.1463903,5.26954847 L13.5833223,0.847126434 L14.95484,0.847126434 Z M2.70633636,3.88833834 C3.85039843,2.55543048 5.31162064,1.50268487 6.97297808,0.847126434 L8.34449572,0.847126434 L9.78142775,5.26954847 L6.01949087,8.00275561 L2.25755398,5.26954847 L2.70633636,3.88833834 Z M10.963909,7.01387198 L14.7258459,9.74707911 L13.2889139,14.1695011 L8.63890416,14.1695011 L7.20197214,9.74707911 L10.963909,7.01387198 Z" id="Combined-Shape"></path>
            </g>
        </g>
    </g>
</svg>