<?xml version="1.0" encoding="UTF-8"?>
<svg width="21px" height="17px" viewBox="0 0 21 17" version="1.1" xmlns="http://www.w3.org/2000/svg" xmlns:xlink="http://www.w3.org/1999/xlink">
    <!-- Generator: Sketch 49.3 (51167) - http://www.bohemiancoding.com/sketch -->
    <title>Page 1</title>
    <desc>Created with Sketch.</desc>
    <defs></defs>
    <g id="Symbols" stroke="none" stroke-width="1" fill="none" fill-rule="evenodd">
        <g id="faq/box/ico4-copy-2" transform="translate(-1.000000, -5.000000)" stroke="#464D5C">
            <g id="Page-1" transform="translate(1.000000, 6.000000)">
                <path d="M11.6666667,13.6111298 C11.6666667,14.2554393 11.1443281,14.7777778 10.4999814,14.7777778 C9.85567186,14.7777778 9.33333333,14.2554393 9.33333333,13.6111298 C9.33333333,12.966783 9.85567186,12.4444444 10.4999814,12.4444444 C11.1443281,12.4444444 11.6666667,12.966783 11.6666667,13.6111298 Z" id="Stroke-1"></path>
                <path d="M21,4.63394337 C18.5151627,1.80527821 14.7408365,0 10.5141211,0 C6.27126734,0 2.48444175,1.8193341 0,4.66666667" id="Stroke-3" stroke-linecap="round"></path>
                <path d="M17.8888889,7.74070168 C16.2085928,5.40213265 13.5302958,3.88888889 10.513087,3.88888889 C7.48007357,3.88888889 4.78967251,5.41821773 3.11111111,7.77777778" id="Stroke-5" stroke-linecap="round"></path>
                <path d="M14.7777778,10.0767226 C13.8349854,8.70042915 12.1033613,7.77777778 10.1228315,7.77777778 C8.12579467,7.77777778 6.38176074,8.71576227 5.44444444,10.1111111" id="Stroke-7" stroke-linecap="round"></path>
            </g>
        </g>
    </g>
</svg>