<?xml version="1.0" encoding="UTF-8"?>
<svg width="24px" height="24px" viewBox="0 0 24 24" version="1.1" xmlns="http://www.w3.org/2000/svg" xmlns:xlink="http://www.w3.org/1999/xlink">
    <!-- Generator: Sketch 49.3 (51167) - http://www.bohemiancoding.com/sketch -->
    <title>faq/box/ico2</title>
    <desc>Created with Sketch.</desc>
    <defs></defs>
    <g id="Symbols" stroke="none" stroke-width="1" fill="none" fill-rule="evenodd">
        <g id="faq/cat-button" transform="translate(-14.000000, -17.000000)">
            <g id="Group" transform="translate(15.000000, 16.000000)">
                <g id="faq/box/ico4">
                    <g id="Group" fill-rule="evenodd">
                        <rect id="Rectangle" x="0" y="0" width="26" height="26"></rect>
                    </g>
                    <circle id="Oval-3" stroke="#464D5C" cx="11" cy="13" r="11"></circle>
                    <g id="Group-2" fill-rule="evenodd" transform="translate(8.000000, 7.000000)" stroke="#464D5C">
                        <circle id="Oval-4" cx="3.5" cy="11.5" r="1"></circle>
                        <path d="M0,0.612 C0.96333815,0.20399796 1.99466117,0 3.094,0 C3.85333713,0 4.52766372,0.12466542 5.117,0.374 C5.70633628,0.62333458 6.16249839,0.9746644 6.4855,1.428 C6.80850162,1.8813356 6.97,2.40266372 6.97,2.992 C6.97,3.57000289 6.81416823,4.09699762 6.5025,4.573 C6.19083178,5.04900238 5.70067001,5.5136644 5.032,5.967 C4.55599762,6.29566831 4.2046678,6.5733322 3.978,6.8 C3.7513322,7.0266678 3.59550043,7.27316534 3.5105,7.5395 C3.42549958,7.80583467 3.383,8.15999779 3.383,8.602 L3.383,8.908" id="Path" stroke-linecap="round"></path>
                    </g>
                </g>
            </g>
        </g>
    </g>
</svg>