<?xml version="1.0" encoding="UTF-8"?>
<svg width="72px" height="72px" viewBox="0 0 72 72" version="1.1" xmlns="http://www.w3.org/2000/svg" xmlns:xlink="http://www.w3.org/1999/xlink">
    <!-- Generator: Sketch 49.3 (51167) - http://www.bohemiancoding.com/sketch -->
    <title>Group 21</title>
    <desc>Created with Sketch.</desc>
    <defs>
        <polygon id="path-1" points="0 0 37.9906557 0 37.9906557 32.8497014 0 32.8497014"></polygon>
    </defs>
    <g id="01_speedtest" stroke="none" stroke-width="1" fill="none" fill-rule="evenodd">
        <g transform="translate(-897.000000, -1790.000000)" id="Group-16">
            <g transform="translate(898.000000, 1614.000000)">
                <g id="Group-5" transform="translate(1.000000, 178.000000)">
                    <g id="Group-3-Copy-2">
                        <g id="Group-18">
                            <g id="Group-21">
                                <circle id="Oval-6" stroke="#FFA600" stroke-width="3" cx="34" cy="34" r="34"></circle>
                                <g id="download-speed" transform="translate(15.000000, 16.000000)">
                                    <g id="Group-3">
                                        <mask id="mask-2" fill="white">
                                            <use xlink:href="#path-1"></use>
                                        </mask>
                                        <g id="Clip-2"></g>
                                        <path d="M38,19.2310237 C38,14.0184313 35.9071967,9.28801422 32.5217705,5.84053081 C32.4949836,5.80581043 32.4671066,5.77093365 32.4348689,5.73855924 C32.4030984,5.70681043 32.3685246,5.67803318 32.3331721,5.65175829 C28.9008689,2.2519763 24.1904262,0.150454976 19,0.150454976 C13.8095738,0.150454976 9.09913115,2.2519763 5.66620492,5.65175829 C5.63147541,5.67865877 5.59690164,5.70681043 5.56513115,5.73855924 C5.53289344,5.77093365 5.50501639,5.80518483 5.47822951,5.84053081 C2.09280328,9.28801422 0,14.0184313 0,19.2310237 C0,24.3267867 1.976,29.1175735 5.56341803,32.721455 C5.56404098,32.7220806 5.5645082,32.7227062 5.56513115,32.7227062 C5.56513115,32.7233318 5.5657541,32.7233318 5.5657541,32.7239573 L5.56762295,32.7252085 C5.75014754,32.9085071 5.98920492,33.0001564 6.2282623,33.0001564 C6.46731967,33.0001564 6.70637705,32.9085071 6.88890164,32.7252085 C6.90478689,32.7092559 6.91880328,32.6928341 6.93281967,32.6762559 L9.81209836,29.7841422 C10.1771475,29.417545 10.1771475,28.8238578 9.81209836,28.4572607 C9.44767213,28.0912891 8.85571311,28.0912891 8.49081967,28.4572607 L6.24414754,30.7139289 C3.62339344,27.7858436 2.10370492,24.1006351 1.89439344,20.1694123 L5.07237705,20.1694123 C5.58833607,20.1694123 6.00680328,19.7490142 6.00680328,19.2310237 C6.00680328,18.7128768 5.58833607,18.2926351 5.07237705,18.2926351 L1.89439344,18.2926351 C2.11211475,14.2549052 3.72181967,10.5833033 6.25022131,7.75406161 L8.49081967,10.0046303 C8.67318852,10.1873033 8.91240164,10.2789526 9.15145902,10.2789526 C9.39051639,10.2789526 9.63019672,10.1873033 9.81209836,10.0046303 C10.1771475,9.63818957 10.1771475,9.04372038 9.81209836,8.67712322 L7.5715,6.4263981 C10.3887951,3.88805687 14.0450492,2.27090047 18.0655738,2.05288152 L18.0655738,5.24434123 C18.0655738,5.76295735 18.4841967,6.18272986 19,6.18272986 C19.5158033,6.18272986 19.9344262,5.76295735 19.9344262,5.24434123 L19.9344262,2.05288152 C23.9549508,2.27090047 27.6112049,3.88805687 30.4285,6.4270237 L28.1872787,8.67712322 C27.8228525,9.04372038 27.8228525,9.63818957 28.1872787,10.0046303 C28.3698033,10.1873033 28.6088607,10.2789526 28.847918,10.2789526 C29.0871311,10.2789526 29.3268115,10.1873033 29.5087131,10.0046303 L31.7497787,7.75406161 C34.2775574,10.5833033 35.8878852,14.2549052 36.1049836,18.2926351 L32.927623,18.2926351 C32.411041,18.2926351 31.9931967,18.7128768 31.9931967,19.2310237 C31.9931967,19.7490142 32.411041,20.1694123 32.927623,20.1694123 L36.1056066,20.1694123 C35.8962951,24.1006351 34.3759836,27.7858436 31.7558525,30.7139289 L29.5087131,28.4572607 C29.1442869,28.0912891 28.5523279,28.0912891 28.1872787,28.4572607 C27.8228525,28.8238578 27.8228525,29.4181706 28.1872787,29.7841422 L31.1134344,32.7227062 C31.295959,32.9060047 31.5350164,32.997654 31.7740738,32.997654 C31.8939918,32.997654 32.0132869,32.9745071 32.1257295,32.9293081 C32.2383279,32.8834834 32.3436066,32.8143555 32.4348689,32.7227062 C36.0235328,29.1188246 38,24.3274123 38,19.2310237 Z" id="Fill-1" fill="#464D5C" mask="url(#mask-2)"></path>
                                    </g>
                                    <path d="M23.47915,10.0591709 C23.0538182,9.89042059 22.571278,10.0949996 22.4013111,10.5153712 L20.0051921,16.4340778 C19.8934008,16.4223173 21.6245761,17.0376954 21.5629458,16.9981744 L23.9401335,11.1254161 C24.1107913,10.7050444 23.9040673,10.2273743 23.47915,10.0591709 Z" id="Fill-4" fill="#464D5C"></path>
                                    <path d="M19.5,23 C17.5670034,23 16,21.4329966 16,19.5 C16,17.5670034 17.5670034,16 19.5,16 C21.4329966,16 23,17.5670034 23,19.5 C23,21.4329966 21.4329966,23 19.5,23 Z M19.5,21.6 C20.659798,21.6 21.6,20.659798 21.6,19.5 C21.6,18.340202 20.659798,17.4 19.5,17.4 C18.340202,17.4 17.4,18.340202 17.4,19.5 C17.4,20.659798 18.340202,21.6 19.5,21.6 Z" id="Combined-Shape" fill="#464D5C"></path>
                                </g>
                            </g>
                        </g>
                    </g>
                </g>
            </g>
        </g>
    </g>
</svg>