<?xml version="1.0" standalone="no"?>
<!DOCTYPE svg PUBLIC "-//W3C//DTD SVG 20010904//EN"
 "http://www.w3.org/TR/2001/REC-SVG-20010904/DTD/svg10.dtd">
<svg version="1.0" xmlns="http://www.w3.org/2000/svg"
 width="260.000000pt" height="260.000000pt" viewBox="0 0 260.000000 260.000000"
 preserveAspectRatio="xMidYMid meet">
<metadata>
Created by potrace 1.11, written by Peter Selinger 2001-2013
</metadata>
<g transform="translate(0.000000,260.000000) scale(0.100000,-0.100000)"
fill="#000000" stroke="none">
<path d="M279 2328 c22 -40 82 -154 135 -253 l96 -180 -195 -3 c-107 -1 -195
-5 -195 -8 0 -3 66 -120 147 -260 l146 -254 359 0 c197 0 358 4 358 8 0 4 -4
12 -9 18 -5 5 -70 115 -145 244 l-135 235 204 3 c113 1 205 4 205 6 0 2 -65
118 -144 257 l-143 254 -362 3 -362 2 40 -72z"/>
<path d="M1643 2388 c-14 -19 -271 -470 -278 -491 -6 -15 10 -17 198 -19 l205
-3 -140 -240 c-77 -132 -143 -246 -145 -252 -4 -10 71 -13 354 -13 l359 0 144
252 c80 139 146 256 148 260 2 4 -87 9 -197 10 l-201 3 104 187 c57 102 120
216 140 252 l37 66 -359 0 c-276 0 -362 -3 -369 -12z"/>
<path d="M1498 1198 c55 -91 272 -468 272 -473 0 -3 -93 -5 -206 -5 -113 0
-204 -4 -202 -8 2 -5 68 -124 148 -265 l145 -257 358 0 c196 0 357 3 357 8 0
4 -63 121 -139 259 l-139 253 199 0 c109 0 199 2 199 4 0 2 -64 118 -143 257
l-142 254 -364 3 -363 2 20 -32z"/>
<path d="M268 963 c-78 -135 -144 -250 -146 -255 -2 -4 84 -9 191 -10 l194 -3
-128 -245 c-71 -135 -129 -248 -129 -252 0 -5 157 -8 349 -8 l349 0 143 252
c79 139 146 256 147 261 2 4 -88 7 -201 7 l-205 0 144 250 143 250 -354 0
-353 0 -144 -247z"/>
</g>
</svg>
